<?xml version="1.0" standalone="no"?>
<!DOCTYPE svg PUBLIC "-//W3C//DTD SVG 20010904//EN"
 "http://www.w3.org/TR/2001/REC-SVG-20010904/DTD/svg10.dtd">
<svg version="1.0" xmlns="http://www.w3.org/2000/svg"
 width="260.000000pt" height="260.000000pt" viewBox="0 0 260.000000 260.000000"
 preserveAspectRatio="xMidYMid meet">
<metadata>
Created by potrace 1.14, written by Peter Selinger 2001-2017
</metadata>
<g transform="translate(0.000000,260.000000) scale(0.100000,-0.100000)"
fill="#000000" stroke="none">
<path d="M1293 1760 c-10 -15 -9 -17 8 -13 20 5 25 18 11 27 -4 2 -13 -4 -19
-14z"/>
<path d="M1331 1470 c-1 -41 -6 -109 -12 -150 -6 -41 -13 -106 -17 -145 -7
-69 -8 -70 -37 -73 -83 -7 -115 -14 -115 -26 0 -10 17 -12 71 -8 64 4 71 3 68
-13 -2 -10 -12 -19 -22 -21 -11 -1 -21 -5 -24 -8 -3 -3 -14 -1 -24 5 -30 16
-59 -6 -59 -44 0 -37 15 -57 42 -57 24 0 23 21 -2 27 -24 6 -27 43 -3 43 9 0
25 -7 35 -16 16 -16 18 -16 24 0 13 33 24 14 24 -42 0 -63 4 -74 26 -65 11 4
14 27 14 94 0 53 4 89 10 89 6 0 10 7 10 15 0 8 -4 15 -10 15 -15 0 -12 71 4
118 8 22 18 77 22 121 5 58 12 89 26 106 23 29 35 32 41 8 4 -15 5 -15 6 2 0
11 -4 27 -9 35 -7 12 -13 11 -35 -10 -30 -29 -42 -20 -48 35 -2 24 -4 11 -6
-35z"/>
<path d="M1490 1498 c-26 -73 -40 -98 -53 -98 -9 0 -18 -24 -27 -72 -7 -40
-16 -80 -20 -88 -4 -8 -11 -37 -14 -65 l-6 -50 23 28 c32 38 51 36 44 -5 -7
-37 -7 -38 36 62 21 49 33 61 53 53 7 -2 19 13 30 36 10 23 24 41 31 41 15 0
17 -13 4 -38 -5 -9 -20 -43 -32 -74 -23 -59 -39 -74 -39 -38 0 41 -15 18 -18
-27 -3 -53 -35 -97 -64 -89 -13 3 -20 -3 -24 -20 -12 -46 7 -39 69 27 66 71
65 70 116 142 60 82 65 50 10 -59 -18 -35 -30 -67 -26 -70 3 -4 13 11 22 32 8
22 39 87 68 147 29 59 50 107 46 107 -19 0 -39 -14 -39 -27 0 -23 -25 -9 -28
17 -4 25 18 46 30 27 4 -7 6 -2 5 11 -1 24 -22 30 -34 8 -4 -7 -19 -17 -32
-21 -23 -7 -24 -6 -19 33 10 73 -17 72 -55 -1 -14 -26 -16 -27 -31 -12 -12 12
-15 29 -11 66 2 27 3 49 1 49 -2 0 -9 -15 -16 -32z m94 -85 c-6 -37 -29 -73
-46 -73 -26 0 23 108 50 110 2 0 0 -17 -4 -37z m-99 -113 c-16 -47 -31 -68
-41 -57 -10 9 8 75 29 108 28 45 35 17 12 -51z m136 -13 c-17 -17 -22 -2 -9
29 11 28 12 29 16 5 2 -13 -1 -28 -7 -34z m49 33 c0 -5 -2 -10 -4 -10 -3 0 -8
5 -11 10 -3 6 -1 10 4 10 6 0 11 -4 11 -10z"/>
<path d="M1760 1438 c-26 -40 -32 -54 -12 -29 11 14 28 31 38 38 13 10 14 13
3 13 -8 0 -21 -10 -29 -22z"/>
<path d="M1811 1424 c0 -11 3 -14 6 -6 3 7 2 16 -1 19 -3 4 -6 -2 -5 -13z"/>
<path d="M1866 1341 c-4 -5 3 -7 14 -4 23 6 26 13 6 13 -8 0 -17 -4 -20 -9z"/>
<path d="M1780 1292 c0 -7 -15 -45 -34 -85 -18 -40 -36 -84 -40 -97 -7 -22 -5
-22 12 5 60 96 110 186 99 177 -10 -9 -17 -8 -25 0 -9 9 -12 9 -12 0z"/>
<path d="M2010 1285 c-14 -8 -20 -14 -14 -15 5 0 19 7 30 15 24 18 16 19 -16
0z"/>
<path d="M1910 1250 c0 -5 5 -10 11 -10 5 0 7 5 4 10 -3 6 -8 10 -11 10 -2 0
-4 -4 -4 -10z"/>
<path d="M1521 1234 c0 -11 3 -14 6 -6 3 7 2 16 -1 19 -3 4 -6 -2 -5 -13z"/>
<path d="M625 1093 c-33 -8 -42 -23 -17 -29 24 -7 27 -25 13 -87 -13 -54 9
-59 51 -11 l33 38 5 -57 c7 -82 22 -75 25 11 3 83 -10 100 -49 63 -31 -29 -38
-27 -34 12 3 32 3 32 56 31 36 -1 52 2 52 11 0 20 -81 31 -135 18z"/>
<path d="M853 1093 c-31 -6 -29 -27 4 -51 27 -19 27 -21 10 -39 -25 -29 -21
-49 13 -63 17 -7 39 -24 50 -37 33 -43 43 -25 41 71 l-2 87 28 -3 28 -3 -1
-92 c0 -66 3 -93 11 -93 13 0 25 65 25 136 0 23 5 46 10 49 19 12 10 24 -17
24 -16 -1 -46 4 -68 10 -40 11 -90 12 -132 4z m96 -55 c0 -18 -3 -50 -7 -70
l-7 -37 -25 19 c-24 18 -24 19 -6 39 19 21 19 22 -2 44 -30 32 -28 37 13 37
33 0 35 -2 34 -32z"/>
<path d="M445 1063 c17 -11 19 -23 17 -68 -6 -95 18 -146 62 -129 25 9 19 34
-6 31 -22 -2 -23 2 -26 65 -2 57 0 70 18 88 11 11 20 22 20 24 0 2 -23 4 -52
4 -48 0 -50 -2 -33 -15z"/>
<path d="M875 900 c-7 -12 2 -30 16 -30 12 0 12 27 0 35 -5 3 -12 1 -16 -5z"/>
<path d="M1524 839 c-3 -6 -1 -16 5 -22 8 -8 11 -5 11 11 0 24 -5 28 -16 11z"/>
<path d="M1600 839 c0 -5 5 -7 10 -4 6 3 10 8 10 11 0 2 -4 4 -10 4 -5 0 -10
-5 -10 -11z"/>
<path d="M1460 830 c0 -5 7 -10 16 -10 8 0 12 5 9 10 -3 6 -10 10 -16 10 -5 0
-9 -4 -9 -10z"/>
<path d="M1666 831 c-4 -7 -5 -15 -2 -18 9 -9 19 4 14 18 -4 11 -6 11 -12 0z"/>
<path d="M1730 830 c0 -5 7 -10 15 -10 8 0 15 5 15 10 0 6 -7 10 -15 10 -8 0
-15 -4 -15 -10z"/>
<path d="M1790 831 c0 -5 7 -11 15 -15 9 -3 15 0 15 9 0 8 -7 15 -15 15 -8 0
-15 -4 -15 -9z"/>
<path d="M1355 820 c3 -5 8 -10 11 -10 2 0 4 5 4 10 0 6 -5 10 -11 10 -5 0 -7
-4 -4 -10z"/>
<path d="M1575 820 c3 -5 8 -10 11 -10 2 0 4 5 4 10 0 6 -5 10 -11 10 -5 0 -7
-4 -4 -10z"/>
</g>
</svg>
