<svg width="303" height="193" viewBox="0 0 303 193" fill="none" xmlns="http://www.w3.org/2000/svg">
<rect width="303" height="193" fill="#E5E5E5"/>
<g clip-path="url(#clip0)">
<path d="M242.681 144.507H13.1583V145.322H242.681V144.507Z" fill="#3F3D56"/>
<path d="M262.957 0H0V128.054H262.957V0Z" fill="#101D2C"/>
<path opacity="0.1" d="M262.957 9.85028V6.33232H254.872V0H251.356V6.33232H11.6011V0H8.08558V6.33232H0V9.85028H8.08558V118.203H0V121.721H8.08558V128.054H11.6011V121.721H251.356V128.054H254.872V121.721H262.957V118.203H254.872V9.85028H262.957ZM251.356 118.203H11.6011V9.85028H251.356L251.356 118.203Z" fill="black"/>
<path d="M136.957 21.0165C137.97 21.0165 138.792 20.1946 138.792 19.1808C138.792 18.167 137.97 17.3451 136.957 17.3451C135.944 17.3451 135.123 18.167 135.123 19.1808C135.123 20.1946 135.944 21.0165 136.957 21.0165Z" fill="#3F3D56"/>
<path d="M142.276 94.4622C144.302 94.4622 145.945 92.8185 145.945 90.7908C145.945 88.7631 144.302 87.1194 142.276 87.1194C140.25 87.1194 138.607 88.7631 138.607 90.7908C138.607 92.8185 140.25 94.4622 142.276 94.4622Z" fill="#3F3D56"/>
<path d="M152.595 77.9408C153.608 77.9408 154.429 77.119 154.429 76.1051C154.429 75.0913 153.608 74.2694 152.595 74.2694C151.581 74.2694 150.76 75.0913 150.76 76.1051C150.76 77.119 151.581 77.9408 152.595 77.9408Z" fill="#3F3D56"/>
<path d="M89.1396 65.6092C90.1527 65.6092 90.974 64.7873 90.974 63.7734C90.974 62.7596 90.1527 61.9377 89.1396 61.9377C88.1265 61.9377 87.3052 62.7596 87.3052 63.7734C87.3052 64.7873 88.1265 65.6092 89.1396 65.6092Z" fill="#3F3D56"/>
<path d="M47.0149 40.0911H40.1225V42.1351H47.0149V40.0911Z" fill="#3F3D56"/>
<path d="M55.3475 24.1775H31.7899V25.0535H55.3475V24.1775Z" fill="#3F3D56"/>
<path d="M55.3475 26.9514H31.7899V27.8274H55.3475V26.9514Z" fill="#3F3D56"/>
<path d="M55.3475 29.7253H31.7899V30.6013H55.3475V29.7253Z" fill="#3F3D56"/>
<path d="M55.3475 32.4993H31.7899V33.3752H55.3475V32.4993Z" fill="#3F3D56"/>
<path d="M43.5687 20.313C44.5818 20.313 45.4031 19.4911 45.4031 18.4772C45.4031 17.4634 44.5818 16.6415 43.5687 16.6415C42.5555 16.6415 41.7343 17.4634 41.7343 18.4772C41.7343 19.4911 42.5555 20.313 43.5687 20.313Z" fill="#3F3D56"/>
<path d="M21.4705 140.945H11.6272V150.796H21.4705V140.945Z" fill="#6C63FF"/>
<path d="M27.4468 145.167H15.4942V133.206H27.4468V145.167ZM16.0139 144.647H26.9272V133.726H16.0139V144.647Z" fill="#3F3D56"/>
<g clip-path="url(#clip1)">
<path d="M131.443 96C168.863 96 199.197 93.9929 199.197 91.517C199.197 89.0411 168.863 87.0339 131.443 87.0339C94.023 87.0339 63.6882 89.0411 63.6882 91.517C63.6882 93.9929 94.023 96 131.443 96Z" fill="#F2F2F2"/>
<path d="M128.846 42.4397C117.807 42.4397 109.881 49.5182 109.881 66.0345C109.881 84.7531 117.807 89.708 128.846 89.708C139.885 89.708 148.283 84.2812 148.283 66.0345C148.283 46.5295 139.885 42.4397 128.846 42.4397ZM128.918 83.4947C121.273 83.4947 117.278 79.0116 117.278 66.0466C117.278 54.607 121.436 48.5744 129.082 48.5744C136.728 48.5744 140.886 52.537 140.886 66.0466C140.886 78.6847 136.564 83.4947 128.918 83.4947Z" fill="#2F2E41"/>
<path d="M103.271 76.6523H98.7065V63.2193C98.7065 62.5058 98.423 61.8216 97.9182 61.3171C97.4134 60.8125 96.7288 60.5291 96.0149 60.5291H94.9454C94.5919 60.5291 94.2419 60.5987 93.9153 60.7339C93.5888 60.8691 93.292 61.0672 93.0421 61.3171C92.7922 61.5669 92.5939 61.8634 92.4586 62.1898C92.3234 62.5162 92.2537 62.866 92.2537 63.2193V76.6523H79.3797C79.1149 76.6523 78.8545 76.5839 78.6239 76.4537C78.3933 76.3235 78.2003 76.1359 78.0636 75.9092C77.9269 75.6825 77.8511 75.4243 77.8437 75.1597C77.8362 74.8951 77.8973 74.6331 78.0211 74.399L91.6468 48.6241C91.8167 48.3027 91.9196 47.9503 91.9495 47.5881C91.9793 47.2259 91.9354 46.8614 91.8204 46.5166C91.7054 46.1718 91.5217 45.8539 91.2803 45.582C91.039 45.3101 90.7451 45.09 90.4162 44.9348L89.6119 44.5551C88.9873 44.2604 88.2733 44.2168 87.6175 44.4336C86.9617 44.6503 86.4144 45.1107 86.0887 45.7195L69.4704 76.7902C69.1874 77.3193 69.0393 77.9099 69.0393 78.5099V78.5099C69.0393 78.9889 69.1337 79.4633 69.3172 79.9058C69.5006 80.3484 69.7694 80.7506 70.1083 81.0893C70.4473 81.428 70.8496 81.6967 71.2924 81.88C71.7353 82.0634 72.2099 82.1577 72.6892 82.1577H92.2537V90.6519C92.2537 91.0753 92.3372 91.4947 92.4993 91.8859C92.6615 92.2771 92.8991 92.6326 93.1987 92.932C93.4983 93.2315 93.854 93.469 94.2454 93.631C94.6369 93.7931 95.0564 93.8765 95.4801 93.8765H95.4801C95.9038 93.8765 96.3234 93.7931 96.7148 93.631C97.1063 93.469 97.462 93.2315 97.7615 92.932C98.0611 92.6326 98.2988 92.2771 98.4609 91.8859C98.6231 91.4947 98.7065 91.0753 98.7065 90.6519V82.1577H103.271C104.001 82.1577 104.702 81.8677 105.218 81.3515C105.735 80.8352 106.025 80.1351 106.025 79.405V79.405C106.025 78.6749 105.735 77.9748 105.218 77.4585C104.702 76.9423 104.001 76.6523 103.271 76.6523V76.6523Z" fill="#6C63FF"/>
<path d="M187.787 76.6523H183.223V63.2193C183.223 62.5058 182.939 61.8216 182.434 61.3171C181.93 60.8125 181.245 60.5291 180.531 60.5291H179.462C179.108 60.5291 178.758 60.5987 178.432 60.7339C178.105 60.8691 177.808 61.0672 177.558 61.3171C177.308 61.5669 177.11 61.8634 176.975 62.1898C176.84 62.5162 176.77 62.866 176.77 63.2193V76.6523H163.896C163.631 76.6523 163.371 76.5839 163.14 76.4537C162.91 76.3235 162.717 76.1359 162.58 75.9092C162.443 75.6825 162.367 75.4243 162.36 75.1597C162.352 74.8951 162.414 74.6331 162.537 74.399L176.163 48.6241C176.333 48.3027 176.436 47.9503 176.466 47.5881C176.496 47.2259 176.452 46.8614 176.337 46.5166C176.222 46.1718 176.038 45.8539 175.797 45.582C175.555 45.3101 175.261 45.09 174.932 44.9348L174.128 44.5551C173.504 44.2604 172.789 44.2168 172.134 44.4336C171.478 44.6503 170.931 45.1107 170.605 45.7195L153.987 76.7902C153.704 77.3193 153.556 77.9099 153.556 78.5099V78.5099C153.556 79.4773 153.94 80.4052 154.625 81.0893C155.309 81.7734 156.237 82.1577 157.205 82.1577H176.77V90.6519C176.77 91.5071 177.11 92.3273 177.715 92.932C178.32 93.5368 179.141 93.8765 179.996 93.8765V93.8765C180.852 93.8765 181.673 93.5368 182.278 92.932C182.883 92.3273 183.223 91.5071 183.223 90.6519V82.1577H187.787C188.517 82.1577 189.218 81.8677 189.734 81.3515C190.251 80.8352 190.541 80.1351 190.541 79.405V79.405C190.541 78.6749 190.251 77.9748 189.734 77.4585C189.218 76.9423 188.517 76.6523 187.787 76.6523Z" fill="#6C63FF"/>
<path d="M104.53 75.0792H99.9656V61.6462C99.9656 61.293 99.896 60.9431 99.7608 60.6167C99.6255 60.2904 99.4272 59.9938 99.1773 59.744C98.9273 59.4942 98.6306 59.296 98.304 59.1608C97.9775 59.0256 97.6275 58.956 97.274 58.956H96.2045C95.4906 58.956 94.806 59.2395 94.3012 59.744C93.7964 60.2485 93.5128 60.9328 93.5128 61.6462V75.0792H80.6388C80.374 75.0792 80.1136 75.0108 79.883 74.8806C79.6524 74.7504 79.4594 74.5628 79.3227 74.3361C79.186 74.1094 79.1102 73.8512 79.1028 73.5866C79.0953 73.322 79.1564 73.06 79.2802 72.826L92.9059 47.051C93.0758 46.7297 93.1787 46.3773 93.2086 46.015C93.2384 45.6528 93.1945 45.2883 93.0795 44.9435C92.9645 44.5987 92.7808 44.2808 92.5395 44.0089C92.2981 43.7371 92.0042 43.5169 91.6753 43.3617L90.871 42.9821C90.2464 42.6873 89.5324 42.6438 88.8766 42.8605C88.2208 43.0772 87.6735 43.5376 87.3478 44.1464L70.7295 75.2171C70.4465 75.7462 70.2984 76.3369 70.2984 76.9368V76.9368C70.2984 77.9043 70.683 78.8321 71.3674 79.5162C72.0519 80.2003 72.9803 80.5847 73.9483 80.5847H93.5128V89.0788C93.5128 89.5023 93.5963 89.9216 93.7584 90.3128C93.9206 90.704 94.1582 91.0595 94.4578 91.359C94.7574 91.6584 95.1131 91.8959 95.5045 92.058C95.896 92.22 96.3155 92.3034 96.7392 92.3034H96.7392C97.5949 92.3034 98.4156 91.9637 99.0207 91.359C99.6257 90.7542 99.9656 89.934 99.9656 89.0788V80.5847H104.53C104.892 80.5847 105.25 80.5135 105.584 80.3751C105.918 80.2368 106.222 80.034 106.477 79.7784C106.733 79.5228 106.936 79.2193 107.074 78.8854C107.213 78.5514 107.284 78.1934 107.284 77.8319V77.8319C107.284 77.4704 107.213 77.1125 107.074 76.7785C106.936 76.4445 106.733 76.1411 106.477 75.8855C106.222 75.6298 105.918 75.4271 105.584 75.2887C105.25 75.1504 104.892 75.0792 104.53 75.0792V75.0792Z" stroke="#3F3D56" stroke-miterlimit="10"/>
<path d="M190.148 75.0792H185.584V61.6462C185.584 60.9328 185.3 60.2485 184.795 59.744C184.29 59.2395 183.606 58.956 182.892 58.956H181.822C181.469 58.956 181.119 59.0256 180.792 59.1608C180.466 59.296 180.169 59.4942 179.919 59.744C179.669 59.9938 179.471 60.2904 179.336 60.6167C179.2 60.9431 179.131 61.293 179.131 61.6462V75.0792H166.257C165.992 75.0792 165.731 75.0108 165.501 74.8806C165.27 74.7504 165.077 74.5628 164.941 74.3361C164.804 74.1094 164.728 73.8512 164.721 73.5866C164.713 73.322 164.774 73.06 164.898 72.826L178.524 47.051C178.694 46.7297 178.797 46.3773 178.826 46.015C178.856 45.6528 178.812 45.2883 178.697 44.9435C178.582 44.5987 178.399 44.2808 178.157 44.0089C177.916 43.7371 177.622 43.5169 177.293 43.3617L176.489 42.9821C175.864 42.6873 175.15 42.6438 174.494 42.8605C173.839 43.0772 173.291 43.5376 172.966 44.1464L156.347 75.2171C156.064 75.7462 155.916 76.3369 155.916 76.9368C155.916 77.9043 156.301 78.8321 156.985 79.5162C157.67 80.2003 158.598 80.5847 159.566 80.5847H179.131V89.0788C179.131 89.934 179.471 90.7542 180.076 91.359C180.681 91.9637 181.501 92.3034 182.357 92.3034V92.3034C183.213 92.3034 184.033 91.9637 184.639 91.359C185.244 90.7542 185.584 89.934 185.584 89.0788V80.5847H190.148C190.509 80.5847 190.868 80.5135 191.202 80.3751C191.536 80.2368 191.839 80.034 192.095 79.7784C192.351 79.5228 192.554 79.2193 192.692 78.8854C192.831 78.5514 192.902 78.1934 192.902 77.8319V77.8319C192.902 77.1019 192.612 76.4017 192.095 75.8855C191.579 75.3692 190.878 75.0792 190.148 75.0792V75.0792Z" stroke="#3F3D56" stroke-miterlimit="10"/>
<path d="M131.364 41.024C120.325 41.024 112.399 48.1024 112.399 64.6188C112.399 83.3374 120.325 88.2923 131.364 88.2923C142.403 88.2923 150.801 82.8655 150.801 64.6188C150.801 45.1138 142.403 41.024 131.364 41.024ZM131.437 82.079C123.791 82.079 119.796 77.5958 119.796 64.6309C119.796 53.1913 123.954 47.1587 131.6 47.1587C139.246 47.1587 143.404 51.1213 143.404 64.6309C143.404 77.269 139.083 82.079 131.437 82.079V82.079Z" stroke="#E9E9E9" stroke-miterlimit="10"/>
<path d="M191.326 74.8592C191.715 75.0006 192.132 75.0497 192.543 75.0027C192.955 74.9557 193.35 74.8139 193.697 74.5883C194.044 74.3628 194.334 74.0598 194.544 73.7032C194.754 73.3466 194.878 72.9461 194.907 72.5333C194.935 72.1205 194.868 71.7067 194.709 71.3245C194.55 70.9423 194.305 70.6022 193.992 70.3309C193.68 70.0596 193.308 69.8645 192.908 69.7612C192.507 69.6578 192.087 69.6489 191.682 69.7352L191.749 71.1103L191.098 69.9318C190.459 70.2318 189.966 70.7731 189.726 71.4367C189.641 71.6691 189.589 71.9124 189.572 72.1594C189.531 72.7388 189.68 73.3159 189.997 73.8031C190.313 74.2902 190.78 74.661 191.326 74.8592V74.8592Z" fill="#57B894"/>
<path d="M194.547 90.8088C194.318 89.6393 195.313 88.6025 196.297 87.9286C197.281 87.2546 198.43 86.5925 198.765 85.4488C199.248 83.8051 197.811 82.2998 196.693 81.0017C195.863 80.0383 195.151 78.9801 194.57 77.8492C194.338 77.3957 194.124 76.9216 194.063 76.4157C193.975 75.6871 194.209 74.9621 194.445 74.2671C195.231 71.952 196.071 69.6562 196.966 67.3799" stroke="#3F3D56" stroke-miterlimit="10"/>
<path d="M191.436 74.5052C191.826 74.6465 192.242 74.6957 192.653 74.6487C193.065 74.6016 193.46 74.4598 193.807 74.2343C194.154 74.0088 194.444 73.7058 194.654 73.3491C194.864 72.9925 194.988 72.592 195.017 72.1792C195.045 71.7665 194.978 71.3527 194.819 70.9705C194.66 70.5882 194.415 70.2481 194.103 69.9768C193.79 69.7055 193.419 69.5105 193.018 69.4071C192.617 69.3037 192.197 69.2948 191.792 69.3811L191.859 70.7563L191.208 69.5777C190.569 69.8778 190.076 70.419 189.836 71.0826C189.751 71.3151 189.699 71.5584 189.682 71.8053C189.641 72.3848 189.79 72.9618 190.107 73.449C190.423 73.9362 190.89 74.307 191.436 74.5052V74.5052Z" stroke="#3F3D56" stroke-miterlimit="10"/>
<path d="M194.221 66.905C194.373 66.4839 194.63 66.108 194.966 65.8119C195.302 65.5158 195.708 65.3091 196.145 65.2107L196.365 66.5181L196.773 65.145C197.34 65.1534 197.889 65.3416 198.341 65.6823C198.794 66.023 199.127 66.4987 199.291 67.0406C199.456 67.5826 199.444 68.1627 199.257 68.6974C199.07 69.232 198.718 69.6935 198.251 70.0151C197.785 70.3367 197.228 70.5018 196.662 70.4867C196.095 70.4715 195.548 70.2769 195.1 69.9308C194.651 69.5847 194.324 69.1051 194.166 68.5612C194.008 68.0173 194.027 67.4373 194.221 66.905H194.221Z" fill="#57B894"/>
<path d="M194.367 66.4329C194.52 66.0118 194.776 65.6359 195.113 65.3398C195.449 65.0438 195.854 64.837 196.292 64.7387L196.512 66.046L196.92 64.673C197.486 64.6814 198.036 64.8695 198.488 65.2102C198.941 65.551 199.273 66.0266 199.438 66.5686C199.602 67.1105 199.59 67.6907 199.403 68.2253C199.217 68.76 198.864 69.2214 198.398 69.543C197.932 69.8646 197.375 70.0298 196.809 70.0146C196.242 69.9995 195.695 69.8048 195.247 69.4587C194.798 69.1126 194.471 68.633 194.313 68.0891C194.155 67.5453 194.174 66.9653 194.367 66.4329H194.367Z" stroke="#3F3D56" stroke-miterlimit="10"/>
<path d="M196.224 81.0282C196.841 81.2519 197.519 81.2409 198.128 80.9972C198.737 80.7535 199.236 80.2942 199.528 79.7068C199.821 79.1194 199.886 78.4451 199.713 77.8123C199.54 77.1794 199.14 76.6324 198.589 76.2755L198.276 77.3306L198.054 76.0079C198.051 76.0068 198.049 76.006 198.047 76.0053C197.717 75.8854 197.366 75.8317 197.015 75.8472C196.665 75.8627 196.32 75.9472 196.002 76.0958C195.684 76.2444 195.398 76.4541 195.161 76.7131C194.924 76.9721 194.741 77.2752 194.621 77.6052C194.501 77.9351 194.447 78.2854 194.463 78.636C194.479 78.9866 194.564 79.3307 194.713 79.6486C194.861 79.9665 195.071 80.2519 195.331 80.4887C195.59 80.7254 195.893 80.9087 196.224 81.0282H196.224Z" fill="#57B894"/>
<path d="M196.351 80.55C196.968 80.7737 197.646 80.7627 198.255 80.519C198.865 80.2753 199.363 79.816 199.655 79.2286C199.948 78.6412 200.014 77.9669 199.841 77.3341C199.667 76.7012 199.267 76.1542 198.717 75.7973L198.403 76.8524L198.181 75.5297C198.178 75.5286 198.176 75.5278 198.174 75.5271C197.844 75.4072 197.493 75.3535 197.143 75.369C196.792 75.3845 196.447 75.469 196.129 75.6176C195.811 75.7662 195.525 75.9759 195.288 76.2349C195.051 76.4939 194.868 76.797 194.748 77.1269C194.628 77.4569 194.575 77.8072 194.59 78.1578C194.606 78.5084 194.691 78.8525 194.84 79.1704C194.989 79.4883 195.199 79.7737 195.458 80.0105C195.717 80.2472 196.021 80.4305 196.351 80.55H196.351Z" stroke="#3F3D56" stroke-miterlimit="10"/>
<path d="M193.441 85.4651C193.547 86.0685 193.857 86.6171 194.32 87.0189C194.783 87.4206 195.37 87.6511 195.982 87.6718C196.595 87.6924 197.196 87.5018 197.685 87.1321C198.173 86.7624 198.52 86.2359 198.666 85.641C198.813 85.0462 198.75 84.419 198.489 83.8648C198.228 83.3106 197.784 82.8631 197.232 82.5972C196.679 82.3313 196.052 82.2633 195.456 82.4045C194.86 82.5458 194.33 82.8877 193.956 83.373L195.147 85.1646L193.519 84.2137C193.393 84.6185 193.366 85.0477 193.441 85.4651V85.4651Z" fill="#57B894"/>
<path d="M193.551 85.1111C193.657 85.7145 193.967 86.263 194.43 86.6648C194.893 87.0666 195.48 87.2971 196.092 87.3177C196.705 87.3383 197.306 87.1478 197.795 86.778C198.283 86.4083 198.63 85.8818 198.777 85.287C198.923 84.6921 198.86 84.065 198.599 83.5108C198.338 82.9566 197.894 82.509 197.342 82.2431C196.789 81.9772 196.163 81.9092 195.566 82.0505C194.97 82.1917 194.44 82.5336 194.066 83.0189L195.257 84.8106L193.629 83.8596C193.503 84.2644 193.476 84.6936 193.551 85.1111V85.1111Z" stroke="#3F3D56" stroke-miterlimit="10"/>
<path d="M63.157 81.3677C63.4126 81.4605 63.6864 81.4928 63.9566 81.4619C64.2269 81.431 64.4862 81.3378 64.7143 81.1897C64.9424 81.0415 65.1329 80.8424 65.2708 80.6081C65.4088 80.3738 65.4904 80.1107 65.5092 79.8395C65.5281 79.5683 65.4836 79.2964 65.3794 79.0453C65.2752 78.7942 65.114 78.5707 64.9086 78.3924C64.7033 78.2142 64.4593 78.086 64.1959 78.0181C63.9325 77.9502 63.6569 77.9444 63.3909 78.001L63.4348 78.9046L63.0071 78.1302C62.5874 78.3274 62.2631 78.683 62.1055 79.119C62.0496 79.2717 62.0156 79.4316 62.0045 79.5938C61.9775 79.9745 62.0754 80.3536 62.2834 80.6737C62.4913 80.9938 62.798 81.2374 63.157 81.3677V81.3677Z" fill="#57B894"/>
<path d="M65.2733 91.8469C65.1223 91.0785 65.7765 90.3973 66.4227 89.9545C67.069 89.5117 67.824 89.0766 68.0445 88.3252C68.3614 87.2453 67.4175 86.2563 66.6828 85.4034C66.1378 84.7704 65.6697 84.0752 65.2884 83.3321C65.1226 83.0402 65.0097 82.7214 64.9549 82.3903C64.8969 81.9116 65.0508 81.4353 65.2058 80.9787C65.7223 79.4576 66.2744 77.9492 66.8623 76.4536" stroke="#3F3D56" stroke-miterlimit="10"/>
<path d="M63.2293 81.135C63.4849 81.2279 63.7587 81.2602 64.0289 81.2293C64.2992 81.1984 64.5585 81.1052 64.7866 80.9571C65.0147 80.8089 65.2052 80.6098 65.3431 80.3755C65.4811 80.1412 65.5627 79.8781 65.5815 79.6069C65.6004 79.3357 65.5559 79.0638 65.4517 78.8127C65.3475 78.5616 65.1863 78.3381 64.981 78.1598C64.7756 77.9816 64.5316 77.8534 64.2682 77.7855C64.0048 77.7176 63.7292 77.7118 63.4632 77.7684L63.5071 78.6719L63.0794 77.8976C62.6597 78.0948 62.3354 78.4504 62.1778 78.8864C62.1219 79.0391 62.0879 79.1989 62.0768 79.3612C62.0498 79.7419 62.1477 80.121 62.3557 80.4411C62.5636 80.7612 62.8703 81.0048 63.2293 81.135V81.135Z" stroke="#3F3D56" stroke-miterlimit="10"/>
<path d="M65.0586 76.1416C65.1589 75.8649 65.3273 75.618 65.5482 75.4234C65.7691 75.2289 66.0355 75.0931 66.3227 75.0285L66.4674 75.8874L66.7355 74.9853C67.1077 74.9908 67.4686 75.1144 67.766 75.3383C68.0634 75.5621 68.2819 75.8747 68.39 76.2307C68.498 76.5868 68.4901 76.968 68.3673 77.3192C68.2445 77.6705 68.0132 77.9737 67.7067 78.185C67.4003 78.3963 67.0346 78.5048 66.6624 78.4949C66.2903 78.4849 65.9309 78.357 65.6362 78.1296C65.3415 77.9022 65.1268 77.5871 65.0229 77.2298C64.9191 76.8724 64.9316 76.4914 65.0586 76.1416V76.1416Z" fill="#57B894"/>
<path d="M65.155 75.8314C65.2554 75.5548 65.4237 75.3078 65.6447 75.1133C65.8656 74.9187 66.1319 74.7829 66.4192 74.7183L66.5638 75.5772L66.8319 74.6751C67.2042 74.6806 67.565 74.8042 67.8624 75.0281C68.1598 75.252 68.3783 75.5645 68.4864 75.9205C68.5945 76.2766 68.5866 76.6578 68.4638 77.0091C68.3409 77.3603 68.1096 77.6635 67.8032 77.8748C67.4967 78.0861 67.131 78.1946 66.7589 78.1847C66.3867 78.1747 66.0273 78.0468 65.7327 77.8194C65.438 77.592 65.2232 77.2769 65.1194 76.9196C65.0156 76.5623 65.028 76.1812 65.155 75.8314V75.8314Z" stroke="#3F3D56" stroke-miterlimit="10"/>
<path d="M66.3745 85.4208C66.7799 85.5678 67.2253 85.5605 67.6257 85.4004C68.0261 85.2403 68.3536 84.9385 68.5457 84.5526C68.7378 84.1667 68.7811 83.7236 68.6673 83.3079C68.5536 82.8921 68.2907 82.5327 67.9289 82.2981L67.7229 82.9914L67.5768 82.1223C67.5754 82.1216 67.5739 82.1211 67.5723 82.1206C67.3555 82.0418 67.1252 82.0065 66.8947 82.0167C66.6642 82.0268 66.4379 82.0823 66.2288 82.1799C66.0198 82.2775 65.832 82.4154 65.6763 82.5855C65.5205 82.7557 65.3998 82.9549 65.3212 83.1717C65.2425 83.3885 65.2073 83.6186 65.2177 83.849C65.228 84.0794 65.2837 84.3055 65.3815 84.5144C65.4793 84.7233 65.6174 84.9108 65.7878 85.0663C65.9582 85.2219 66.1575 85.3423 66.3745 85.4208V85.4208Z" fill="#57B894"/>
<path d="M66.4581 85.1066C66.8635 85.2536 67.3089 85.2463 67.7093 85.0862C68.1097 84.9261 68.4372 84.6243 68.6293 84.2384C68.8214 83.8525 68.8647 83.4094 68.7509 82.9937C68.6372 82.5779 68.3743 82.2185 68.0125 81.984L67.8065 82.6772L67.6604 81.8081C67.6589 81.8075 67.6574 81.8069 67.6559 81.8065C67.4391 81.7278 67.2089 81.6927 66.9785 81.703C66.7481 81.7133 66.522 81.7688 66.3131 81.8665C65.8911 82.0637 65.5649 82.4203 65.406 82.858C65.2472 83.2956 65.2688 83.7783 65.4661 84.2C65.6634 84.6218 66.0202 84.9479 66.4581 85.1066V85.1066Z" stroke="#3F3D56" stroke-miterlimit="10"/>
<path d="M64.546 88.3359C64.6157 88.7323 64.8197 89.0928 65.1238 89.3567C65.4278 89.6207 65.8134 89.7721 66.2159 89.7857C66.6184 89.7992 67.0133 89.6741 67.3344 89.4311C67.6555 89.1882 67.8833 88.8423 67.9796 88.4515C68.0758 88.0606 68.0346 87.6486 67.863 87.2845C67.6913 86.9204 67.3996 86.6263 67.0368 86.4516C66.674 86.2769 66.2621 86.2322 65.8702 86.325C65.4783 86.4178 65.1303 86.6425 64.8845 86.9613L65.667 88.1385L64.5978 87.5137C64.5149 87.7797 64.4971 88.0617 64.546 88.3359V88.3359Z" fill="#57B894"/>
<path d="M64.6184 88.1033C64.6881 88.4997 64.8921 88.8602 65.1961 89.1241C65.5001 89.3881 65.8857 89.5395 66.2882 89.5531C66.6907 89.5666 67.0856 89.4415 67.4068 89.1985C67.7279 88.9556 67.9556 88.6097 68.0519 88.2189C68.1481 87.828 68.107 87.416 67.9353 87.0519C67.7637 86.6878 67.472 86.3937 67.1091 86.219C66.7463 86.0443 66.3344 85.9996 65.9426 86.0924C65.5507 86.1852 65.2026 86.4099 64.9568 86.7287L65.7393 87.9059L64.6701 87.2811C64.5872 87.5471 64.5695 87.8291 64.6184 88.1033V88.1033Z" stroke="#3F3D56" stroke-miterlimit="10"/>
<path d="M123.775 64.7903C124.981 64.7903 125.959 63.5258 125.959 61.9661C125.959 60.4063 124.981 59.1418 123.775 59.1418C122.569 59.1418 121.591 60.4063 121.591 61.9661C121.591 63.5258 122.569 64.7903 123.775 64.7903Z" fill="#2F2E41"/>
<path d="M135.656 64.8545C136.862 64.8545 137.84 63.5901 137.84 62.0303C137.84 60.4705 136.862 59.2061 135.656 59.2061C134.45 59.2061 133.473 60.4705 133.473 62.0303C133.473 63.5901 134.45 64.8545 135.656 64.8545Z" fill="#2F2E41"/>
<path d="M133.986 70.3746C133.986 71.6506 132.204 72.6853 130.005 72.6853C127.806 72.6853 126.023 71.6506 126.023 70.3746C126.023 69.2693 127.36 68.345 129.147 68.1191C129.431 68.0816 129.718 68.0631 130.005 68.0639C130.485 68.0623 130.965 68.114 131.434 68.2179C132.927 68.5504 133.986 69.3913 133.986 70.3746Z" fill="#2F2E41"/>
<path d="M124.289 64.1484C125.495 64.1484 126.472 62.884 126.472 61.3242C126.472 59.7644 125.495 58.5 124.289 58.5C123.083 58.5 122.105 59.7644 122.105 61.3242C122.105 62.884 123.083 64.1484 124.289 64.1484Z" stroke="#3F3D56" stroke-miterlimit="10"/>
<path d="M136.17 64.2126C137.376 64.2126 138.353 62.9482 138.353 61.3884C138.353 59.8286 137.376 58.5641 136.17 58.5641C134.964 58.5641 133.986 59.8286 133.986 61.3884C133.986 62.9482 134.964 64.2126 136.17 64.2126Z" stroke="#3F3D56" stroke-miterlimit="10"/>
<path d="M130.518 72.0435C132.717 72.0435 134.5 71.0089 134.5 69.7327C134.5 68.4565 132.717 67.422 130.518 67.422C128.319 67.422 126.537 68.4565 126.537 69.7327C126.537 71.0089 128.319 72.0435 130.518 72.0435Z" stroke="#3F3D56" stroke-miterlimit="10"/>
<path d="M131.482 68.4105C131.483 68.5719 131.422 68.7276 131.312 68.8459C131.26 68.9026 131.197 68.9479 131.127 68.979C131.057 69.0101 130.981 69.0263 130.904 69.0266H129.619C129.461 69.0211 129.311 68.9532 129.203 68.8378C129.095 68.7223 129.037 68.5687 129.041 68.4105C129.041 68.2853 129.077 68.1628 129.147 68.0585C129.431 68.0186 129.718 67.9989 130.005 67.9997C130.486 67.9981 130.966 68.0532 131.434 68.164C131.466 68.2423 131.482 68.326 131.482 68.4105V68.4105Z" fill="white"/>
<path d="M124.289 61.1958C124.643 61.1958 124.931 60.9085 124.931 60.554C124.931 60.1995 124.643 59.9121 124.289 59.9121C123.934 59.9121 123.647 60.1995 123.647 60.554C123.647 60.9085 123.934 61.1958 124.289 61.1958Z" fill="white"/>
<path d="M136.234 61.1958C136.589 61.1958 136.876 60.9085 136.876 60.554C136.876 60.1995 136.589 59.9121 136.234 59.9121C135.879 59.9121 135.592 60.1995 135.592 60.554C135.592 60.9085 135.879 61.1958 136.234 61.1958Z" fill="white"/>
<path opacity="0.3" d="M136.876 67.2294C137.231 67.2294 137.519 66.942 137.519 66.5875C137.519 66.2331 137.231 65.9457 136.876 65.9457C136.522 65.9457 136.234 66.2331 136.234 66.5875C136.234 66.942 136.522 67.2294 136.876 67.2294Z" fill="#6C63FF"/>
<path opacity="0.3" d="M121.206 67.2294C121.561 67.2294 121.848 66.942 121.848 66.5875C121.848 66.2331 121.561 65.9457 121.206 65.9457C120.851 65.9457 120.564 66.2331 120.564 66.5875C120.564 66.942 120.851 67.2294 121.206 67.2294Z" fill="#6C63FF"/>
<path opacity="0.1" d="M160.5 9.1237L151.341 9L151 36.1362L160.16 36.2598L160.5 9.1237Z" fill="white"/>
<path opacity="0.1" d="M160.261 28.166L151.102 28.0424L151.078 29.9456L160.237 30.0692L160.261 28.166Z" fill="white"/>
<path opacity="0.1" d="M174.244 9.30919L165.084 9.18549L164.744 36.3217L173.903 36.4453L174.244 9.30919Z" fill="white"/>
<path opacity="0.1" d="M174.005 28.3515L164.846 28.2279L164.822 30.1311L173.981 30.2547L174.005 28.3515Z" fill="white"/>
<path opacity="0.1" d="M187.984 9.49457L178.825 9.37097L178.485 36.5072L187.644 36.6308L187.984 9.49457Z" fill="white"/>
<path opacity="0.1" d="M187.745 28.537L178.586 28.4134L178.562 30.3166L187.721 30.4402L187.745 28.537Z" fill="white"/>
<path opacity="0.1" d="M201.725 9.6801L192.565 9.5564L192.225 36.6926L201.384 36.8162L201.725 9.6801Z" fill="white"/>
<path opacity="0.1" d="M201.486 28.7224L192.327 28.5988L192.303 30.502L201.462 30.6256L201.486 28.7224Z" fill="white"/>
<line x1="115.5" y1="32" x2="115.5" y2="48" stroke="#E8E1E1"/>
</g>
<path d="M131.139 12.7003C120.015 14.4038 119.244 14.4719 117.186 14.0289L115 13.5521V22.887V32.2561L117.186 32.7331C119.307 33.21 120.015 33.142 129.596 31.7452C135.19 30.9615 140.718 30.1778 141.876 30.0417L143.934 29.8031V20.6385C143.934 15.5962 143.934 11.3716 143.998 11.2353C144.063 10.7584 142.841 10.8946 131.139 12.7003Z" fill="white"/>
<path d="M119.789 20.5234C119.711 20.8359 119.622 21.1354 119.523 21.4219C119.43 21.7031 119.331 21.9688 119.227 22.2188C119.128 22.4635 119.026 22.6875 118.922 22.8906C118.823 23.0938 118.734 23.2708 118.656 23.4219C118.604 23.7969 118.604 24.099 118.656 24.3281C118.708 24.5573 118.81 24.6719 118.961 24.6719C119.086 24.6719 119.208 24.6146 119.328 24.5C119.448 24.3854 119.555 24.2448 119.648 24.0781C119.742 23.9115 119.82 23.7344 119.883 23.5469C119.951 23.3542 119.992 23.1823 120.008 23.0312C119.909 23.0052 119.826 22.9609 119.758 22.8984C119.69 22.8307 119.656 22.7422 119.656 22.6328C119.656 22.5599 119.677 22.4922 119.719 22.4297C119.76 22.362 119.81 22.3047 119.867 22.2578C119.924 22.2109 119.987 22.1745 120.055 22.1484C120.122 22.1224 120.185 22.1094 120.242 22.1094C120.331 22.1094 120.406 22.1667 120.469 22.2812C120.531 22.3906 120.573 22.5312 120.594 22.7031C120.802 22.6979 121.021 22.6667 121.25 22.6094C121.479 22.5521 121.695 22.4792 121.898 22.3906C121.956 22.3646 122.003 22.3568 122.039 22.3672C122.076 22.3776 122.099 22.3984 122.109 22.4297C122.125 22.4609 122.125 22.4974 122.109 22.5391C122.094 22.5755 122.062 22.6042 122.016 22.625C121.896 22.6927 121.771 22.7552 121.641 22.8125C121.516 22.8646 121.391 22.9089 121.266 22.9453C121.141 22.9818 121.021 23.0104 120.906 23.0312C120.792 23.0521 120.688 23.0625 120.594 23.0625C120.573 23.2708 120.508 23.4974 120.398 23.7422C120.289 23.9818 120.156 24.2057 120 24.4141C119.844 24.6172 119.669 24.7865 119.477 24.9219C119.289 25.0573 119.104 25.125 118.922 25.125C118.865 25.125 118.789 25.1172 118.695 25.1016C118.602 25.0859 118.51 25.0312 118.422 24.9375C118.333 24.8438 118.258 24.6953 118.195 24.4922C118.133 24.2839 118.107 23.9896 118.117 23.6094C118.122 23.3542 118.151 23.0833 118.203 22.7969C118.255 22.5104 118.318 22.224 118.391 21.9375C118.464 21.651 118.544 21.375 118.633 21.1094C118.727 20.8385 118.815 20.5964 118.898 20.3828C118.982 20.1641 119.057 19.9818 119.125 19.8359C119.198 19.6901 119.253 19.5964 119.289 19.5547C119.336 19.4974 119.391 19.4557 119.453 19.4297C119.516 19.3984 119.576 19.3776 119.633 19.3672C119.695 19.3516 119.753 19.3464 119.805 19.3516C119.857 19.3568 119.893 19.3646 119.914 19.375C119.945 19.3958 119.953 19.5104 119.938 19.7188C119.927 19.9271 119.878 20.1953 119.789 20.5234ZM123.633 23.7578C123.581 23.9557 123.51 24.1406 123.422 24.3125C123.333 24.4844 123.227 24.6328 123.102 24.7578C122.982 24.8828 122.844 24.9792 122.688 25.0469C122.536 25.1198 122.37 25.1562 122.188 25.1562C121.974 25.1562 121.805 25.1094 121.68 25.0156C121.56 24.9271 121.469 24.8151 121.406 24.6797C121.349 24.5443 121.315 24.3958 121.305 24.2344C121.289 24.0729 121.281 23.9219 121.281 23.7812C121.281 23.6823 121.294 23.5729 121.32 23.4531C121.341 23.3333 121.372 23.2109 121.414 23.0859C121.456 22.9609 121.508 22.8359 121.57 22.7109C121.638 22.5859 121.716 22.4714 121.805 22.3672C121.836 22.2786 121.883 22.2005 121.945 22.1328C122.013 22.0651 122.089 22.0104 122.172 21.9688C122.26 21.9219 122.354 21.888 122.453 21.8672C122.552 21.8411 122.648 21.8281 122.742 21.8281C122.758 21.8281 122.771 21.8307 122.781 21.8359C122.797 21.8411 122.812 21.8464 122.828 21.8516C122.896 21.8568 122.979 21.8828 123.078 21.9297C123.182 21.9766 123.281 22.0469 123.375 22.1406C123.474 22.2344 123.557 22.3542 123.625 22.5C123.693 22.6406 123.727 22.8125 123.727 23.0156C123.727 23.0573 123.724 23.1094 123.719 23.1719C123.714 23.2292 123.708 23.2786 123.703 23.3203C123.823 23.2734 123.948 23.2161 124.078 23.1484C124.208 23.0807 124.333 23.0104 124.453 22.9375C124.578 22.8594 124.693 22.7812 124.797 22.7031C124.901 22.625 124.984 22.5547 125.047 22.4922C125.099 22.4453 125.143 22.4193 125.18 22.4141C125.216 22.4089 125.242 22.4193 125.258 22.4453C125.273 22.4714 125.276 22.5078 125.266 22.5547C125.255 22.6016 125.227 22.6536 125.18 22.7109C125.154 22.7422 125.086 22.8047 124.977 22.8984C124.872 22.9922 124.747 23.0938 124.602 23.2031C124.456 23.3125 124.297 23.4193 124.125 23.5234C123.953 23.6276 123.789 23.7057 123.633 23.7578ZM122.312 22.5703C122.297 22.6172 122.289 22.6667 122.289 22.7188C122.289 22.8021 122.294 22.8906 122.305 22.9844C122.315 23.0729 122.341 23.1536 122.383 23.2266C122.424 23.2995 122.49 23.362 122.578 23.4141C122.672 23.4609 122.799 23.4844 122.961 23.4844C122.987 23.4844 123.013 23.4844 123.039 23.4844C123.065 23.4792 123.091 23.474 123.117 23.4688C123.133 23.401 123.146 23.3411 123.156 23.2891C123.172 23.2318 123.18 23.1823 123.18 23.1406C123.19 23.0417 123.19 22.9401 123.18 22.8359C123.169 22.7318 123.148 22.638 123.117 22.5547C123.091 22.4661 123.055 22.3958 123.008 22.3438C122.966 22.2865 122.914 22.2578 122.852 22.2578C122.753 22.2578 122.656 22.2865 122.562 22.3438C122.474 22.3958 122.391 22.4714 122.312 22.5703ZM121.812 23.9453C121.812 24.0391 121.818 24.1328 121.828 24.2266C121.839 24.3151 121.859 24.3958 121.891 24.4688C121.922 24.5365 121.964 24.5938 122.016 24.6406C122.068 24.6823 122.135 24.7031 122.219 24.7031C122.312 24.7031 122.398 24.6823 122.477 24.6406C122.555 24.5938 122.625 24.5365 122.688 24.4688C122.75 24.3958 122.805 24.3151 122.852 24.2266C122.904 24.1328 122.948 24.0365 122.984 23.9375C122.948 23.9427 122.911 23.9479 122.875 23.9531C122.844 23.9531 122.807 23.9531 122.766 23.9531C122.568 23.9531 122.396 23.8958 122.25 23.7812C122.109 23.6615 122 23.5104 121.922 23.3281C121.891 23.4375 121.865 23.5443 121.844 23.6484C121.823 23.7526 121.812 23.8516 121.812 23.9453ZM126.781 23.7578C126.729 23.9557 126.659 24.1406 126.57 24.3125C126.482 24.4844 126.375 24.6328 126.25 24.7578C126.13 24.8828 125.992 24.9792 125.836 25.0469C125.685 25.1198 125.518 25.1562 125.336 25.1562C125.122 25.1562 124.953 25.1094 124.828 25.0156C124.708 24.9271 124.617 24.8151 124.555 24.6797C124.497 24.5443 124.464 24.3958 124.453 24.2344C124.438 24.0729 124.43 23.9219 124.43 23.7812C124.43 23.6823 124.443 23.5729 124.469 23.4531C124.49 23.3333 124.521 23.2109 124.562 23.0859C124.604 22.9609 124.656 22.8359 124.719 22.7109C124.786 22.5859 124.865 22.4714 124.953 22.3672C124.984 22.2786 125.031 22.2005 125.094 22.1328C125.161 22.0651 125.237 22.0104 125.32 21.9688C125.409 21.9219 125.503 21.888 125.602 21.8672C125.701 21.8411 125.797 21.8281 125.891 21.8281C125.906 21.8281 125.919 21.8307 125.93 21.8359C125.945 21.8411 125.961 21.8464 125.977 21.8516C126.044 21.8568 126.128 21.8828 126.227 21.9297C126.331 21.9766 126.43 22.0469 126.523 22.1406C126.622 22.2344 126.706 22.3542 126.773 22.5C126.841 22.6406 126.875 22.8125 126.875 23.0156C126.875 23.0573 126.872 23.1094 126.867 23.1719C126.862 23.2292 126.857 23.2786 126.852 23.3203C126.971 23.2734 127.096 23.2161 127.227 23.1484C127.357 23.0807 127.482 23.0104 127.602 22.9375C127.727 22.8594 127.841 22.7812 127.945 22.7031C128.049 22.625 128.133 22.5547 128.195 22.4922C128.247 22.4453 128.292 22.4193 128.328 22.4141C128.365 22.4089 128.391 22.4193 128.406 22.4453C128.422 22.4714 128.424 22.5078 128.414 22.5547C128.404 22.6016 128.375 22.6536 128.328 22.7109C128.302 22.7422 128.234 22.8047 128.125 22.8984C128.021 22.9922 127.896 23.0938 127.75 23.2031C127.604 23.3125 127.445 23.4193 127.273 23.5234C127.102 23.6276 126.938 23.7057 126.781 23.7578ZM125.461 22.5703C125.445 22.6172 125.438 22.6667 125.438 22.7188C125.438 22.8021 125.443 22.8906 125.453 22.9844C125.464 23.0729 125.49 23.1536 125.531 23.2266C125.573 23.2995 125.638 23.362 125.727 23.4141C125.82 23.4609 125.948 23.4844 126.109 23.4844C126.135 23.4844 126.161 23.4844 126.188 23.4844C126.214 23.4792 126.24 23.474 126.266 23.4688C126.281 23.401 126.294 23.3411 126.305 23.2891C126.32 23.2318 126.328 23.1823 126.328 23.1406C126.339 23.0417 126.339 22.9401 126.328 22.8359C126.318 22.7318 126.297 22.638 126.266 22.5547C126.24 22.4661 126.203 22.3958 126.156 22.3438C126.115 22.2865 126.062 22.2578 126 22.2578C125.901 22.2578 125.805 22.2865 125.711 22.3438C125.622 22.3958 125.539 22.4714 125.461 22.5703ZM124.961 23.9453C124.961 24.0391 124.966 24.1328 124.977 24.2266C124.987 24.3151 125.008 24.3958 125.039 24.4688C125.07 24.5365 125.112 24.5938 125.164 24.6406C125.216 24.6823 125.284 24.7031 125.367 24.7031C125.461 24.7031 125.547 24.6823 125.625 24.6406C125.703 24.5938 125.773 24.5365 125.836 24.4688C125.898 24.3958 125.953 24.3151 126 24.2266C126.052 24.1328 126.096 24.0365 126.133 23.9375C126.096 23.9427 126.06 23.9479 126.023 23.9531C125.992 23.9531 125.956 23.9531 125.914 23.9531C125.716 23.9531 125.544 23.8958 125.398 23.7812C125.258 23.6615 125.148 23.5104 125.07 23.3281C125.039 23.4375 125.013 23.5443 124.992 23.6484C124.971 23.7526 124.961 23.8516 124.961 23.9453ZM131.625 23.4453C131.505 23.6432 131.367 23.849 131.211 24.0625C131.06 24.2708 130.898 24.4635 130.727 24.6406C130.555 24.8125 130.378 24.9557 130.195 25.0703C130.013 25.1849 129.831 25.2422 129.648 25.2422C129.466 25.2422 129.333 25.1797 129.25 25.0547C129.172 24.9349 129.135 24.7995 129.141 24.6484C129.141 24.5807 129.146 24.5208 129.156 24.4688C129.172 24.4167 129.188 24.3698 129.203 24.3281C129.219 24.2865 129.234 24.2448 129.25 24.2031C129.271 24.1562 129.289 24.1042 129.305 24.0469C129.326 23.9792 129.326 23.9193 129.305 23.8672C129.289 23.8099 129.268 23.7604 129.242 23.7188C129.195 23.7708 129.141 23.8177 129.078 23.8594C129.021 23.8958 128.948 23.9141 128.859 23.9141C128.797 23.9141 128.74 23.8854 128.688 23.8281C128.635 23.7656 128.609 23.6901 128.609 23.6016C128.609 23.5286 128.625 23.4688 128.656 23.4219C128.693 23.375 128.732 23.3385 128.773 23.3125C128.82 23.2865 128.867 23.2682 128.914 23.2578C128.961 23.2474 129 23.2422 129.031 23.2422C129.047 23.2422 129.078 23.2448 129.125 23.25C129.177 23.2552 129.232 23.263 129.289 23.2734C129.477 23.1224 129.609 22.987 129.688 22.8672C129.771 22.7422 129.779 22.6302 129.711 22.5312C129.669 22.4635 129.617 22.4297 129.555 22.4297C129.492 22.4245 129.427 22.4401 129.359 22.4766C129.292 22.5078 129.224 22.5495 129.156 22.6016C129.094 22.6536 129.036 22.7031 128.984 22.75C128.88 22.8542 128.763 22.9792 128.633 23.125C128.508 23.2656 128.404 23.3828 128.32 23.4766C128.284 23.6328 128.247 23.7969 128.211 23.9688C128.18 24.1198 128.143 24.2917 128.102 24.4844C128.065 24.6719 128.026 24.8672 127.984 25.0703C127.953 25.0859 127.919 25.0964 127.883 25.1016C127.852 25.112 127.823 25.1198 127.797 25.125C127.766 25.1302 127.734 25.1328 127.703 25.1328C127.661 25.1328 127.622 25.1302 127.586 25.125C127.549 25.125 127.521 25.112 127.5 25.0859C127.474 25.0651 127.461 25.0286 127.461 24.9766C127.456 24.9245 127.469 24.8516 127.5 24.7578C127.542 24.6224 127.594 24.4427 127.656 24.2188C127.719 23.9896 127.784 23.7396 127.852 23.4688C127.919 23.1979 127.987 22.9167 128.055 22.625C128.128 22.3281 128.195 22.0469 128.258 21.7812C128.32 21.5104 128.372 21.2682 128.414 21.0547C128.461 20.8359 128.495 20.6641 128.516 20.5391C128.531 20.4036 128.547 20.2734 128.562 20.1484C128.573 20.0443 128.578 19.9427 128.578 19.8438C128.583 19.7396 128.578 19.6615 128.562 19.6094C128.589 19.5833 128.625 19.5599 128.672 19.5391C128.719 19.5182 128.771 19.5026 128.828 19.4922C128.885 19.4766 128.953 19.4635 129.031 19.4531C129.12 19.4427 129.193 19.4401 129.25 19.4453C129.312 19.4505 129.357 19.4766 129.383 19.5234C129.414 19.5755 129.419 19.6641 129.398 19.7891C129.383 19.9089 129.346 20.0781 129.289 20.2969C129.216 20.5781 129.141 20.8359 129.062 21.0703C128.99 21.2995 128.917 21.5156 128.844 21.7188C128.776 21.9219 128.708 22.1198 128.641 22.3125C128.578 22.5 128.521 22.6927 128.469 22.8906C128.573 22.7396 128.703 22.5807 128.859 22.4141C129.016 22.2422 129.193 22.1016 129.391 21.9922C129.599 21.8828 129.771 21.8281 129.906 21.8281C130.073 21.8281 130.193 21.8854 130.266 22C130.339 22.1094 130.372 22.2396 130.367 22.3906C130.362 22.5104 130.331 22.6224 130.273 22.7266C130.221 22.8255 130.156 22.9193 130.078 23.0078C130 23.0911 129.917 23.1641 129.828 23.2266C129.74 23.2891 129.664 23.3411 129.602 23.3828C129.674 23.4245 129.737 23.4818 129.789 23.5547C129.846 23.6224 129.872 23.7083 129.867 23.8125C129.862 23.9531 129.833 24.0781 129.781 24.1875C129.734 24.2917 129.711 24.388 129.711 24.4766C129.716 24.5443 129.729 24.5938 129.75 24.625C129.776 24.6562 129.828 24.6719 129.906 24.6719C130.047 24.6719 130.193 24.612 130.344 24.4922C130.5 24.3724 130.646 24.2344 130.781 24.0781C130.917 23.9219 131.042 23.7682 131.156 23.6172C131.271 23.4609 131.359 23.3464 131.422 23.2734C131.51 23.1797 131.583 23.1562 131.641 23.2031C131.703 23.2448 131.698 23.3255 131.625 23.4453ZM132.242 24.7344C132.273 24.7552 132.312 24.7656 132.359 24.7656C132.411 24.7656 132.461 24.7552 132.508 24.7344C132.56 24.7135 132.607 24.6849 132.648 24.6484C132.695 24.612 132.729 24.5651 132.75 24.5078C132.771 24.4505 132.771 24.3698 132.75 24.2656C132.729 24.1562 132.695 24.0417 132.648 23.9219C132.607 23.7969 132.56 23.6719 132.508 23.5469C132.456 23.4219 132.411 23.3073 132.375 23.2031C132.344 23.125 132.318 23.0521 132.297 22.9844C132.276 22.9271 132.255 22.8724 132.234 22.8203C132.219 22.763 132.206 22.724 132.195 22.7031C132.169 22.7448 132.122 22.8125 132.055 22.9062C131.992 23 131.922 23.099 131.844 23.2031C131.771 23.3021 131.701 23.3958 131.633 23.4844C131.565 23.5677 131.518 23.625 131.492 23.6562C131.451 23.7031 131.409 23.7318 131.367 23.7422C131.331 23.7474 131.299 23.7396 131.273 23.7188C131.247 23.6927 131.232 23.6589 131.227 23.6172C131.227 23.5703 131.247 23.5156 131.289 23.4531C131.32 23.4115 131.367 23.3464 131.43 23.2578C131.492 23.1641 131.555 23.0703 131.617 22.9766C131.68 22.8776 131.737 22.7917 131.789 22.7188C131.841 22.6406 131.87 22.5938 131.875 22.5781C131.885 22.5365 131.87 22.4818 131.828 22.4141C131.792 22.3464 131.786 22.2682 131.812 22.1797C131.833 22.1068 131.88 22.0234 131.953 21.9297C132.026 21.8307 132.112 21.7422 132.211 21.6641C132.31 21.5859 132.411 21.5286 132.516 21.4922C132.62 21.4505 132.714 21.4505 132.797 21.4922C132.865 21.5339 132.919 21.5807 132.961 21.6328C133.003 21.6797 133.018 21.7292 133.008 21.7812C132.997 21.8073 132.982 21.8411 132.961 21.8828C132.94 21.9245 132.909 21.9766 132.867 22.0391C132.826 22.0964 132.766 22.1719 132.688 22.2656C132.703 22.3854 132.724 22.4948 132.75 22.5938C132.781 22.6927 132.81 22.7786 132.836 22.8516C132.867 22.9401 132.901 23.0208 132.938 23.0938C132.984 23.1875 133.034 23.2839 133.086 23.3828C133.138 23.4818 133.185 23.5807 133.227 23.6797C133.268 23.7734 133.302 23.862 133.328 23.9453C133.354 24.0286 133.362 24.099 133.352 24.1562C133.336 24.2448 133.289 24.3516 133.211 24.4766C133.138 24.6016 133.044 24.724 132.93 24.8438C132.82 24.9583 132.693 25.0573 132.547 25.1406C132.406 25.224 132.258 25.2656 132.102 25.2656C131.992 25.2656 131.885 25.2318 131.781 25.1641C131.682 25.0964 131.596 25.0182 131.523 24.9297C131.456 24.8359 131.404 24.7448 131.367 24.6562C131.336 24.5677 131.333 24.5 131.359 24.4531C131.391 24.3906 131.419 24.3411 131.445 24.3047C131.471 24.2682 131.51 24.2266 131.562 24.1797C131.583 24.1641 131.609 24.1458 131.641 24.125C131.667 24.1094 131.703 24.0938 131.75 24.0781C131.797 24.0625 131.852 24.0443 131.914 24.0234C131.966 24.1849 132.013 24.3125 132.055 24.4062C132.096 24.4948 132.13 24.5651 132.156 24.6172C132.188 24.6745 132.216 24.7135 132.242 24.7344ZM135.742 20.5234C135.664 20.8359 135.576 21.1354 135.477 21.4219C135.383 21.7031 135.284 21.9688 135.18 22.2188C135.081 22.4635 134.979 22.6875 134.875 22.8906C134.776 23.0938 134.688 23.2708 134.609 23.4219C134.557 23.7969 134.557 24.099 134.609 24.3281C134.661 24.5573 134.763 24.6719 134.914 24.6719C135.039 24.6719 135.161 24.6146 135.281 24.5C135.401 24.3854 135.508 24.2448 135.602 24.0781C135.695 23.9115 135.773 23.7344 135.836 23.5469C135.904 23.3542 135.945 23.1823 135.961 23.0312C135.862 23.0052 135.779 22.9609 135.711 22.8984C135.643 22.8307 135.609 22.7422 135.609 22.6328C135.609 22.5599 135.63 22.4922 135.672 22.4297C135.714 22.362 135.763 22.3047 135.82 22.2578C135.878 22.2109 135.94 22.1745 136.008 22.1484C136.076 22.1224 136.138 22.1094 136.195 22.1094C136.284 22.1094 136.359 22.1667 136.422 22.2812C136.484 22.3906 136.526 22.5312 136.547 22.7031C136.755 22.6979 136.974 22.6667 137.203 22.6094C137.432 22.5521 137.648 22.4792 137.852 22.3906C137.909 22.3646 137.956 22.3568 137.992 22.3672C138.029 22.3776 138.052 22.3984 138.062 22.4297C138.078 22.4609 138.078 22.4974 138.062 22.5391C138.047 22.5755 138.016 22.6042 137.969 22.625C137.849 22.6927 137.724 22.7552 137.594 22.8125C137.469 22.8646 137.344 22.9089 137.219 22.9453C137.094 22.9818 136.974 23.0104 136.859 23.0312C136.745 23.0521 136.641 23.0625 136.547 23.0625C136.526 23.2708 136.461 23.4974 136.352 23.7422C136.242 23.9818 136.109 24.2057 135.953 24.4141C135.797 24.6172 135.622 24.7865 135.43 24.9219C135.242 25.0573 135.057 25.125 134.875 25.125C134.818 25.125 134.742 25.1172 134.648 25.1016C134.555 25.0859 134.464 25.0312 134.375 24.9375C134.286 24.8438 134.211 24.6953 134.148 24.4922C134.086 24.2839 134.06 23.9896 134.07 23.6094C134.076 23.3542 134.104 23.0833 134.156 22.7969C134.208 22.5104 134.271 22.224 134.344 21.9375C134.417 21.651 134.497 21.375 134.586 21.1094C134.68 20.8385 134.768 20.5964 134.852 20.3828C134.935 20.1641 135.01 19.9818 135.078 19.8359C135.151 19.6901 135.206 19.5964 135.242 19.5547C135.289 19.4974 135.344 19.4557 135.406 19.4297C135.469 19.3984 135.529 19.3776 135.586 19.3672C135.648 19.3516 135.706 19.3464 135.758 19.3516C135.81 19.3568 135.846 19.3646 135.867 19.375C135.898 19.3958 135.906 19.5104 135.891 19.7188C135.88 19.9271 135.831 20.1953 135.742 20.5234ZM138.992 20.3984C138.977 20.4557 138.945 20.513 138.898 20.5703C138.857 20.6224 138.807 20.6667 138.75 20.7031C138.698 20.7344 138.643 20.7552 138.586 20.7656C138.529 20.776 138.482 20.7656 138.445 20.7344C138.336 20.651 138.279 20.5625 138.273 20.4688C138.268 20.3698 138.292 20.2786 138.344 20.1953C138.396 20.1068 138.461 20.0339 138.539 19.9766C138.617 19.9141 138.685 19.8776 138.742 19.8672C138.799 19.8568 138.846 19.8698 138.883 19.9062C138.924 19.9375 138.956 19.9818 138.977 20.0391C138.997 20.0911 139.008 20.151 139.008 20.2188C139.013 20.2865 139.008 20.3464 138.992 20.3984ZM137.914 22.0625C137.94 22.0312 137.99 22.0052 138.062 21.9844C138.135 21.9635 138.211 21.9479 138.289 21.9375C138.367 21.9219 138.438 21.9141 138.5 21.9141C138.568 21.9089 138.607 21.9089 138.617 21.9141C138.622 21.9193 138.609 21.974 138.578 22.0781C138.547 22.1823 138.508 22.3047 138.461 22.4453C138.414 22.5859 138.365 22.7318 138.312 22.8828C138.26 23.0286 138.221 23.1484 138.195 23.2422C138.169 23.3359 138.138 23.4427 138.102 23.5625C138.065 23.6771 138.031 23.7917 138 23.9062C137.974 24.0156 137.956 24.1198 137.945 24.2188C137.935 24.3177 137.943 24.3932 137.969 24.4453C137.995 24.5078 138.023 24.5521 138.055 24.5781C138.086 24.599 138.12 24.6094 138.156 24.6094C138.26 24.6094 138.391 24.5521 138.547 24.4375C138.708 24.3229 138.87 24.1875 139.031 24.0312C139.198 23.8698 139.352 23.7083 139.492 23.5469C139.633 23.3802 139.737 23.2474 139.805 23.1484C139.846 23.0964 139.888 23.0625 139.93 23.0469C139.977 23.0312 140.013 23.0339 140.039 23.0547C140.07 23.0755 140.086 23.1094 140.086 23.1562C140.091 23.2031 140.076 23.2578 140.039 23.3203C139.956 23.4661 139.833 23.6406 139.672 23.8438C139.51 24.0417 139.339 24.2344 139.156 24.4219C138.974 24.6042 138.794 24.7604 138.617 24.8906C138.445 25.0208 138.305 25.0885 138.195 25.0938C138.107 25.099 138.018 25.0833 137.93 25.0469C137.846 25.0156 137.768 24.9714 137.695 24.9141C137.628 24.8516 137.57 24.7812 137.523 24.7031C137.477 24.6198 137.451 24.5339 137.445 24.4453C137.43 24.3151 137.43 24.138 137.445 23.9141C137.461 23.6849 137.49 23.4531 137.531 23.2188C137.573 22.9792 137.625 22.7526 137.688 22.5391C137.755 22.3255 137.831 22.1667 137.914 22.0625ZM143.477 23.4453C143.404 23.5495 143.31 23.6797 143.195 23.8359C143.081 23.987 142.961 24.1406 142.836 24.2969C142.716 24.4479 142.596 24.5885 142.477 24.7188C142.362 24.8438 142.266 24.9323 142.188 24.9844C142.135 25.0156 142.076 25.0417 142.008 25.0625C141.94 25.0833 141.87 25.0964 141.797 25.1016C141.729 25.1068 141.664 25.1016 141.602 25.0859C141.539 25.0755 141.484 25.0547 141.438 25.0234C141.391 24.987 141.352 24.9349 141.32 24.8672C141.294 24.8099 141.268 24.7344 141.242 24.6406C141.221 24.5469 141.214 24.4297 141.219 24.2891C141.094 24.4974 140.956 24.6589 140.805 24.7734C140.654 24.8828 140.51 24.9635 140.375 25.0156C140.219 25.0729 140.062 25.1068 139.906 25.1172C139.833 25.1172 139.755 25.0911 139.672 25.0391C139.589 24.9922 139.518 24.9167 139.461 24.8125C139.404 24.7031 139.367 24.5651 139.352 24.3984C139.336 24.2266 139.357 24.0234 139.414 23.7891C139.487 23.4714 139.602 23.1823 139.758 22.9219C139.919 22.6615 140.094 22.4401 140.281 22.2578C140.469 22.0703 140.654 21.9297 140.836 21.8359C141.018 21.7422 141.169 21.7005 141.289 21.7109C141.43 21.737 141.544 21.7786 141.633 21.8359C141.706 21.888 141.753 21.9661 141.773 22.0703C141.799 22.1693 141.758 22.3021 141.648 22.4688C141.721 22.4531 141.781 22.4427 141.828 22.4375C141.88 22.4323 141.919 22.4297 141.945 22.4297C141.977 22.4297 141.997 22.4323 142.008 22.4375C142.013 22.4479 142.016 22.4714 142.016 22.5078C142.016 22.5391 142.008 22.599 141.992 22.6875C141.977 22.776 141.953 22.8958 141.922 23.0469C141.891 23.1979 141.849 23.3932 141.797 23.6328C141.786 23.6797 141.776 23.724 141.766 23.7656C141.76 23.8021 141.753 23.8411 141.742 23.8828C141.737 23.9193 141.729 23.9635 141.719 24.0156C141.708 24.0677 141.695 24.1328 141.68 24.2109C141.674 24.2578 141.672 24.3099 141.672 24.3672C141.677 24.4193 141.688 24.4688 141.703 24.5156C141.719 24.5625 141.742 24.6016 141.773 24.6328C141.81 24.6589 141.859 24.6719 141.922 24.6719C141.974 24.6719 142.042 24.6406 142.125 24.5781C142.208 24.5104 142.297 24.4271 142.391 24.3281C142.484 24.224 142.581 24.112 142.68 23.9922C142.784 23.8672 142.88 23.7474 142.969 23.6328C143.057 23.5182 143.135 23.4167 143.203 23.3281C143.276 23.2396 143.328 23.1745 143.359 23.1328C143.401 23.0859 143.443 23.0599 143.484 23.0547C143.526 23.0443 143.557 23.0547 143.578 23.0859C143.599 23.1172 143.602 23.1641 143.586 23.2266C143.576 23.2891 143.539 23.362 143.477 23.4453ZM141.188 23.7891C141.214 23.6849 141.245 23.5625 141.281 23.4219C141.318 23.2812 141.349 23.1458 141.375 23.0156C141.401 22.8854 141.419 22.7786 141.43 22.6953C141.445 22.6068 141.443 22.5651 141.422 22.5703C141.396 22.5755 141.367 22.5833 141.336 22.5938C141.31 22.6042 141.276 22.612 141.234 22.6172C141.193 22.6224 141.151 22.6302 141.109 22.6406C141.151 22.5573 141.174 22.4896 141.18 22.4375C141.19 22.3802 141.193 22.3359 141.188 22.3047C141.182 22.2682 141.172 22.2396 141.156 22.2188C141.099 22.1719 140.997 22.2109 140.852 22.3359C140.711 22.4557 140.547 22.6797 140.359 23.0078C140.281 23.1432 140.219 23.2891 140.172 23.4453C140.125 23.5964 140.091 23.7396 140.07 23.875C140.055 24.0104 140.052 24.1302 140.062 24.2344C140.073 24.3333 140.094 24.3984 140.125 24.4297C140.182 24.487 140.247 24.5156 140.32 24.5156C140.393 24.5104 140.466 24.4896 140.539 24.4531C140.617 24.4115 140.693 24.3594 140.766 24.2969C140.844 24.2344 140.911 24.1693 140.969 24.1016C141.031 24.0339 141.081 23.9714 141.117 23.9141C141.159 23.8568 141.182 23.8151 141.188 23.7891Z" fill="black"/>
<path d="M219.413 103.441C227.067 103.441 233.272 97.2401 233.272 89.5907C233.272 81.9414 227.067 75.7404 219.413 75.7404C211.758 75.7404 205.553 81.9414 205.553 89.5907C205.553 97.2401 211.758 103.441 219.413 103.441Z" fill="white"/>
<path d="M229.875 128.68C229.787 128.543 229.714 128.397 229.657 128.244L227.868 123.456C227.66 122.897 227.682 122.278 227.93 121.735C228.178 121.192 228.631 120.77 229.19 120.56L269.12 105.66C269.679 105.452 270.299 105.474 270.842 105.722C271.385 105.969 271.808 106.422 272.017 106.981L273.806 111.769C273.91 112.046 273.958 112.34 273.947 112.636C273.937 112.931 273.868 113.222 273.745 113.491C273.623 113.759 273.448 114.001 273.232 114.203C273.015 114.404 272.761 114.561 272.484 114.665L232.555 129.565C232.074 129.744 231.546 129.754 231.059 129.593C230.572 129.432 230.154 129.11 229.875 128.68V128.68Z" fill="#6C63FF"/>
<path d="M268.993 104.423L252.755 110.894C252.243 111.047 251.811 111.392 251.547 111.856C251.283 112.321 251.208 112.868 251.337 113.387L253.221 120.926C253.296 121.224 253.435 121.502 253.63 121.739C253.825 121.977 254.07 122.168 254.347 122.3C254.625 122.432 254.928 122.5 255.235 122.501C255.542 122.501 255.846 122.433 256.124 122.303L272.406 114.644C272.922 114.45 273.34 114.061 273.569 113.56C273.798 113.059 273.819 112.488 273.627 111.972L271.67 105.644C271.476 105.127 271.086 104.709 270.584 104.48C270.082 104.251 269.51 104.231 268.993 104.423V104.423Z" fill="#2F2E41"/>
<path d="M298.708 151.397C298.198 151.456 297.684 151.339 297.249 151.065C296.815 150.792 296.487 150.379 296.32 149.894L282.421 109.628C282.324 109.349 282.284 109.053 282.302 108.758C282.32 108.463 282.396 108.174 282.525 107.909C282.655 107.643 282.835 107.405 283.057 107.209C283.278 107.013 283.536 106.863 283.815 106.766L288.65 105.1C289.215 104.906 289.833 104.943 290.37 105.205C290.907 105.466 291.318 105.93 291.513 106.494L305.412 146.76C305.606 147.324 305.569 147.943 305.307 148.479C305.046 149.015 304.582 149.426 304.018 149.622L299.183 151.288C299.029 151.341 298.87 151.378 298.708 151.397V151.397Z" fill="#6C63FF"/>
<path d="M292.549 105.804L297.884 122.441C298.09 122.933 298.1 123.486 297.909 123.985C297.719 124.484 297.344 124.89 296.861 125.12L289.841 128.464C289.564 128.596 289.261 128.665 288.954 128.666C288.647 128.667 288.343 128.6 288.065 128.47C287.787 128.339 287.541 128.149 287.345 127.913C287.149 127.676 287.008 127.399 286.932 127.102L282.487 109.675C282.308 109.154 282.343 108.584 282.584 108.089C282.825 107.594 283.253 107.214 283.773 107.034L289.904 104.517C290.425 104.338 290.997 104.372 291.493 104.614C291.989 104.855 292.369 105.283 292.549 105.804V105.804Z" fill="#2F2E41"/>
<path d="M276.398 194.563H271.284C270.687 194.563 270.114 194.325 269.692 193.903C269.27 193.481 269.032 192.909 269.032 192.313V149.718C269.032 149.121 269.27 148.549 269.692 148.127C270.114 147.705 270.687 147.468 271.284 147.467H276.398C276.995 147.468 277.567 147.705 277.99 148.127C278.412 148.549 278.649 149.121 278.65 149.718V192.313C278.649 192.909 278.412 193.481 277.99 193.903C277.567 194.325 276.995 194.563 276.398 194.563Z" fill="#2F2E41"/>
<path d="M286.513 194.563H281.398C280.801 194.563 280.229 194.325 279.807 193.903C279.384 193.481 279.147 192.909 279.146 192.313V149.718C279.147 149.121 279.384 148.549 279.807 148.127C280.229 147.705 280.801 147.468 281.398 147.467H286.513C287.11 147.468 287.682 147.705 288.104 148.127C288.526 148.549 288.764 149.121 288.765 149.718V192.313C288.764 192.909 288.526 193.481 288.104 193.903C287.682 194.325 287.11 194.563 286.513 194.563Z" fill="#2F2E41"/>
<path d="M290.727 154.725H267.491C266.848 154.724 266.231 154.469 265.777 154.015C265.322 153.56 265.066 152.944 265.065 152.301V114.578C265.065 110.856 266.545 107.287 269.179 104.655C271.812 102.023 275.384 100.544 279.109 100.544C282.834 100.544 286.406 102.023 289.039 104.655C291.673 107.287 293.152 110.856 293.152 114.578V152.301C293.152 152.944 292.896 153.56 292.441 154.015C291.987 154.469 291.37 154.724 290.727 154.725Z" fill="#E9E9E9"/>
<path d="M294.225 163.953H282.444V97.4174L282.663 97.4771C285.981 98.3873 288.908 100.36 290.997 103.092C293.085 105.825 294.219 109.166 294.225 112.604V163.953Z" fill="#2F2E41"/>
<path d="M274.816 163.953H263.036V112.604C263.042 109.166 264.175 105.825 266.264 103.092C268.352 100.36 271.28 98.3873 274.597 97.4771L274.816 97.4174V163.953Z" fill="#2F2E41"/>
<path d="M278.933 92.741C289.174 92.741 297.477 84.4442 297.477 74.2095C297.477 63.9748 289.174 55.678 278.933 55.678C268.692 55.678 260.39 63.9748 260.39 74.2095C260.39 84.4442 268.692 92.741 278.933 92.741Z" fill="#E9E9E9"/>
<path d="M299.898 69.943C299.898 69.943 300.938 41.2035 287.425 50.5525C287.425 50.5525 279.629 24.41 260.572 63.5372L255.028 69.0774C255.028 69.0774 279.975 65.6148 303.19 76.3488L299.898 69.943Z" fill="#2F2E41"/>
<path d="M279.216 83.387C278.071 83.3553 276.645 83.3155 275.547 82.5138C275.22 82.2653 274.951 81.9483 274.759 81.585C274.568 81.2218 274.458 80.8211 274.438 80.411C274.418 80.1196 274.466 79.8275 274.578 79.5576C274.69 79.2877 274.862 79.0473 275.082 78.8552C275.656 78.3708 276.494 78.2572 277.396 78.5223L276.461 71.6921L277.148 71.5981L278.247 79.6279L277.674 79.365C277.009 79.0603 276.097 78.9053 275.53 79.3841C275.391 79.5093 275.282 79.6648 275.213 79.8387C275.144 80.0126 275.115 80.2001 275.13 80.3867C275.147 80.6919 275.23 80.9899 275.372 81.2604C275.514 81.531 275.713 81.7677 275.955 81.9545C276.81 82.5784 277.946 82.6588 279.235 82.6949L279.216 83.387Z" fill="#2F2E41"/>
<path d="M273.066 72.2812H269.334V72.9737H273.066V72.2812Z" fill="#2F2E41"/>
<path d="M284.846 72.2812H281.114V72.9737H284.846V72.2812Z" fill="#2F2E41"/>
<path d="M237.588 130.446C237.088 130.678 236.516 130.702 235.999 130.513C235.481 130.323 235.06 129.936 234.828 129.436L222.87 103.68C222.638 103.18 222.614 102.609 222.804 102.091C222.994 101.574 223.381 101.153 223.881 100.921C224.381 100.689 224.953 100.665 225.471 100.855C225.988 101.044 226.41 101.431 226.642 101.931L238.599 127.687C238.831 128.187 238.855 128.759 238.666 129.276C238.476 129.793 238.089 130.214 237.588 130.446Z" fill="#3F3D56"/>
<path d="M225.631 104.69C222.647 106.074 219.32 106.542 216.07 106.035C212.819 105.529 209.793 104.071 207.372 101.845C204.951 99.62 203.245 96.7271 202.469 93.5326C201.693 90.3381 201.883 86.9854 203.014 83.8986C204.145 80.8118 206.167 78.1295 208.823 76.1909C211.479 74.2522 214.651 73.1444 217.938 73.0073C221.224 72.8703 224.478 73.7102 227.287 75.421C230.095 77.1317 232.334 79.6364 233.718 82.6183C235.569 86.6177 235.757 91.1875 234.241 95.3253C232.725 99.4632 229.629 102.831 225.631 104.69V104.69ZM213.382 78.3057C211.144 79.3433 209.264 81.0208 207.98 83.1261C206.696 85.2313 206.066 87.6697 206.169 90.133C206.272 92.5963 207.103 94.9737 208.558 96.9648C210.013 98.9558 212.026 100.471 214.342 101.319C216.659 102.166 219.175 102.309 221.573 101.727C223.97 101.146 226.141 99.867 227.811 98.0525C229.482 96.2381 230.576 93.9694 230.956 91.5334C231.336 89.0974 230.985 86.6035 229.946 84.3671C228.551 81.3707 226.024 79.0498 222.918 77.9135C219.813 76.7771 216.383 76.9182 213.382 78.3057V78.3057Z" fill="#3F3D56"/>
<path opacity="0.1" d="M49.5 118.124L40.341 118L40 145.136L49.16 145.26L49.5 118.124Z" fill="#111010"/>
<path opacity="0.1" d="M49.446 122.408L40.287 122.284L40.263 124.187L49.422 124.311L49.446 122.408Z" fill="#111010"/>
<path opacity="0.1" d="M49.261 137.166L40.102 137.042L40.078 138.946L49.237 139.069L49.261 137.166Z" fill="#111010"/>
<path opacity="0.1" d="M63.244 118.309L54.084 118.185L53.744 145.322L62.903 145.445L63.244 118.309Z" fill="#111010"/>
<path opacity="0.1" d="M63.19 122.593L54.031 122.469L54.007 124.373L63.166 124.496L63.19 122.593Z" fill="#111010"/>
<path opacity="0.1" d="M63.005 137.352L53.846 137.228L53.822 139.131L62.981 139.255L63.005 137.352Z" fill="#111010"/>
<path opacity="0.1" d="M76.984 118.495L67.825 118.371L67.485 145.507L76.644 145.631L76.984 118.495Z" fill="#111010"/>
<path opacity="0.1" d="M76.93 122.779L67.771 122.655L67.747 124.558L76.907 124.682L76.93 122.779Z" fill="#111010"/>
<path opacity="0.1" d="M76.745 137.537L67.586 137.413L67.562 139.317L76.721 139.44L76.745 137.537Z" fill="#111010"/>
<path opacity="0.1" d="M90.725 118.68L81.565 118.556L81.225 145.693L90.384 145.816L90.725 118.68Z" fill="#111010"/>
<path opacity="0.1" d="M90.671 122.964L81.512 122.84L81.488 124.744L90.647 124.867L90.671 122.964Z" fill="#111010"/>
<path opacity="0.1" d="M90.486 137.722L81.327 137.599L81.303 139.502L90.462 139.626L90.486 137.722Z" fill="#111010"/>
<path opacity="0.1" d="M111.5 116.124L102.341 116L102 143.136L111.16 143.26L111.5 116.124Z" fill="#111010"/>
<path opacity="0.1" d="M111.446 120.408L102.287 120.284L102.263 122.187L111.422 122.311L111.446 120.408Z" fill="#111010"/>
<path opacity="0.1" d="M111.261 135.166L102.102 135.042L102.078 136.946L111.237 137.069L111.261 135.166Z" fill="#111010"/>
<path opacity="0.1" d="M125.244 116.309L116.084 116.185L115.744 143.322L124.903 143.445L125.244 116.309Z" fill="#111010"/>
<path opacity="0.1" d="M125.19 120.593L116.031 120.469L116.007 122.373L125.166 122.496L125.19 120.593Z" fill="#111010"/>
<path opacity="0.1" d="M125.005 135.352L115.846 135.228L115.822 137.131L124.981 137.255L125.005 135.352Z" fill="#111010"/>
<path opacity="0.1" d="M138.984 116.495L129.825 116.371L129.485 143.507L138.644 143.631L138.984 116.495Z" fill="#111010"/>
<path opacity="0.1" d="M138.93 120.779L129.771 120.655L129.747 122.558L138.907 122.682L138.93 120.779Z" fill="#111010"/>
<path opacity="0.1" d="M138.745 135.537L129.586 135.413L129.562 137.317L138.721 137.44L138.745 135.537Z" fill="#111010"/>
<path opacity="0.1" d="M152.725 116.68L143.565 116.556L143.225 143.693L152.384 143.816L152.725 116.68Z" fill="#111010"/>
<path opacity="0.1" d="M152.671 120.964L143.512 120.84L143.488 122.744L152.647 122.867L152.671 120.964Z" fill="#111010"/>
<path opacity="0.1" d="M152.486 135.722L143.327 135.599L143.303 137.502L152.462 137.626L152.486 135.722Z" fill="#111010"/>
<path d="M208.031 90.0234C207.932 89.9193 207.852 89.7917 207.789 89.6406C207.732 89.4844 207.688 89.3307 207.656 89.1797C207.62 89.0078 207.594 88.8255 207.578 88.6328C207.552 88.2578 207.594 87.9167 207.703 87.6094C207.812 87.3021 207.961 87.0391 208.148 86.8203C208.336 86.6016 208.544 86.4323 208.773 86.3125C209.008 86.1927 209.234 86.1328 209.453 86.1328C209.552 86.1328 209.63 86.1562 209.688 86.2031C209.75 86.25 209.797 86.3073 209.828 86.375C209.859 86.4427 209.878 86.513 209.883 86.5859C209.893 86.6589 209.898 86.7188 209.898 86.7656C209.898 86.9323 209.893 87.0964 209.883 87.2578C209.878 87.4193 209.865 87.5911 209.844 87.7734C209.828 87.9557 209.802 88.151 209.766 88.3594C209.729 88.5677 209.682 88.7995 209.625 89.0547C209.594 89.1953 209.549 89.375 209.492 89.5938C209.435 89.8125 209.367 90.0547 209.289 90.3203C209.523 90.3255 209.711 90.3359 209.852 90.3516C209.997 90.362 210.091 90.3698 210.133 90.375C210.169 90.3802 210.195 90.3984 210.211 90.4297C210.232 90.4609 210.221 90.5104 210.18 90.5781C210.138 90.6406 210.078 90.6771 210 90.6875C209.927 90.6979 209.854 90.7031 209.781 90.7031C209.74 90.7031 209.661 90.7031 209.547 90.7031C209.438 90.7031 209.307 90.7083 209.156 90.7188C209.047 91.0417 208.922 91.3672 208.781 91.6953C208.646 92.0182 208.495 92.3099 208.328 92.5703C208.161 92.8359 207.979 93.0495 207.781 93.2109C207.583 93.3776 207.372 93.4609 207.148 93.4609C206.826 93.4609 206.552 93.3984 206.328 93.2734C206.109 93.1536 205.932 93.0104 205.797 92.8438C205.656 92.6823 205.555 92.5182 205.492 92.3516C205.43 92.1901 205.398 92.0651 205.398 91.9766C205.398 91.8203 205.44 91.6615 205.523 91.5C205.607 91.3385 205.74 91.1875 205.922 91.0469C206.099 90.901 206.331 90.7734 206.617 90.6641C206.904 90.5547 207.247 90.4714 207.648 90.4141C207.815 90.3932 207.974 90.3776 208.125 90.3672C208.276 90.3516 208.419 90.3385 208.555 90.3281C208.659 89.9375 208.763 89.5391 208.867 89.1328C208.977 88.7266 209.07 88.3516 209.148 88.0078C209.18 87.8672 209.211 87.7161 209.242 87.5547C209.273 87.388 209.297 87.2318 209.312 87.0859C209.333 86.9401 209.344 86.8177 209.344 86.7188C209.349 86.6198 209.339 86.5651 209.312 86.5547C209.297 86.5495 209.258 86.5703 209.195 86.6172C209.133 86.6589 209.06 86.7214 208.977 86.8047C208.893 86.888 208.81 86.9896 208.727 87.1094C208.648 87.224 208.583 87.349 208.531 87.4844C208.438 87.75 208.365 88.0104 208.312 88.2656C208.271 88.4844 208.245 88.7161 208.234 88.9609C208.224 89.2057 208.263 89.4271 208.352 89.625C208.341 89.6979 208.326 89.7578 208.305 89.8047C208.289 89.8307 208.276 89.8542 208.266 89.875C208.25 89.8906 208.232 89.9089 208.211 89.9297C208.19 89.9453 208.164 89.9635 208.133 89.9844C208.107 90 208.073 90.013 208.031 90.0234ZM207.938 92.2031C207.995 92.0833 208.065 91.8984 208.148 91.6484C208.232 91.3984 208.32 91.1094 208.414 90.7812C208.159 90.8125 207.901 90.8568 207.641 90.9141C207.38 90.9661 207.143 91.0391 206.93 91.1328C206.721 91.2214 206.549 91.3307 206.414 91.4609C206.284 91.5911 206.219 91.7448 206.219 91.9219C206.219 92.1094 206.255 92.2734 206.328 92.4141C206.406 92.5547 206.497 92.6719 206.602 92.7656C206.711 92.8594 206.82 92.9297 206.93 92.9766C207.044 93.0286 207.141 93.0547 207.219 93.0547C207.297 93.0547 207.37 93.0234 207.438 92.9609C207.51 92.9036 207.576 92.8307 207.633 92.7422C207.695 92.6589 207.75 92.5677 207.797 92.4688C207.849 92.3698 207.896 92.2812 207.938 92.2031ZM211.055 87.4922C210.971 87.4818 210.901 87.4453 210.844 87.3828C210.792 87.3151 210.773 87.2214 210.789 87.1016C210.799 87.0234 210.826 86.9531 210.867 86.8906C210.909 86.8229 210.958 86.7656 211.016 86.7188C211.078 86.6719 211.146 86.638 211.219 86.6172C211.292 86.5964 211.367 86.5885 211.445 86.5938C211.581 86.6094 211.667 86.6771 211.703 86.7969C211.745 86.9115 211.753 87.0391 211.727 87.1797C211.716 87.2526 211.695 87.3385 211.664 87.4375C211.633 87.5365 211.586 87.638 211.523 87.7422C211.466 87.8464 211.393 87.9479 211.305 88.0469C211.221 88.1458 211.12 88.2344 211 88.3125C210.948 88.3438 210.906 88.3594 210.875 88.3594C210.849 88.3542 210.831 88.3411 210.82 88.3203C210.81 88.2943 210.807 88.263 210.812 88.2266C210.823 88.1901 210.841 88.1562 210.867 88.125C210.924 88.0677 210.984 87.9818 211.047 87.8672C211.115 87.7474 211.161 87.6198 211.188 87.4844C211.161 87.4896 211.138 87.4948 211.117 87.5C211.096 87.5052 211.076 87.5026 211.055 87.4922ZM215.172 91.6406C215.172 91.5312 215.182 91.4062 215.203 91.2656C215.229 91.125 215.26 90.9818 215.297 90.8359C215.333 90.6849 215.37 90.5391 215.406 90.3984C215.443 90.2578 215.474 90.1328 215.5 90.0234C215.531 89.888 215.529 89.7839 215.492 89.7109C215.456 89.638 215.393 89.6016 215.305 89.6016C215.263 89.6016 215.18 89.638 215.055 89.7109C214.935 89.7839 214.802 89.9115 214.656 90.0938C214.516 90.2708 214.375 90.513 214.234 90.8203C214.099 91.1224 213.992 91.5078 213.914 91.9766C213.815 92.0286 213.721 92.0625 213.633 92.0781C213.586 92.0885 213.544 92.0964 213.508 92.1016C213.404 92.1068 213.336 92.0885 213.305 92.0469C213.273 92.0104 213.279 91.9167 213.32 91.7656C213.341 91.6927 213.378 91.5755 213.43 91.4141C213.487 91.2526 213.542 91.0781 213.594 90.8906C213.646 90.6979 213.69 90.5078 213.727 90.3203C213.768 90.1276 213.789 89.9609 213.789 89.8203C213.789 89.7214 213.771 89.6536 213.734 89.6172C213.703 89.5807 213.656 89.5625 213.594 89.5625C213.547 89.5625 213.469 89.5885 213.359 89.6406C213.25 89.6927 213.128 89.7943 212.992 89.9453C212.857 90.0964 212.721 90.3073 212.586 90.5781C212.456 90.8438 212.344 91.1901 212.25 91.6172V91.6016C212.24 91.6432 212.229 91.6849 212.219 91.7266C212.208 91.763 212.201 91.8021 212.195 91.8438C212.19 91.8854 212.182 91.9245 212.172 91.9609L211.781 92.1328C211.755 92.1432 211.721 92.151 211.68 92.1562C211.643 92.1615 211.607 92.1536 211.57 92.1328C211.539 92.1172 211.516 92.0807 211.5 92.0234C211.484 91.9661 211.49 91.8802 211.516 91.7656L212.008 89.7266C212.023 89.6589 212.036 89.5938 212.047 89.5312C212.057 89.474 212.062 89.4193 212.062 89.3672C212.068 89.3099 212.065 89.263 212.055 89.2266C212.143 89.1849 212.221 89.1536 212.289 89.1328C212.357 89.112 212.411 89.0964 212.453 89.0859C212.505 89.0703 212.549 89.0625 212.586 89.0625C212.753 89.0625 212.807 89.2057 212.75 89.4922C212.729 89.5755 212.698 89.6979 212.656 89.8594C212.755 89.7344 212.859 89.6172 212.969 89.5078C213.083 89.3932 213.198 89.2917 213.312 89.2031C213.427 89.1146 213.542 89.0443 213.656 88.9922C213.776 88.9401 213.893 88.9141 214.008 88.9141C214.096 88.9141 214.169 88.9401 214.227 88.9922C214.289 89.0443 214.336 89.1146 214.367 89.2031C214.404 89.2865 214.424 89.388 214.43 89.5078C214.435 89.6224 214.43 89.7422 214.414 89.8672C214.497 89.7578 214.589 89.6484 214.688 89.5391C214.792 89.4245 214.898 89.3229 215.008 89.2344C215.122 89.1458 215.24 89.0729 215.359 89.0156C215.479 88.9583 215.599 88.9297 215.719 88.9297C215.859 88.9297 215.966 88.9714 216.039 89.0547C216.117 89.138 216.169 89.2448 216.195 89.375C216.227 89.5052 216.234 89.6458 216.219 89.7969C216.208 89.9479 216.188 90.0938 216.156 90.2344L215.891 91.2891C215.833 91.5495 215.888 91.6797 216.055 91.6797C216.185 91.6797 216.328 91.6172 216.484 91.4922C216.641 91.3672 216.792 91.2188 216.938 91.0469C217.089 90.875 217.229 90.6979 217.359 90.5156C217.49 90.3333 217.599 90.1875 217.688 90.0781C217.719 90.0417 217.75 90.0208 217.781 90.0156C217.818 90.0104 217.846 90.0182 217.867 90.0391C217.893 90.0547 217.906 90.0833 217.906 90.125C217.911 90.1667 217.898 90.2188 217.867 90.2812C217.763 90.4635 217.635 90.6667 217.484 90.8906C217.333 91.1094 217.167 91.3151 216.984 91.5078C216.807 91.7005 216.617 91.862 216.414 91.9922C216.211 92.1224 216 92.1875 215.781 92.1875C215.708 92.1875 215.635 92.1797 215.562 92.1641C215.495 92.1484 215.43 92.1198 215.367 92.0781C215.31 92.0365 215.263 91.9818 215.227 91.9141C215.19 91.8411 215.172 91.75 215.172 91.6406ZM220.805 89.3438C220.539 89.3438 220.323 89.3151 220.156 89.2578C219.995 89.2005 219.885 89.1276 219.828 89.0391C219.802 89.0026 219.779 88.9479 219.758 88.875C219.737 88.8021 219.745 88.7214 219.781 88.6328C219.854 88.6901 219.932 88.7344 220.016 88.7656C220.104 88.7917 220.185 88.8099 220.258 88.8203C220.346 88.8359 220.432 88.8438 220.516 88.8438C220.672 88.8438 220.823 88.8307 220.969 88.8047C221.12 88.7786 221.268 88.7422 221.414 88.6953C221.477 88.3828 221.536 88.1016 221.594 87.8516C221.656 87.6016 221.727 87.3984 221.805 87.2422C221.888 87.0703 221.974 86.9167 222.062 86.7812C222.156 86.6406 222.258 86.5234 222.367 86.4297C222.482 86.3307 222.607 86.2552 222.742 86.2031C222.878 86.151 223.034 86.125 223.211 86.125C223.341 86.125 223.443 86.151 223.516 86.2031C223.594 86.2552 223.651 86.3203 223.688 86.3984C223.729 86.4766 223.753 86.5625 223.758 86.6562C223.768 86.7448 223.773 86.8281 223.773 86.9062C223.773 87.0781 223.732 87.2656 223.648 87.4688C223.565 87.6719 223.448 87.8724 223.297 88.0703C223.146 88.2682 222.964 88.4557 222.75 88.6328C222.542 88.8099 222.307 88.9557 222.047 89.0703C221.958 89.4141 221.87 89.7552 221.781 90.0938C221.698 90.4271 221.615 90.7031 221.531 90.9219C221.458 91.125 221.365 91.3516 221.25 91.6016C221.141 91.8516 221.005 92.0911 220.844 92.3203C220.943 92.3828 221.042 92.4479 221.141 92.5156C221.245 92.5833 221.349 92.6432 221.453 92.6953C221.557 92.7526 221.661 92.7995 221.766 92.8359C221.875 92.8724 221.99 92.8906 222.109 92.8906C222.234 92.8854 222.357 92.8672 222.477 92.8359C222.581 92.8099 222.69 92.7656 222.805 92.7031C222.919 92.6458 223.026 92.5625 223.125 92.4531C223.161 92.5156 223.172 92.6094 223.156 92.7344C223.146 92.8594 223.107 92.9844 223.039 93.1094C222.971 93.2344 222.875 93.3438 222.75 93.4375C222.625 93.5312 222.469 93.5781 222.281 93.5781C222.083 93.5781 221.898 93.5495 221.727 93.4922C221.555 93.4401 221.393 93.375 221.242 93.2969C221.091 93.2188 220.948 93.1328 220.812 93.0391C220.682 92.9505 220.56 92.8672 220.445 92.7891C220.289 92.9401 220.117 93.0625 219.93 93.1562C219.742 93.25 219.534 93.2969 219.305 93.2969C219.122 93.2969 218.977 93.2448 218.867 93.1406C218.758 93.0417 218.708 92.9062 218.719 92.7344C218.724 92.6719 218.742 92.5964 218.773 92.5078C218.805 92.4245 218.865 92.3438 218.953 92.2656C219.036 92.1875 219.154 92.1198 219.305 92.0625C219.456 92.0104 219.651 91.9844 219.891 91.9844C219.979 91.9844 220.062 91.9922 220.141 92.0078C220.224 92.0286 220.305 92.0521 220.383 92.0781C220.44 91.974 220.497 91.8542 220.555 91.7188C220.612 91.5833 220.674 91.4297 220.742 91.2578C220.862 90.9297 220.966 90.6016 221.055 90.2734C221.143 89.9401 221.219 89.6172 221.281 89.3047C221.208 89.3203 221.13 89.3307 221.047 89.3359C220.969 89.3411 220.888 89.3438 220.805 89.3438ZM219.508 92.875C219.576 92.849 219.654 92.8229 219.742 92.7969C219.831 92.7708 219.932 92.6979 220.047 92.5781C219.969 92.5521 219.909 92.5391 219.867 92.5391C219.68 92.5391 219.544 92.5651 219.461 92.6172C219.372 92.6745 219.328 92.7292 219.328 92.7812C219.328 92.8177 219.344 92.8438 219.375 92.8594C219.406 92.8802 219.451 92.8854 219.508 92.875ZM222.461 87.4375C222.435 87.5156 222.401 87.6302 222.359 87.7812C222.318 87.9323 222.273 88.1068 222.227 88.3047C222.508 88.1224 222.732 87.9141 222.898 87.6797C223.07 87.4453 223.156 87.2109 223.156 86.9766C223.156 86.8359 223.115 86.7656 223.031 86.7656C222.958 86.7656 222.865 86.8229 222.75 86.9375C222.635 87.0469 222.539 87.2135 222.461 87.4375ZM225.766 90.7578C225.714 90.9557 225.643 91.1406 225.555 91.3125C225.466 91.4844 225.359 91.6328 225.234 91.7578C225.115 91.8828 224.977 91.9792 224.82 92.0469C224.669 92.1198 224.503 92.1562 224.32 92.1562C224.107 92.1562 223.938 92.1094 223.812 92.0156C223.693 91.9271 223.602 91.8151 223.539 91.6797C223.482 91.5443 223.448 91.3958 223.438 91.2344C223.422 91.0729 223.414 90.9219 223.414 90.7812C223.414 90.6823 223.427 90.5729 223.453 90.4531C223.474 90.3333 223.505 90.2109 223.547 90.0859C223.589 89.9609 223.641 89.8359 223.703 89.7109C223.771 89.5859 223.849 89.4714 223.938 89.3672C223.969 89.2786 224.016 89.2005 224.078 89.1328C224.146 89.0651 224.221 89.0104 224.305 88.9688C224.393 88.9219 224.487 88.888 224.586 88.8672C224.685 88.8411 224.781 88.8281 224.875 88.8281C224.891 88.8281 224.904 88.8307 224.914 88.8359C224.93 88.8411 224.945 88.8464 224.961 88.8516C225.029 88.8568 225.112 88.8828 225.211 88.9297C225.315 88.9766 225.414 89.0469 225.508 89.1406C225.607 89.2344 225.69 89.3542 225.758 89.5C225.826 89.6406 225.859 89.8125 225.859 90.0156C225.859 90.0573 225.857 90.1094 225.852 90.1719C225.846 90.2292 225.841 90.2786 225.836 90.3203C225.956 90.2734 226.081 90.2161 226.211 90.1484C226.341 90.0807 226.466 90.0104 226.586 89.9375C226.711 89.8594 226.826 89.7812 226.93 89.7031C227.034 89.625 227.117 89.5547 227.18 89.4922C227.232 89.4453 227.276 89.4193 227.312 89.4141C227.349 89.4089 227.375 89.4193 227.391 89.4453C227.406 89.4714 227.409 89.5078 227.398 89.5547C227.388 89.6016 227.359 89.6536 227.312 89.7109C227.286 89.7422 227.219 89.8047 227.109 89.8984C227.005 89.9922 226.88 90.0938 226.734 90.2031C226.589 90.3125 226.43 90.4193 226.258 90.5234C226.086 90.6276 225.922 90.7057 225.766 90.7578ZM224.445 89.5703C224.43 89.6172 224.422 89.6667 224.422 89.7188C224.422 89.8021 224.427 89.8906 224.438 89.9844C224.448 90.0729 224.474 90.1536 224.516 90.2266C224.557 90.2995 224.622 90.362 224.711 90.4141C224.805 90.4609 224.932 90.4844 225.094 90.4844C225.12 90.4844 225.146 90.4844 225.172 90.4844C225.198 90.4792 225.224 90.474 225.25 90.4688C225.266 90.401 225.279 90.3411 225.289 90.2891C225.305 90.2318 225.312 90.1823 225.312 90.1406C225.323 90.0417 225.323 89.9401 225.312 89.8359C225.302 89.7318 225.281 89.638 225.25 89.5547C225.224 89.4661 225.188 89.3958 225.141 89.3438C225.099 89.2865 225.047 89.2578 224.984 89.2578C224.885 89.2578 224.789 89.2865 224.695 89.3438C224.607 89.3958 224.523 89.4714 224.445 89.5703ZM223.945 90.9453C223.945 91.0391 223.951 91.1328 223.961 91.2266C223.971 91.3151 223.992 91.3958 224.023 91.4688C224.055 91.5365 224.096 91.5938 224.148 91.6406C224.201 91.6823 224.268 91.7031 224.352 91.7031C224.445 91.7031 224.531 91.6823 224.609 91.6406C224.688 91.5938 224.758 91.5365 224.82 91.4688C224.883 91.3958 224.938 91.3151 224.984 91.2266C225.036 91.1328 225.081 91.0365 225.117 90.9375C225.081 90.9427 225.044 90.9479 225.008 90.9531C224.977 90.9531 224.94 90.9531 224.898 90.9531C224.701 90.9531 224.529 90.8958 224.383 90.7812C224.242 90.6615 224.133 90.5104 224.055 90.3281C224.023 90.4375 223.997 90.5443 223.977 90.6484C223.956 90.7526 223.945 90.8516 223.945 90.9453ZM227.703 91.7344C227.734 91.7552 227.773 91.7656 227.82 91.7656C227.872 91.7656 227.922 91.7552 227.969 91.7344C228.021 91.7135 228.068 91.6849 228.109 91.6484C228.156 91.612 228.19 91.5651 228.211 91.5078C228.232 91.4505 228.232 91.3698 228.211 91.2656C228.19 91.1562 228.156 91.0417 228.109 90.9219C228.068 90.7969 228.021 90.6719 227.969 90.5469C227.917 90.4219 227.872 90.3073 227.836 90.2031C227.805 90.125 227.779 90.0521 227.758 89.9844C227.737 89.9271 227.716 89.8724 227.695 89.8203C227.68 89.763 227.667 89.724 227.656 89.7031C227.63 89.7448 227.583 89.8125 227.516 89.9062C227.453 90 227.383 90.099 227.305 90.2031C227.232 90.3021 227.161 90.3958 227.094 90.4844C227.026 90.5677 226.979 90.625 226.953 90.6562C226.911 90.7031 226.87 90.7318 226.828 90.7422C226.792 90.7474 226.76 90.7396 226.734 90.7188C226.708 90.6927 226.693 90.6589 226.688 90.6172C226.688 90.5703 226.708 90.5156 226.75 90.4531C226.781 90.4115 226.828 90.3464 226.891 90.2578C226.953 90.1641 227.016 90.0703 227.078 89.9766C227.141 89.8776 227.198 89.7917 227.25 89.7188C227.302 89.6406 227.331 89.5938 227.336 89.5781C227.346 89.5365 227.331 89.4818 227.289 89.4141C227.253 89.3464 227.247 89.2682 227.273 89.1797C227.294 89.1068 227.341 89.0234 227.414 88.9297C227.487 88.8307 227.573 88.7422 227.672 88.6641C227.771 88.5859 227.872 88.5286 227.977 88.4922C228.081 88.4505 228.174 88.4505 228.258 88.4922C228.326 88.5339 228.38 88.5807 228.422 88.6328C228.464 88.6797 228.479 88.7292 228.469 88.7812C228.458 88.8073 228.443 88.8411 228.422 88.8828C228.401 88.9245 228.37 88.9766 228.328 89.0391C228.286 89.0964 228.227 89.1719 228.148 89.2656C228.164 89.3854 228.185 89.4948 228.211 89.5938C228.242 89.6927 228.271 89.7786 228.297 89.8516C228.328 89.9401 228.362 90.0208 228.398 90.0938C228.445 90.1875 228.495 90.2839 228.547 90.3828C228.599 90.4818 228.646 90.5807 228.688 90.6797C228.729 90.7734 228.763 90.862 228.789 90.9453C228.815 91.0286 228.823 91.099 228.812 91.1562C228.797 91.2448 228.75 91.3516 228.672 91.4766C228.599 91.6016 228.505 91.724 228.391 91.8438C228.281 91.9583 228.154 92.0573 228.008 92.1406C227.867 92.224 227.719 92.2656 227.562 92.2656C227.453 92.2656 227.346 92.2318 227.242 92.1641C227.143 92.0964 227.057 92.0182 226.984 91.9297C226.917 91.8359 226.865 91.7448 226.828 91.6562C226.797 91.5677 226.794 91.5 226.82 91.4531C226.852 91.3906 226.88 91.3411 226.906 91.3047C226.932 91.2682 226.971 91.2266 227.023 91.1797C227.044 91.1641 227.07 91.1458 227.102 91.125C227.128 91.1094 227.164 91.0938 227.211 91.0781C227.258 91.0625 227.312 91.0443 227.375 91.0234C227.427 91.1849 227.474 91.3125 227.516 91.4062C227.557 91.4948 227.591 91.5651 227.617 91.6172C227.648 91.6745 227.677 91.7135 227.703 91.7344ZM232.297 90.0234C232.318 89.9922 232.344 89.974 232.375 89.9688C232.411 89.9583 232.44 89.9609 232.461 89.9766C232.482 89.9922 232.492 90.0182 232.492 90.0547C232.497 90.0911 232.484 90.1406 232.453 90.2031C232.349 90.401 232.211 90.6146 232.039 90.8438C231.872 91.0729 231.695 91.2891 231.508 91.4922C231.32 91.6901 231.138 91.8542 230.961 91.9844C230.784 92.1146 230.635 92.1797 230.516 92.1797C230.344 92.1797 230.201 92.1458 230.086 92.0781C229.971 92.0104 229.88 91.9271 229.812 91.8281C229.75 91.7292 229.706 91.6224 229.68 91.5078C229.654 91.388 229.646 91.2786 229.656 91.1797C229.661 91.0964 229.68 90.9479 229.711 90.7344C229.742 90.5156 229.784 90.2656 229.836 89.9844C229.888 89.6979 229.945 89.3932 230.008 89.0703C230.076 88.7422 230.146 88.4271 230.219 88.125C230.13 88.1354 230.042 88.1458 229.953 88.1562C229.865 88.1667 229.784 88.1719 229.711 88.1719C229.544 88.1719 229.388 88.1536 229.242 88.1172C229.091 88.0755 228.979 88.0365 228.906 88C228.865 87.9792 228.846 87.9505 228.852 87.9141C228.857 87.8724 228.872 87.8333 228.898 87.7969C228.924 87.7552 228.958 87.7214 229 87.6953C229.036 87.6641 229.07 87.6484 229.102 87.6484C229.201 87.6589 229.307 87.6693 229.422 87.6797C229.536 87.6849 229.661 87.6849 229.797 87.6797C229.896 87.6745 229.99 87.6667 230.078 87.6562C230.172 87.6458 230.263 87.6328 230.352 87.6172C230.419 87.3672 230.484 87.151 230.547 86.9688C230.615 86.7812 230.674 86.651 230.727 86.5781C230.742 86.5521 230.776 86.5312 230.828 86.5156C230.885 86.4948 230.945 86.4818 231.008 86.4766C231.07 86.4661 231.13 86.4661 231.188 86.4766C231.245 86.4818 231.286 86.5 231.312 86.5312C231.339 86.5729 231.349 86.6797 231.344 86.8516C231.339 87.0234 231.31 87.2422 231.258 87.5078C231.477 87.5078 231.669 87.5208 231.836 87.5469C232.008 87.5677 232.154 87.5938 232.273 87.625C232.393 87.651 232.49 87.6797 232.562 87.7109C232.635 87.737 232.69 87.7552 232.727 87.7656C232.763 87.776 232.781 87.8021 232.781 87.8438C232.786 87.8854 232.779 87.9297 232.758 87.9766C232.742 88.0182 232.714 88.0547 232.672 88.0859C232.63 88.1172 232.583 88.1276 232.531 88.1172C232.479 88.112 232.419 88.1016 232.352 88.0859C232.289 88.0703 232.211 88.0573 232.117 88.0469C232.029 88.0365 231.922 88.026 231.797 88.0156C231.672 88.0052 231.526 88 231.359 88C231.328 88 231.292 88.0026 231.25 88.0078C231.214 88.0078 231.174 88.0078 231.133 88.0078C231.112 88.0911 231.091 88.1745 231.07 88.2578C231.055 88.3359 231.031 88.4193 231 88.5078C230.932 88.7161 230.854 88.9427 230.766 89.1875C230.688 89.401 230.594 89.6458 230.484 89.9219C230.375 90.1979 230.253 90.4922 230.117 90.8047C230.086 91.0286 230.089 91.2005 230.125 91.3203C230.167 91.4349 230.216 91.5182 230.273 91.5703C230.341 91.6276 230.424 91.6589 230.523 91.6641C230.602 91.6745 230.695 91.6484 230.805 91.5859C230.919 91.5182 231.036 91.4297 231.156 91.3203C231.276 91.2109 231.396 91.0911 231.516 90.9609C231.641 90.8307 231.755 90.7031 231.859 90.5781C231.964 90.4531 232.055 90.3411 232.133 90.2422C232.211 90.138 232.266 90.0651 232.297 90.0234Z" fill="black"/>
</g>
<defs>
<clipPath id="clip0">
<rect width="303" height="193" fill="white"/>
</clipPath>
<clipPath id="clip1">
<rect width="138" height="75" fill="white" transform="translate(62 21)"/>
</clipPath>
</defs>
</svg>
