<svg width="364" height="299" viewBox="0 0 364 299" fill="none" xmlns="http://www.w3.org/2000/svg">
<g clip-path="url(#clip0)">
<path opacity="0.1" d="M306.232 16.5983C318.587 21.0463 323.334 23.5642 335.558 28.3911C340.565 30.3691 345.71 32.477 349.534 36.3737C353.548 40.4668 355.695 46.1302 357.193 51.7641C360.405 63.8585 360.93 77.4602 354.929 88.3469C349.44 98.3096 338.902 105.359 336.414 116.539C334.579 124.783 337.624 133.227 339.064 141.553C340.927 152.406 340.059 163.576 336.543 173.979C333.193 183.846 326.779 193.377 317.225 196.664C306.111 200.484 294.125 195.016 282.421 195.239C269.288 195.491 257.27 202.908 247.03 211.457C236.789 220.006 227.52 229.966 216.192 236.842C204.639 243.847 191.475 247.328 178.506 250.731C171.293 252.624 164.003 254.526 156.565 254.682C148.341 254.854 140.161 252.865 132.529 249.671C118.381 243.756 105.956 233.679 96.475 221.265C90.9579 214.044 86.2226 204.753 88.7841 195.927C90.646 189.515 95.9147 184.949 99.9758 179.753C110.784 165.996 113.365 145.795 106.386 129.583C102.849 121.368 97.1959 114.376 92.1965 107.027C87.1971 99.6777 82.6907 91.5218 82.014 82.5488C81.3373 73.5758 85.4606 63.6812 93.4979 60.3322C103.356 56.2291 117.203 61.9812 123.644 53.2011C126.083 49.8735 126.445 45.4518 127.229 41.3508C131.401 19.61 151.533 2.38321 172.846 2.29017C189.471 2.2169 205.034 11.2766 221.621 12.3173C238.288 13.3625 255.316 6.2897 271.409 10.8712C277.312 12.574 282.727 15.7619 288.57 17.6786C294.413 19.5952 301.194 20.0328 306.293 16.5092" fill="#242153" fill-opacity="0.22"/>
<path opacity="0.1" d="M312.661 67.433L167.003 65.467L166.871 75.9416L312.53 77.9075L312.661 67.433Z" fill="#242153"/>
<path opacity="0.1" d="M312.094 112.66L166.436 110.694L166.304 121.168L311.963 123.134L312.094 112.66Z" fill="#242153"/>
<path opacity="0.1" d="M311.503 159.79L165.845 157.824L165.713 168.299L311.372 170.265L311.503 159.79Z" fill="#242153"/>
<path opacity="0.1" d="M230.552 39.1875L221.393 39.0638L221.052 66.2L230.212 66.3236L230.552 39.1875Z" fill="#242153"/>
<path opacity="0.1" d="M230.498 43.4714L221.339 43.3478L221.315 45.251L230.474 45.3746L230.498 43.4714Z" fill="#242153"/>
<path opacity="0.1" d="M230.313 58.2298L221.154 58.1062L221.13 60.0094L230.289 60.133L230.313 58.2298Z" fill="#242153"/>
<path opacity="0.1" d="M244.296 39.373L235.136 39.2493L234.796 66.3855L243.955 66.5091L244.296 39.373Z" fill="#242153"/>
<path opacity="0.1" d="M244.242 43.6569L235.083 43.5333L235.059 45.4365L244.218 45.5601L244.242 43.6569Z" fill="#242153"/>
<path opacity="0.1" d="M244.057 58.4153L234.898 58.2917L234.874 60.1949L244.033 60.3185L244.057 58.4153Z" fill="#242153"/>
<path opacity="0.1" d="M258.036 39.5584L248.877 39.4348L248.537 66.571L257.696 66.6946L258.036 39.5584Z" fill="#242153"/>
<path opacity="0.1" d="M257.982 43.8424L248.823 43.7187L248.799 45.6219L257.958 45.7455L257.982 43.8424Z" fill="#242153"/>
<path opacity="0.1" d="M257.797 58.6008L248.638 58.4772L248.614 60.3804L257.773 60.504L257.797 58.6008Z" fill="#242153"/>
<path opacity="0.1" d="M271.776 39.7439L262.617 39.6203L262.277 66.7564L271.436 66.88L271.776 39.7439Z" fill="#242153"/>
<path opacity="0.1" d="M271.723 44.0278L262.564 43.9042L262.54 45.8074L271.699 45.931L271.723 44.0278Z" fill="#242153"/>
<path opacity="0.1" d="M271.538 58.7862L262.379 58.6626L262.355 60.5658L271.514 60.6894L271.538 58.7862Z" fill="#242153"/>
<path opacity="0.1" d="M265.206 131.315L256.965 135.472L268.364 159.887L276.605 155.731L265.206 131.315Z" fill="#242153"/>
<path opacity="0.1" d="M267.006 135.171L258.765 139.328L259.564 141.04L267.806 136.884L267.006 135.171Z" fill="#242153"/>
<path opacity="0.1" d="M273.206 148.447L264.965 152.603L265.764 154.316L274.005 150.159L273.206 148.447Z" fill="#242153"/>
<path opacity="0.1" d="M273.494 85.4758L264.335 85.3522L263.995 112.488L273.154 112.612L273.494 85.4758Z" fill="#002F63"/>
<path opacity="0.1" d="M273.44 89.7597L264.281 89.6361L264.257 91.5393L273.417 91.6629L273.44 89.7597Z" fill="#242153"/>
<path opacity="0.1" d="M273.255 104.518L264.096 104.395L264.072 106.298L273.231 106.421L273.255 104.518Z" fill="#242153"/>
<path opacity="0.1" d="M287.235 85.6612L278.075 85.5376L277.735 112.674L286.894 112.797L287.235 85.6612Z" fill="#242153"/>
<path opacity="0.1" d="M287.181 89.9452L278.022 89.8215L277.998 91.7247L287.157 91.8484L287.181 89.9452Z" fill="#242153"/>
<path opacity="0.1" d="M286.996 104.704L277.837 104.58L277.813 106.483L286.972 106.607L286.996 104.704Z" fill="#242153"/>
<path opacity="0.1" d="M300.975 85.8467L291.816 85.7231L291.476 112.859L300.635 112.983L300.975 85.8467Z" fill="#242153"/>
<path opacity="0.1" d="M300.921 90.1306L291.762 90.007L291.738 91.9102L300.898 92.0338L300.921 90.1306Z" fill="#242153"/>
<path opacity="0.1" d="M300.736 104.889L291.577 104.766L291.553 106.669L300.712 106.792L300.736 104.889Z" fill="#242153"/>
<path opacity="0.1" d="M188.172 130.985L179.013 130.861L178.673 157.997L187.832 158.121L188.172 130.985Z" fill="#242153"/>
<path opacity="0.1" d="M188.119 135.269L178.959 135.145L178.935 137.048L188.095 137.172L188.119 135.269Z" fill="#242153"/>
<path opacity="0.1" d="M187.934 150.027L178.774 149.903L178.75 151.807L187.91 151.93L187.934 150.027Z" fill="#242153"/>
<path opacity="0.1" d="M201.913 131.17L192.754 131.047L192.413 158.183L201.573 158.306L201.913 131.17Z" fill="#242153"/>
<path opacity="0.1" d="M201.859 135.454L192.7 135.33L192.676 137.234L201.835 137.357L201.859 135.454Z" fill="#242153"/>
<path opacity="0.1" d="M201.674 150.213L192.515 150.089L192.491 151.992L201.65 152.116L201.674 150.213Z" fill="#242153"/>
<path opacity="0.1" d="M215.653 131.356L206.494 131.232L206.154 158.368L215.313 158.492L215.653 131.356Z" fill="#242153"/>
<path opacity="0.1" d="M215.6 135.64L206.44 135.516L206.416 137.419L215.576 137.543L215.6 135.64Z" fill="#242153"/>
<path opacity="0.1" d="M215.414 150.398L206.255 150.274L206.231 152.178L215.391 152.301L215.414 150.398Z" fill="#242153"/>
<path opacity="0.1" d="M229.394 131.541L220.235 131.417L219.894 158.554L229.054 158.677L229.394 131.541Z" fill="#242153"/>
<path opacity="0.1" d="M229.34 135.825L220.181 135.701L220.157 137.605L229.316 137.728L229.34 135.825Z" fill="#242153"/>
<path opacity="0.1" d="M229.155 150.583L219.996 150.46L219.972 152.363L229.131 152.487L229.155 150.583Z" fill="#242153"/>
<path opacity="0.1" d="M243.138 131.727L233.978 131.603L233.638 158.739L242.797 158.863L243.138 131.727Z" fill="#242153"/>
<path opacity="0.1" d="M243.084 136.011L233.925 135.887L233.901 137.79L243.06 137.914L243.084 136.011Z" fill="#242153"/>
<path opacity="0.1" d="M242.899 150.769L233.74 150.645L233.716 152.549L242.875 152.672L242.899 150.769Z" fill="#242153"/>
<path opacity="0.1" d="M256.878 131.912L247.719 131.788L247.379 158.925L256.538 159.048L256.878 131.912Z" fill="#242153"/>
<path opacity="0.1" d="M256.824 136.196L247.665 136.072L247.641 137.976L256.8 138.099L256.824 136.196Z" fill="#242153"/>
<path opacity="0.1" d="M256.639 150.954L247.48 150.831L247.456 152.734L256.615 152.858L256.639 150.954Z" fill="#242153"/>
<g opacity="0.1">
<path opacity="0.1" d="M234.53 102.224C234.53 102.224 231.766 101.207 230.395 103.732C230.034 104.417 229.845 105.186 229.846 105.967C229.846 106.748 230.037 107.516 230.399 108.2C231.257 109.863 233.038 112.043 236.47 111.885C239.379 111.762 240.376 109.47 240.666 107.328C240.776 106.525 240.687 105.706 240.405 104.949C240.124 104.193 239.66 103.524 239.059 103.007C238.458 102.49 237.739 102.141 236.971 101.996C236.203 101.85 235.412 101.911 234.674 102.174L234.53 102.224Z" fill="#242153"/>
<path opacity="0.1" d="M230.976 108.436C230.613 107.752 230.423 106.984 230.422 106.203C230.421 105.422 230.61 104.653 230.972 103.968C232.335 101.443 235.106 102.46 235.106 102.46L235.25 102.41C236.314 102.026 237.477 102.069 238.512 102.53C237.942 102.166 237.301 101.939 236.635 101.864C235.97 101.789 235.297 101.869 234.665 102.097L234.521 102.147C234.521 102.147 231.756 101.13 230.386 103.656C230.025 104.341 229.836 105.109 229.837 105.89C229.837 106.671 230.028 107.44 230.39 108.124C231.06 109.498 232.151 110.6 233.491 111.256C232.421 110.573 231.551 109.597 230.976 108.436V108.436Z" fill="#242153"/>
<path opacity="0.2" d="M233.073 103.426C233.073 103.426 234.091 104.28 236.606 103.473Z" fill="#242153"/>
<path opacity="0.1" d="M232.927 97.3081C232.927 97.3081 234.629 102.301 234.466 103.6L235.866 103.467C235.866 103.467 233.567 99.0784 234.178 97.325L232.927 97.3081Z" fill="#242153"/>
<path opacity="0.2" d="M232.927 97.3081C232.927 97.3081 234.629 102.301 234.466 103.6L235.866 103.467C235.866 103.467 233.567 99.0784 234.178 97.325L232.927 97.3081Z" fill="#242153"/>
<path opacity="0.1" d="M240.13 97.8206C240.13 97.8206 237.368 96.3055 236.111 97.5103C234.854 98.715 234.621 101.83 234.621 101.83C234.621 101.83 239.145 102.538 240.13 97.8206Z" fill="#242153"/>
<path opacity="0.1" d="M240.13 97.8206C240.13 97.8206 237.368 96.3055 236.111 97.5103C234.854 98.715 234.621 101.83 234.621 101.83C234.621 101.83 239.145 102.538 240.13 97.8206Z" fill="#242153"/>
<path opacity="0.1" d="M234.621 101.83C234.621 101.83 235.396 98.2205 240.13 97.8206Z" fill="#242153"/>
</g>
<g opacity="0.1">
<path opacity="0.1" d="M292.56 150.145C292.56 150.145 289.795 149.128 288.425 151.653C288.064 152.338 287.875 153.107 287.876 153.888C287.876 154.669 288.067 155.437 288.429 156.122C289.287 157.784 291.068 159.964 294.5 159.806C297.409 159.683 298.406 157.391 298.696 155.25C298.806 154.446 298.716 153.627 298.435 152.871C298.154 152.114 297.69 151.445 297.089 150.928C296.488 150.411 295.769 150.063 295.001 149.917C294.233 149.771 293.442 149.832 292.704 150.095L292.56 150.145Z" fill="#242153"/>
<path opacity="0.1" d="M289.015 156.358C288.653 155.674 288.463 154.905 288.462 154.124C288.461 153.343 288.65 152.575 289.012 151.89C290.375 149.364 293.146 150.381 293.146 150.381L293.29 150.331C294.354 149.947 295.517 149.99 296.552 150.451C295.982 150.088 295.34 149.861 294.675 149.786C294.01 149.711 293.337 149.79 292.705 150.019L292.561 150.069C292.561 150.069 289.796 149.052 288.426 151.577C288.065 152.262 287.876 153.031 287.877 153.812C287.877 154.593 288.068 155.361 288.43 156.045C289.1 157.419 290.191 158.521 291.531 159.178C290.461 158.494 289.591 157.519 289.015 156.358Z" fill="#242153"/>
<path opacity="0.2" d="M291.109 151.347C291.109 151.347 292.128 152.202 294.642 151.395Z" fill="#242153"/>
<path opacity="0.1" d="M290.967 145.23C290.967 145.23 292.669 150.222 292.506 151.522L293.906 151.388C293.906 151.388 291.607 147 292.218 145.246L290.967 145.23Z" fill="#242153"/>
<path opacity="0.2" d="M290.967 145.23C290.967 145.23 292.669 150.222 292.506 151.522L293.906 151.388C293.906 151.388 291.607 147 292.218 145.246L290.967 145.23Z" fill="#242153"/>
<path opacity="0.1" d="M298.166 145.742C298.166 145.742 295.405 144.227 294.147 145.432C292.89 146.636 292.658 149.752 292.658 149.752C292.658 149.752 297.195 150.46 298.166 145.742Z" fill="#242153"/>
<path opacity="0.1" d="M298.166 145.742C298.166 145.742 295.405 144.227 294.147 145.432C292.89 146.636 292.658 149.752 292.658 149.752C292.658 149.752 297.195 150.46 298.166 145.742Z" fill="#242153"/>
<path opacity="0.1" d="M292.661 149.748C292.661 149.748 293.436 146.139 298.169 145.739Z" fill="#242153"/>
</g>
<path d="M11.6362 259.322C11.6362 259.322 55.2124 303.93 177.216 293.809C299.22 283.689 347.734 291.958 347.734 291.958C347.734 291.958 369.986 270.108 340.48 259.673C310.974 249.238 236.343 252.384 213.037 252.069C189.732 251.755 141.607 238.992 141.607 238.992L11.6362 259.322Z" fill="#17202A"/>
<path d="M326.758 274.733C326.758 274.733 320.004 236.547 335.221 210.643C341.608 199.772 344.643 187.115 343.484 174.436C342.922 168.42 341.83 162.47 340.223 156.661" stroke="#535461" stroke-width="2" stroke-miterlimit="10"/>
<path d="M349.723 140.277C349.263 144.815 340.025 157.105 340.025 157.105C340.025 157.105 333.447 143.079 333.904 138.538C334.013 137.458 334.325 136.412 334.824 135.458C335.322 134.504 335.996 133.662 336.807 132.979C337.619 132.296 338.552 131.785 339.553 131.477C340.554 131.169 341.604 131.068 342.642 131.182C343.681 131.295 344.688 131.62 345.605 132.137C346.523 132.655 347.334 133.356 347.991 134.199C348.648 135.042 349.139 136.012 349.435 137.053C349.732 138.093 349.829 139.184 349.72 140.264L349.723 140.277Z" fill="#242153"/>
<path d="M360.259 166.851C357.5 170.403 343.31 175.51 343.31 175.51C343.31 175.51 345.123 160.019 347.878 156.467C348.534 155.622 349.344 154.92 350.261 154.4C351.178 153.88 352.185 153.554 353.224 153.438C354.262 153.323 355.313 153.421 356.315 153.728C357.317 154.034 358.251 154.543 359.064 155.225C359.877 155.907 360.553 156.748 361.053 157.702C361.553 158.655 361.867 159.701 361.978 160.781C362.089 161.86 361.994 162.952 361.699 163.993C361.404 165.035 360.915 166.006 360.259 166.851Z" fill="#17202A"/>
<path d="M355.342 209.759C351.235 211.379 336.508 208.342 336.508 208.342C336.508 208.342 345.598 195.922 349.705 194.303C350.681 193.918 351.721 193.737 352.765 193.77C353.809 193.803 354.836 194.049 355.788 194.494C356.74 194.94 357.599 195.576 358.314 196.367C359.03 197.157 359.589 198.086 359.959 199.101C360.329 200.116 360.503 201.197 360.472 202.282C360.44 203.366 360.203 204.434 359.774 205.424C359.345 206.414 358.733 207.306 357.973 208.05C357.212 208.793 356.318 209.374 355.342 209.759V209.759Z" fill="#17202A"/>
<path d="M344.589 241.354C340.804 243.671 325.794 243.267 325.794 243.267C325.794 243.267 332.734 229.427 336.516 227.111C338.334 225.999 340.502 225.682 342.543 226.231C344.585 226.78 346.333 228.15 347.404 230.039C348.474 231.927 348.778 234.181 348.25 236.303C347.721 238.425 346.403 240.242 344.586 241.354L344.589 241.354Z" fill="#17202A"/>
<path d="M326.612 174.578C329.425 178.077 343.69 182.953 343.69 182.953C343.69 182.953 341.639 167.493 338.826 163.99C337.475 162.307 335.536 161.25 333.436 161.053C331.335 160.855 329.245 161.533 327.626 162.937C326.006 164.341 324.989 166.357 324.799 168.54C324.609 170.723 325.261 172.895 326.612 174.578V174.578Z" fill="#17202A"/>
<path d="M314.492 211.696C318.184 214.169 333.199 214.371 333.199 214.371C333.199 214.371 326.79 200.258 323.084 197.788C321.311 196.602 319.157 196.197 317.096 196.662C315.035 197.127 313.236 198.424 312.094 200.267C310.953 202.11 310.563 204.349 311.01 206.491C311.458 208.633 312.705 210.503 314.479 211.689L314.492 211.696Z" fill="#17202A"/>
<path d="M307.472 249.454C310.71 252.536 325.473 255.38 325.473 255.38C325.473 255.38 321.452 240.346 318.211 237.26C317.441 236.527 316.539 235.959 315.558 235.588C314.576 235.217 313.534 235.051 312.491 235.099C311.448 235.146 310.424 235.407 309.477 235.866C308.531 236.325 307.681 236.973 306.976 237.773C306.27 238.574 305.723 239.511 305.367 240.531C305.01 241.551 304.849 242.634 304.895 243.718C304.941 244.802 305.192 245.867 305.633 246.85C306.075 247.834 306.698 248.717 307.469 249.45L307.472 249.454Z" fill="#17202A"/>
<path opacity="0.1" d="M284.999 59.1618L280.109 56.9707L286.894 40.6055L291.785 42.7965L284.999 59.1618ZM290.261 39.4569C289.697 39.2078 289.216 38.7903 288.88 38.2571C288.544 37.724 288.368 37.0993 288.374 36.462C288.379 35.8246 288.567 35.2033 288.912 34.6767C289.257 34.1501 289.745 33.7417 290.314 33.5033C290.883 33.265 291.507 33.2073 292.107 33.3375C292.707 33.4678 293.257 33.7802 293.686 34.2352C294.116 34.6902 294.406 35.2673 294.519 35.8936C294.633 36.5199 294.566 37.1672 294.325 37.7536C294.001 38.5375 293.392 39.1564 292.631 39.4755C291.87 39.7945 291.018 39.7879 290.261 39.4569V39.4569ZM303.302 67.3482L298.421 65.1642L301.724 57.1967C302.51 55.2969 303.483 52.8458 300.977 51.7252C298.47 50.6047 297.188 52.4736 296.305 54.6075L292.947 62.7092L288.063 60.5217L294.848 44.1565L299.537 46.2583L298.61 48.4919L298.679 48.524C299.864 47.5294 302.03 46.8872 304.401 47.954C309.348 50.1701 308.854 53.9635 307.031 58.3724L303.305 67.3621L303.302 67.3482Z" fill="#242153"/>
<path opacity="0.1" d="M181.949 35.3232L179.93 40.4874L179.664 61.6925L186.609 61.7862L186.561 65.6168L190.47 65.6696L194.203 61.8887L199.863 61.9651L207.557 54.1745L207.789 35.6719L181.949 35.3232ZM204.96 52.7793L200.576 57.2194L193.614 57.1254L189.88 60.9236L189.928 57.093L184.065 57.0138L184.302 38.0753L205.138 38.3565L204.96 52.7793ZM200.748 43.4713L200.649 51.3575L198.046 51.3224L198.144 43.4535L200.748 43.4713ZM193.803 43.3776L193.704 51.2638L191.1 51.2286L191.199 43.3598L193.803 43.3776Z" fill="#242153"/>
<path d="M145.6 233.688L145.618 219.751L145.623 219.343L145.853 32.3199C145.856 32.0915 145.859 31.8666 145.842 31.6276C145.793 30.1326 145.571 28.6492 145.182 27.2094C145.15 27.0947 145.121 26.9836 145.089 26.8621C145.058 26.7405 145.025 26.6501 144.99 26.5423C144.955 26.4345 144.907 26.2747 144.862 26.1426C144.817 26.0104 144.794 25.9513 144.762 25.854C144.73 25.7566 144.663 25.5757 144.611 25.4366L144.505 25.1652C144.45 25.0226 144.392 24.8834 144.333 24.7441L144.22 24.4865C144.157 24.3472 144.094 24.2079 144.029 24.0686L143.909 23.8178C143.842 23.6807 143.772 23.5437 143.701 23.4066L143.574 23.1626C143.499 23.0266 143.424 22.8906 143.349 22.7581L143.216 22.5244C143.134 22.3883 143.053 22.2523 142.968 22.1196L142.83 21.9412C142.739 21.7981 142.644 21.6584 142.549 21.5187L142.428 21.3405C142.291 21.1426 142.149 20.948 142.002 20.7568C140.189 18.3538 137.849 16.4368 135.178 15.1658C132.506 13.8948 129.581 13.3069 126.646 13.4511L35.3504 17.798C33.2379 17.8959 31.1572 18.37 29.199 19.1997C15.9018 23.2322 2.97561 32.2016 3.0747 48.7324L4.08565 241.915C4.16854 257.878 16.8867 270.814 31.8118 273.719C34.8444 274.681 38.0645 274.814 41.1609 274.104L131.196 253.723C135.254 252.823 138.895 250.508 141.514 247.163C144.133 243.817 145.573 239.642 145.596 235.329L145.6 233.688Z" fill="url(#paint0_linear)"/>
<path d="M4.5922 51.1997L5.55555 242.337C5.64528 260.144 21.4534 274.164 38.3568 274.392L33.9725 20.9323L33.3044 21.0998C19.2715 24.5825 4.50415 33.5235 4.5922 51.1997Z" fill="#535461"/>
<path opacity="0.1" d="M4.5922 51.1997L5.55555 242.337C5.64528 260.144 21.4534 274.164 38.3568 274.392L33.9725 20.9323L33.3044 21.0998C19.2715 24.5825 4.50415 33.5235 4.5922 51.1997Z" fill="#002F63"/>
<path d="M144.041 235.799C144.031 240.045 142.629 244.161 140.067 247.469C137.505 250.777 133.936 253.079 129.947 253.997L41.8326 274.179C39.2159 274.779 36.5032 274.762 33.8934 274.131C31.2836 273.499 28.8429 272.269 26.7502 270.53C24.6575 268.79 22.9659 266.586 21.7995 264.079C20.633 261.572 20.0212 258.825 20.009 256.04L19.9417 240.16L19.9437 240.001L19.7239 191.133L19.0628 42.2858L19.0468 39.3127C19.0269 34.4979 20.7978 29.8612 23.9895 26.3713C27.1812 22.8813 31.547 20.8081 36.1746 20.5848L125.529 16.2706C130.251 16.0385 134.87 17.7526 138.383 21.0402C141.896 24.3278 144.018 28.9234 144.289 33.8285C144.315 34.1923 144.323 34.5662 144.322 34.9399L144.07 219.99L144.058 220.945L144.042 234.183L144.041 235.799Z" fill="#242153"/>
<path opacity="0.1" d="M144.041 235.799C144.031 240.045 142.629 244.161 140.067 247.469C137.505 250.777 133.936 253.079 129.947 253.997L41.8326 274.179C39.2159 274.779 36.5032 274.762 33.8934 274.131C31.2836 273.499 28.8429 272.269 26.7502 270.53C24.6575 268.79 22.9659 266.586 21.7995 264.079C20.633 261.572 20.0212 258.825 20.009 256.04L19.9417 240.16L19.9437 240.001L19.7239 191.133L19.0628 42.2858L19.0468 39.3127C19.0269 34.4979 20.7978 29.8612 23.9895 26.3713C27.1812 22.8813 31.547 20.8081 36.1746 20.5848L125.529 16.2706C130.251 16.0385 134.87 17.7526 138.383 21.0402C141.896 24.3278 144.018 28.9234 144.289 33.8285C144.315 34.1923 144.323 34.5662 144.322 34.9399L144.07 219.99L144.058 220.945L144.042 234.183L144.041 235.799Z" fill="#002F63"/>
<path d="M144.045 234.183L63.9481 241.952L60.4821 29.714L140.553 23.4783C143.008 26.7567 144.334 30.7961 144.319 34.9503L144.045 234.183Z" fill="#17202A"/>
<path d="M144.061 220.945L19.9403 240.001L19.7205 191.136L63.035 185.709L144.061 220.945Z" fill="#242153"/>
<path opacity="0.1" d="M144.061 220.945L19.9403 240.001L19.7205 191.136L63.035 185.709L144.061 220.945Z" fill="white"/>
<path d="M144.041 235.799C144.031 240.045 142.629 244.161 140.067 247.469C137.505 250.777 133.936 253.079 129.947 253.997L41.8326 274.179C39.2159 274.779 36.5031 274.762 33.8933 274.131C31.2835 273.499 28.8428 272.269 26.7502 270.53C24.6575 268.79 22.9659 266.586 21.7994 264.079C20.633 261.572 20.0212 258.825 20.009 256.04L19.9417 240.16L144.07 219.986L144.058 220.942L144.042 234.179L144.041 235.799Z" fill="#535461"/>
<path d="M144.283 33.8284L19.0595 42.2858L19.0435 39.3126C19.0236 34.4978 20.7945 29.8611 23.9862 26.3712C27.1779 22.8813 31.5437 20.8081 36.1713 20.5847L125.529 16.2706C130.251 16.0385 134.87 17.7526 138.383 21.0402C141.896 24.3278 144.018 28.9234 144.289 33.8285L144.283 33.8284Z" fill="#535461"/>
<path d="M87.8695 256.392C92.7074 256.457 96.6803 252.434 96.7434 247.406C96.8064 242.378 92.9357 238.248 88.0978 238.183C83.26 238.118 79.287 242.141 79.224 247.169C79.1609 252.197 83.0317 256.326 87.8695 256.392Z" fill="white"/>
<path d="M93.7945 28.4505L78.892 29.0523L78.9034 28.1422L93.8059 27.5404L93.7945 28.4505Z" fill="white"/>
<path d="M14.0671 65.4518C14.0863 63.9229 12.9093 62.6674 11.4383 62.6475C9.96728 62.6277 8.75924 63.851 8.74007 65.3799L8.58439 77.7956C8.56522 79.3245 9.74218 80.58 11.2132 80.5999C12.6842 80.6197 13.8923 79.3964 13.9115 77.8675L14.0671 65.4518Z" fill="white"/>
<path d="M74.9385 29.9091C75.4221 29.9157 75.8192 29.5135 75.8255 29.0109C75.8318 28.5083 75.4449 28.0955 74.9613 28.089C74.4777 28.0825 74.0806 28.4846 74.0743 28.9873C74.068 29.4899 74.4549 29.9026 74.9385 29.9091Z" fill="white"/>
<path d="M27.6233 91.2215C27.824 91.726 28.1235 92.1816 28.5029 92.5591C28.8823 92.9367 29.3332 93.2279 29.8269 93.4144C30.2678 93.5691 30.7333 93.6273 31.1813 93.7476C33.3218 94.3337 34.8125 96.285 36.7635 97.3773C36.9189 97.4798 37.097 97.5394 37.2808 97.5504L37.3474 97.5513C37.3883 97.556 37.4295 97.5566 37.4706 97.553C37.6724 97.5334 37.8643 97.453 38.0229 97.3217L38.1103 97.2536C38.3124 98.1628 38.3334 99.1053 38.1722 100.023C37.3931 100.013 32.345 100.266 32.9565 106.47C33.6216 113.186 40.985 122.678 40.985 122.678C40.985 122.678 46.1525 128.306 44.2299 147.257L43.9281 156.452C43.9281 156.452 45.9297 156.164 48.514 155.884C48.5723 156.007 48.6319 156.123 48.6927 156.233C49.4086 157.572 50.3265 158.783 51.4116 159.82L55.5381 170.394C55.5381 170.394 55.8956 171.091 56.4216 172.171C56.4436 174.4 55.0874 176.33 55.0874 176.33C46.8258 178.71 43.3468 187.672 43.3468 187.672C43.3468 187.672 38.6494 190.502 37.6102 193.71C35.6285 195.335 35.7052 199.838 35.7052 199.838C35.7052 199.838 42.579 203.766 47.6166 205.941C48.1997 206.194 48.8085 206.376 49.4313 206.485L48.2755 208.892C47.0981 209.316 46.936 215.336 46.936 215.336C46.936 215.336 59.1661 224.7 62.8978 225.328C66.6295 225.957 69.8461 223.314 65.9448 221.344C62.8012 219.758 59.3459 213.814 58.1223 211.548C59.7151 209.337 64.7466 202.172 65.0993 199.276C65.5252 195.849 70.2224 193.036 70.2224 193.036C77.0482 185.653 72.6707 176.775 72.169 172.169C72.1701 172.082 72.148 171.985 72.1327 171.881C71.7456 169.883 71.2421 167.911 70.625 165.977C71.4213 161.163 72.1117 153.638 72.507 148.67C73.9856 149.188 75.4333 149.793 75.4333 149.793C78.2356 144.068 69.2573 120.222 66.6696 113.611C68.2344 113.096 70.9286 112.284 74.7918 111.451C81.3567 110.006 81.7761 106.561 81.7761 106.561L87.0047 92.4418C86.5727 92.6367 85.9136 92.6174 85.143 92.4686C85.1444 92.3509 85.146 92.2229 85.1478 92.0845C85.2046 90.7389 85.3547 88.5917 85.7392 88.2058C85.7392 88.2058 84.4973 88.189 82.9908 88.0303L82.9932 87.8399L83.7679 79.1738C83.7679 79.1738 82.9525 69.5794 79.7561 70.8757C77.1889 71.9174 77.4239 80.5349 77.6149 83.8911C77.6666 84.7437 77.8983 85.574 78.2937 86.3229L78.5018 86.7203L78.6449 86.9922C78.506 86.9211 78.3724 86.8395 78.245 86.748L78.2078 89.717C77.8571 89.5357 77.6487 89.4256 77.6487 89.4256C77.7943 92.6878 73.7286 103.563 73.7286 103.563C73.7286 103.563 66.8163 102.701 64.5531 104.207C62.8942 105.309 60.7705 103.118 59.7574 101.855L64.7188 90.985C64.138 90.8703 63.5649 90.7169 63.003 90.5258C63.0246 90.3946 63.053 90.2531 63.0782 90.108C63.3419 88.7272 63.8055 86.8092 64.4012 86.575C63.5489 86.0772 62.6642 85.642 61.7535 85.2725C61.7749 85.162 61.7997 85.0447 61.8278 84.9274C62.2014 83.0151 62.8027 78.8805 61.7232 76.0071C60.2764 72.1529 59.8074 64.6709 56.9791 66.3597C54.7343 67.7138 54.5279 75.9446 54.5359 79.2915C54.5374 80.1982 54.7453 81.0916 55.1425 81.8988L56.1979 84.0416L56.3441 84.3377L56.1939 84.3634L56.161 86.9829C55.6922 86.6651 55.4183 86.4641 55.4183 86.4641C55.2789 90.1481 52.8701 95.0267 50.5265 98.9475L49.3722 98.0597L49.0885 97.8413C49.0862 97.8033 49.0867 97.7651 49.09 97.7271C49.09 97.7271 48.6123 97.5788 47.8552 97.4094C46.9363 95.5384 46.4384 93.289 46.1687 91.4234C46.1412 91.2292 46.1169 91.0385 46.0926 90.8548C46.5406 89.8638 46.7812 88.7853 46.7983 87.6906C46.8113 85.8179 46.1833 84.0013 45.0264 82.5655C43.8695 81.1298 42.2592 80.1683 40.483 79.8528C40.7161 79.5895 40.8203 79.5113 40.8869 79.5122L40.9368 79.5129C41.2355 79.5353 41.5332 79.4568 41.7854 79.289C42.3819 78.9959 43.0567 78.5586 43.0618 77.8838C43.068 77.3889 42.6936 76.9755 42.2975 76.6898C41.3404 76.0055 41.3217 74.8458 40.4281 74.9341C40.2557 74.9161 40.0816 74.9373 39.9179 74.9964C39.092 75.2656 38.3694 75.7923 37.5728 76.1207C37.0096 76.3504 36.414 76.4827 35.8097 76.5122C35.4239 76.5064 35.0383 76.5324 34.6565 76.5901C34.3509 76.6657 34.0568 76.7853 33.7829 76.9452C32.0796 77.8809 30.1135 79.3183 29.5471 81.2038C29.0154 82.9756 29.6923 85.2932 28.3644 86.5558C28.1206 86.7481 27.8949 86.9641 27.6903 87.2008C27.5189 87.4619 27.4017 87.7574 27.3465 88.0683C27.123 89.1239 27.2197 90.2255 27.6233 91.2215V91.2215ZM60.6808 183.843C60.7392 184.761 60.5646 185.409 60.0458 185.614C57.2247 186.724 53.9063 197.222 53.9063 197.222L51.7216 201.757C50.0505 200.412 48.4532 198.97 46.9373 197.439L47.1877 195.792C47.1877 195.792 53.2383 191.274 53.6214 189.936C53.9313 188.857 58.8156 185.202 60.6808 183.843Z" fill="url(#paint1_linear)"/>
<path d="M65.7391 112.398C65.7391 112.398 78.0738 143.166 74.9046 149.734C74.9046 149.734 69.8433 147.589 69.1094 147.956C68.3756 148.323 61.6138 108.376 61.6138 108.376L65.7391 112.398Z" fill="#C4C8E2"/>
<path opacity="0.05" d="M65.7391 112.398C65.7391 112.398 78.0738 143.166 74.9046 149.734C74.9046 149.734 69.8433 147.589 69.1094 147.956C68.3756 148.323 61.6138 108.376 61.6138 108.376L65.7391 112.398Z" fill="#002F63"/>
<path d="M57.612 209.759C57.612 209.759 61.8669 218.316 65.6588 220.25C69.4507 222.184 66.3278 224.793 62.7025 224.177C59.0772 223.56 47.1951 214.332 47.1951 214.332C47.1951 214.332 47.3527 208.399 48.4968 207.981C49.6409 207.564 57.612 209.759 57.612 209.759Z" fill="#4C495A"/>
<path d="M46.335 195.815C46.335 195.815 52.4339 202.321 55.1502 202.921C57.8666 203.522 52.7319 207.232 47.8537 205.09C42.9755 202.947 36.2974 199.088 36.2974 199.088C36.2974 199.088 36.19 193.041 39.2868 192.518C42.3836 191.996 46.335 195.815 46.335 195.815Z" fill="#4C495A"/>
<path d="M72.4333 143.654C72.4333 143.654 70.8859 166.676 69.1809 169.868C67.4759 173.061 61.2034 182.795 61.2034 182.795C61.2034 182.795 54.0487 187.986 53.6693 189.303C53.2898 190.62 47.4363 195.085 47.4363 195.085L47.0403 197.724C47.0403 197.724 37.4154 197.027 38.004 193.636C38.5926 190.245 43.7206 187.075 43.7206 187.075C43.7206 187.075 47.0979 178.257 55.1192 175.912C55.1192 175.912 57.7103 172.167 55.5674 169.117C55.5674 169.117 50.2947 154.88 47.2264 153.136C44.158 151.392 48.6426 141.634 48.6426 141.634L72.4333 143.654Z" fill="#5F5D7E"/>
<path opacity="0.05" d="M72.4333 143.654C72.4333 143.654 70.8859 166.676 69.1809 169.868C67.4759 173.061 61.2034 182.795 61.2034 182.795C61.2034 182.795 54.0487 187.986 53.6693 189.303C53.2898 190.62 47.4363 195.085 47.4363 195.085L47.0403 197.724C47.0403 197.724 37.4154 197.027 38.004 193.636C38.5926 190.245 43.7206 187.075 43.7206 187.075C43.7206 187.075 47.0979 178.257 55.1192 175.912C55.1192 175.912 57.7103 172.167 55.5674 169.117C55.5674 169.117 50.2947 154.88 47.2264 153.136C44.158 151.392 48.6426 141.634 48.6426 141.634L72.4333 143.654Z" fill="#002F63"/>
<path d="M53.9623 196.485L47.9871 209.061C48.8558 212.285 57.5931 211.268 57.5931 211.268C57.5931 211.268 64.4502 201.915 64.8258 198.522C65.2013 195.128 69.8114 192.359 69.8114 192.359C76.4461 185.08 72.1935 176.336 71.7043 171.796C71.7054 171.709 71.6832 171.615 71.6678 171.515C71.2232 168.47 68.393 159.683 66.1878 153.098C64.7017 148.665 63.4959 145.233 63.4959 145.233C63.4959 145.233 51.3132 145.636 48.7127 150.135C47.5213 152.195 48.017 154.361 48.9008 156.107C49.5946 157.425 50.4869 158.618 51.5438 159.642L55.5521 170.079C55.5521 170.079 62.6474 183.963 59.9063 185.061C57.1653 186.16 53.9623 196.485 53.9623 196.485Z" fill="#5F5D7E"/>
<path d="M77.0642 84.7939C77.1115 85.639 77.3364 86.4631 77.7232 87.2081L77.9248 87.5985L78.9261 89.5328L82.1956 89.5769L82.2767 88.6851L83.0498 80.1436C83.0498 80.1436 82.2593 70.688 79.1564 71.9682C76.656 72.9935 76.8792 81.4827 77.0642 84.7939Z" fill="#FDC2CC"/>
<path opacity="0.1" d="M77.9281 87.5985L78.9295 89.5329L82.1989 89.577L82.2801 88.6852C80.7603 88.5228 78.9493 88.2214 77.9281 87.5985Z" fill="#002F63"/>
<path d="M77.6813 87.6264L77.6268 91.9691L84.3252 93.9492C84.3252 93.9492 84.3309 93.4993 84.3554 92.8663C84.4087 91.5415 84.5553 89.4081 84.9295 89.0463C84.9328 89.0463 79.4792 88.9727 77.6813 87.6264Z" fill="#EAEAF3"/>
<path opacity="0.1" d="M77.6494 90.1732L77.6269 91.9691L84.3253 93.9492C84.3253 93.9492 84.3309 93.4993 84.3555 92.8663C82.14 92.4176 78.9132 90.8305 77.6494 90.1732Z" fill="#002F63"/>
<path d="M38.3423 96.8103C39.6242 100.811 37.8704 102.577 37.8704 102.577C37.8704 102.577 54.2103 103.929 50.2496 100.854C47.9411 99.0579 46.9511 95.151 46.5351 92.214C46.357 90.992 46.2534 89.7595 46.2251 88.5239C46.2251 88.5239 33.1596 88.1468 35.8223 91.9725C36.8935 93.4429 37.7432 95.0742 38.3423 96.8103V96.8103Z" fill="#FDC2CC"/>
<path opacity="0.1" d="M35.8256 91.9725C37.134 93.8522 37.5667 94.1314 37.996 95.4835C38.4042 95.5613 38.8181 95.6028 39.2332 95.6075C42.3495 95.6496 45.391 95.0226 46.5384 92.214C46.3591 90.9921 46.2545 89.7596 46.225 88.5239C46.225 88.5239 33.1596 88.1468 35.8256 91.9725Z" fill="#002F63"/>
<path d="M39.5856 96.1798C43.7008 96.2354 47.0803 92.8132 47.134 88.5361C47.1876 84.2591 43.895 80.7468 39.7798 80.6913C35.6646 80.6357 32.2851 84.0579 32.2315 88.335C32.1779 92.612 35.4704 96.1243 39.5856 96.1798Z" fill="#FDC2CC"/>
<path d="M77.1019 90.2731C77.1019 90.2731 84.1429 94.1475 86.1523 93.2298L81.0696 107.14C81.0696 107.14 80.664 110.533 74.2859 111.959C67.9078 113.386 64.8015 114.666 64.8015 114.666L53.171 99.973L59.1426 101.753C59.1426 101.753 62.1755 106.328 64.3752 104.845C66.5749 103.362 73.2875 104.211 73.2875 104.211C73.2875 104.211 77.2449 93.4764 77.1019 90.2731Z" fill="#C4C8E2"/>
<path opacity="0.05" d="M77.1019 90.2731C77.1019 90.2731 84.1429 94.1475 86.1523 93.2298L81.0696 107.14C81.0696 107.14 80.664 110.533 74.2859 111.959C67.9078 113.386 64.8015 114.666 64.8015 114.666L53.171 99.973L59.1426 101.753C59.1426 101.753 62.1755 106.328 64.3752 104.845C66.5749 103.362 73.2875 104.211 73.2875 104.211C73.2875 104.211 77.2449 93.4764 77.1019 90.2731Z" fill="#002F63"/>
<path opacity="0.1" d="M49.3696 98.8038C49.3696 98.8038 39.8 95.8193 38.7214 101.11C38.7214 101.11 43.1877 98.9211 49.5003 102.986C49.9727 103.29 50.4348 103.615 50.8868 103.953C56.4324 108.105 60.2621 114.463 61.7437 121.65L65.5572 140.187L65.8712 145.151C65.8712 145.151 71.6728 146.423 72.7839 144.649C73.8951 142.874 73.244 136.899 71.6342 134.891C70.0244 132.882 67.5878 124.304 67.5878 124.304L66.0585 119.324C64.7773 115.133 62.707 111.249 59.9681 107.897V107.897L59.5913 107.411C57.2354 104.393 54.2302 101.994 50.818 100.405C49.9011 99.9669 49.2352 99.4284 49.3696 98.8038Z" fill="#002F63"/>
<path d="M49.3742 98.4266C49.3742 98.4266 39.8047 95.4422 38.726 100.733C38.726 100.733 43.1923 98.5439 49.5049 102.609C49.9773 102.913 50.4394 103.238 50.8914 103.576C56.437 107.728 60.2667 114.086 61.7483 121.273L65.5619 139.806L65.8625 144.78C65.8625 144.78 71.664 146.052 72.7751 144.278C73.8863 142.504 73.2353 136.528 71.6254 134.52C70.0156 132.512 67.5791 123.927 67.5791 123.927L66.0499 118.947C64.773 114.756 62.7073 110.87 59.9728 107.516V107.516L59.5959 107.03C57.2401 104.013 54.2349 101.613 50.8227 100.024C49.9057 99.5967 49.2399 99.0512 49.3742 98.4266Z" fill="#EAEAF3"/>
<path opacity="0.1" d="M73.0552 136.824L72.9345 140.075L70.4121 138.342C70.4121 138.342 66.0957 121.142 62.9612 116.437C62.5919 115.882 62.4193 115.046 62.0713 114.913L49.25 101.706L49.2878 98.685C49.2878 98.685 55.8561 103.875 56.3903 104.827C56.6183 105.232 60.076 107.258 62.1381 110.383C63.9826 113.263 65.6145 116.284 67.0197 119.42L71.2471 129.649L73.0552 136.824Z" fill="#002F63"/>
<path d="M49.2837 98.4807L49.247 101.408L62.2569 114.711C62.6048 114.854 62.7775 115.68 63.1469 116.236C66.2812 120.954 70.5978 138.14 70.5978 138.14L73.1201 139.874L73.2408 136.622L71.4325 129.461L67.1988 119.211C65.7936 116.075 64.1617 113.054 62.3171 110.175C60.2586 107.032 56.7973 105.023 56.5693 104.618C56.1101 103.799 51.035 99.8299 49.65 98.7487L49.2837 98.4807Z" fill="#D39999"/>
<path d="M79.5976 54.0325L61.0661 53.7824C59.0122 53.7547 57.3255 55.4627 57.2987 57.5974L57.0572 76.8578C57.0304 78.9925 58.6738 80.7455 60.7277 80.7733L79.2592 81.0234C81.3131 81.0511 82.9998 79.343 83.0266 77.2083L83.2681 57.948C83.2949 55.8133 81.6515 54.0603 79.5976 54.0325Z" fill="#242153"/>
<path opacity="0.1" d="M79.5976 54.0325L61.0661 53.7824C59.0122 53.7547 57.3255 55.4627 57.2987 57.5974L57.0572 76.8578C57.0304 78.9925 58.6738 80.7455 60.7277 80.7733L79.2592 81.0234C81.3131 81.0511 82.9998 79.343 83.0266 77.2083L83.2681 57.948C83.2949 55.8133 81.6515 54.0603 79.5976 54.0325Z" fill="white"/>
<path opacity="0.2" d="M70.237 61.7453C69.1597 61.7307 68.1024 62.0485 67.1989 62.6585C66.2953 63.2685 65.5861 64.1432 65.1609 65.1721C64.7356 66.2009 64.6135 67.3377 64.8099 68.4387C65.0063 69.5397 65.5124 70.5555 66.2643 71.3575C67.0161 72.1595 67.9799 72.7117 69.0338 72.9444C70.0876 73.1771 71.1842 73.0798 72.1849 72.6648C73.1855 72.2497 74.0453 71.5356 74.6555 70.6127C75.2657 69.6898 75.5989 68.5996 75.6129 67.4799C75.6236 66.7361 75.4928 65.9975 75.2282 65.3063C74.9635 64.6152 74.5702 63.9851 74.0707 63.4523C73.5713 62.9196 72.9755 62.4945 72.3176 62.2016C71.6598 61.9086 70.9527 61.7535 70.237 61.7453V61.7453ZM70.1199 71.0882C69.4199 71.0788 68.7383 70.8538 68.1614 70.4418C67.5844 70.0297 67.138 69.4491 66.8786 68.7734C66.6191 68.0976 66.5583 67.3571 66.7038 66.6454C66.8493 65.9337 67.1946 65.2828 67.696 64.7751C68.1974 64.2673 68.8324 63.9255 69.5207 63.7929C70.2091 63.6602 70.9198 63.7426 71.563 64.0298C72.2062 64.3169 72.753 64.7958 73.1343 65.406C73.5156 66.0161 73.7143 66.7301 73.7051 67.4576C73.6912 68.4326 73.306 69.3621 72.634 70.0426C71.962 70.7231 71.058 71.0991 70.1199 71.0882V71.0882ZM77.1784 61.6105C77.1751 61.872 77.0973 62.1265 76.9548 62.342C76.8123 62.5575 76.6116 62.7242 76.3779 62.8212C76.1443 62.9181 75.8882 62.9408 75.6421 62.8865C75.3961 62.8321 75.171 62.7032 74.9955 62.5159C74.8199 62.3286 74.7018 62.0915 74.6559 61.8344C74.61 61.5773 74.6386 61.3119 74.7378 61.0716C74.8371 60.8314 75.0027 60.6272 75.2137 60.4847C75.4247 60.3423 75.6715 60.2681 75.9231 60.2715C76.0902 60.2728 76.2555 60.3085 76.4093 60.3764C76.5632 60.4444 76.7026 60.5432 76.8196 60.6674C76.9365 60.7915 77.0287 60.9384 77.0909 61.0997C77.153 61.2609 77.1839 61.4334 77.1817 61.6071L77.1784 61.6105ZM80.7709 62.9811C80.7131 61.2118 80.3432 59.639 79.1142 58.3314C77.8852 57.0239 76.3854 56.5987 74.6852 56.4893C72.9319 56.3618 67.6747 56.2908 65.9221 56.371C64.2231 56.4311 62.7131 56.8157 61.4484 58.0895C60.1837 59.3634 59.7812 60.9258 59.6758 62.6929C59.553 64.5152 59.4845 69.9791 59.5616 71.8006C59.6193 73.5699 59.9892 75.1427 61.2182 76.4502C62.4472 77.7577 63.947 78.1829 65.6473 78.2924C67.4006 78.4199 72.6577 78.4908 74.4103 78.4107C76.1127 78.3506 77.626 77.9661 78.8841 76.6887C80.1422 75.4112 80.5513 73.8524 80.6567 72.0853C80.7795 70.263 80.8477 64.8199 80.7709 62.9811V62.9811ZM78.3747 74.0238C78.1884 74.4958 77.9109 74.923 77.5593 75.279C77.2077 75.6351 76.7896 75.9123 76.3308 76.0935C74.9252 76.6525 71.6074 76.4728 70.0626 76.4519C68.5177 76.4311 65.1934 76.5143 63.8055 75.9245C63.3514 75.7309 62.9403 75.4425 62.5978 75.0771C62.2553 74.7117 61.9886 74.2771 61.8142 73.8003C61.2764 72.3394 61.4495 68.8912 61.4696 67.2856C61.4898 65.68 61.4099 62.2249 61.9774 60.7824C62.1637 60.3104 62.4412 59.8831 62.7928 59.5271C63.1443 59.1711 63.5625 58.8939 64.0213 58.7126C65.4269 58.1536 68.7447 58.3334 70.2895 58.3542C71.8344 58.3751 75.1587 58.2919 76.5466 58.8817C77.0007 59.0753 77.4118 59.3637 77.7543 59.7291C78.0968 60.0944 78.3635 60.529 78.5379 61.0059C79.0757 62.4668 78.9026 65.915 78.8825 67.5206C78.8623 69.1262 78.9389 72.5813 78.3747 74.0238Z" fill="#002F63"/>
<path opacity="0.1" d="M42.2696 80.2473C42.8493 79.9609 43.5041 79.5267 43.5091 78.8623C43.4824 78.6206 43.401 78.389 43.2716 78.1863C43.1422 77.9836 42.9684 77.8157 42.7645 77.6963C41.7349 76.9487 41.8317 75.6071 40.6344 76.0167C39.8319 76.2827 39.1294 76.7993 38.3461 77.1244C37.7997 77.3515 37.2208 77.4828 36.633 77.5132C36.2572 77.5078 35.8815 77.5339 35.5098 77.5915C35.2128 77.6612 34.9267 77.7738 34.6598 77.9261C32.9901 78.8664 31.7387 80.4461 31.1714 82.3298C30.6566 84.0775 30.6805 86.1544 29.3929 87.3968C29.1607 87.5872 28.9462 87.7999 28.7522 88.0319C28.5816 88.2897 28.4646 88.5816 28.4085 88.8891C28.1665 89.9328 28.24 91.0287 28.6189 92.0275C28.8116 92.5226 29.1015 92.9704 29.4701 93.3425C29.8387 93.7146 30.2779 94.0026 30.7596 94.1884C31.1873 94.3395 31.6394 94.3975 32.0875 94.5178C34.1682 95.0927 35.6225 97.0158 37.5104 98.0935C37.6613 98.1953 37.8349 98.2549 38.0144 98.2664C38.2107 98.247 38.3971 98.1676 38.5501 98.0383C39.2927 97.5015 39.8992 96.6721 39.9111 95.724C39.8592 95.1359 39.7014 94.5632 39.4461 94.0357C39.0606 93.0497 38.7689 92.0268 38.5753 90.9817C38.5121 90.7408 38.5084 90.4872 38.5646 90.2444C38.7068 89.7895 39.1989 89.5815 39.5426 89.2608C40.1963 88.6467 40.2861 87.5958 40.0574 86.7136C39.8287 85.8314 39.3423 85.0496 38.9798 84.2176C38.8545 83.9667 38.7829 83.6907 38.7702 83.4083C38.784 82.3045 40.2265 81.7252 40.8415 81.0136C41.6697 80.028 41.1404 80.81 42.2696 80.2473Z" fill="#002F63"/>
<path d="M42.0866 80.2448C42.6662 79.9585 43.321 79.5243 43.326 78.8599C43.3009 78.6164 43.2202 78.3826 43.0907 78.178C42.9613 77.9734 42.7867 77.8039 42.5815 77.6835C41.552 76.9358 41.6487 75.5943 40.4514 76.0038C39.6489 76.2699 38.9465 76.7865 38.1632 77.1116C37.6167 77.3386 37.0378 77.47 36.45 77.5003C36.0735 77.5195 34.8691 76.9079 34.5017 76.9895C34.2048 77.0592 33.9186 77.1719 33.6517 77.3241C31.982 78.2645 30.7306 79.8442 30.1633 81.7278C29.6486 83.4756 29.964 85.6706 28.6766 86.8992C28.4608 87.1074 28.7424 87.7549 28.5662 88.0017C28.3956 88.2595 28.2785 88.5515 28.2224 88.8589C27.9805 89.9026 28.0539 90.9985 28.4328 91.9973C28.6255 92.4924 28.9154 92.9402 29.284 93.3123C29.6526 93.6844 30.0918 93.9724 30.5735 94.1582C31.0012 94.3093 31.4534 94.3673 31.9014 94.4876C33.9821 95.0625 35.4365 96.9856 37.3244 98.0632C37.4752 98.1651 37.6488 98.2247 37.8284 98.2362C38.0247 98.2168 38.2111 98.1374 38.364 98.0081C39.1067 97.4713 39.7131 96.6419 39.725 95.6938C39.6731 95.1057 39.5153 94.533 39.26 94.0055C38.8745 93.0195 38.5829 91.9966 38.3892 90.9515C38.3261 90.7106 38.3224 90.457 38.3785 90.2142C38.5207 89.7593 39.0128 89.5513 39.3565 89.2306C40.0102 88.6165 40.1 87.5656 39.8713 86.6834C39.6426 85.8012 39.1563 85.0194 38.7937 84.1874C38.6684 83.9366 38.5969 83.6605 38.5841 83.3781C38.5979 82.2743 40.0404 81.695 40.6554 80.9834C41.4866 80.0256 40.9573 80.8075 42.0866 80.2448Z" fill="#865A61"/>
<path opacity="0.1" d="M48.9141 156.107C52.2487 155.744 56.4488 155.399 58.2893 155.743C61.2494 156.295 65.4456 153.603 66.2012 153.098C64.715 148.665 63.5093 145.233 63.5093 145.233C63.5093 145.233 51.3265 145.636 48.726 150.135C47.5346 152.195 48.0303 154.362 48.9141 156.107Z" fill="#002F63"/>
<path d="M33.6352 107.053C34.2781 113.673 41.4268 123.027 41.4268 123.027C41.4268 123.027 46.4455 128.573 44.5763 147.248L44.2795 156.311C44.2795 156.311 55.0215 154.757 58.2772 155.369C61.5329 155.98 66.3033 152.642 66.3033 152.642C66.3033 152.642 68.5309 119.994 60.8053 113.089C59.8608 111.535 58.8311 110.039 57.7214 108.607C55.6569 105.939 52.8409 102.928 50.1832 102.158C49.841 102.056 49.4888 101.995 49.1333 101.974C49.1333 101.974 41.0154 97.144 38.7897 100.703C38.803 100.7 32.9922 100.434 33.6352 107.053Z" fill="#C4C8E2"/>
<path opacity="0.1" d="M66.3577 142.734C66.3577 142.734 63.4677 141.373 58.5554 141.684C53.6432 141.995 44.9569 137.348 44.9569 137.348" fill="#002F63"/>
<path opacity="0.05" d="M60.5593 184.769C60.5593 184.769 60.3691 185.334 62.7235 186.12C65.0779 186.907 65.7942 187.674 65.7942 187.674" fill="#002F63"/>
<path d="M54.6536 80.2587C54.6553 81.1511 54.8575 82.0309 55.2441 82.8277L56.2599 84.9388L56.9675 86.4019L61.5041 86.8404C61.5041 86.8404 61.6022 86.4541 61.7269 85.8051C62.0835 83.9203 62.6774 79.8478 61.6273 77.013C60.2198 73.2146 59.7694 65.8437 57.0213 67.5059C54.8535 68.8333 54.6484 76.9603 54.6536 80.2587Z" fill="#FDC2CC"/>
<path opacity="0.1" d="M56.2607 84.88L56.26 84.9388L56.9676 86.4019L61.5042 86.8404C61.5042 86.8404 61.6022 86.4541 61.7269 85.8051C60.1203 85.1328 57.997 84.5054 56.2607 84.88Z" fill="#002F63"/>
<path d="M56.256 85.2571L56.2134 88.6552L62.7107 92.3319C62.7107 92.3319 62.7916 91.7169 62.9414 90.923C63.195 89.5593 63.6482 87.6688 64.2272 87.4413C64.2205 87.4447 59.5449 84.5471 56.256 85.2571Z" fill="#EAEAF3"/>
<path opacity="0.05" d="M38.1863 115.888C38.974 116.629 39.9005 117.192 40.9076 117.542C41.9147 117.892 42.9805 118.022 44.0382 117.923C55.5566 116.863 55.9225 112.643 55.9225 112.643L57.7414 108.604C55.677 105.935 52.8609 102.924 50.2033 102.155C48.2555 105.323 46.5386 107.605 46.5386 107.605C46.5386 107.605 38.0839 100.69 35.4597 107.078C33.9245 110.802 36.0998 113.926 38.1863 115.888Z" fill="#002F63"/>
<path opacity="0.1" d="M56.2299 87.3403L56.2133 88.6587L62.7106 92.3354C62.7106 92.3354 62.7916 91.7204 62.9414 90.9264C60.1432 89.9473 57.3754 88.131 56.2299 87.3403Z" fill="#002F63"/>
<path d="M55.5107 87.3271C55.5107 87.3271 60.3733 90.9817 64.5422 91.7925L55.756 111.318C55.756 111.318 55.3901 115.539 43.8717 116.598C42.8141 116.697 41.7482 116.567 40.7412 116.217C39.7341 115.867 38.8076 115.304 38.0198 114.564C35.9366 112.598 33.7547 109.471 35.2898 105.754C37.914 99.3656 46.3687 106.28 46.3687 106.28C46.3687 106.28 55.241 94.5015 55.5107 87.3271Z" fill="#C4C8E2"/>
<path opacity="0.2" d="M125.927 58.0531C125.924 58.2884 125.921 58.5202 125.918 58.7451C125.829 65.87 120.509 74.011 110.97 73.8823C108.146 73.8514 105.391 72.9729 103.037 71.3526C103.452 71.4054 103.869 71.433 104.288 71.4352C106.622 71.4733 108.9 70.6933 110.756 69.221C109.674 69.1859 108.63 68.8006 107.769 68.1188C106.908 67.4371 106.274 66.493 105.955 65.4183C106.278 65.4759 106.605 65.508 106.933 65.5146C107.393 65.5195 107.853 65.4641 108.3 65.3496C107.129 65.0868 106.081 64.4105 105.335 63.4358C104.589 62.4611 104.191 61.248 104.208 60.0026L104.209 59.9369C104.917 60.3639 105.713 60.6118 106.531 60.6604C105.44 59.8824 104.676 58.7012 104.394 57.3577C104.113 56.0142 104.335 54.6097 105.016 53.4308C106.298 55.1148 107.906 56.5 109.736 57.4966C111.566 58.4931 113.578 59.0788 115.64 59.2155C115.561 58.8083 115.523 58.3938 115.525 57.9784C115.536 56.8939 115.862 55.8381 116.459 54.9487C117.056 54.0592 117.897 53.3775 118.873 52.9923C119.848 52.6072 120.913 52.5366 121.927 52.7896C122.942 53.0427 123.86 53.6077 124.561 54.411C125.726 54.1945 126.845 53.7693 127.87 53.1543C127.467 54.3944 126.643 55.4391 125.552 56.0926C126.587 55.9858 127.601 55.7183 128.559 55.2991C127.837 56.3643 126.947 57.2954 125.927 58.0531Z" fill="#002F63"/>
<path opacity="0.2" d="M105.727 113.9L105.472 134.215C105.468 134.55 105.336 134.868 105.106 135.101C104.876 135.334 104.566 135.463 104.244 135.459L98.6408 135.383L98.7517 126.542L101.605 126.58L102.068 123.143L98.7815 123.099L98.8091 120.898C98.8216 119.898 99.0965 119.223 100.475 119.242L102.229 119.265L102.268 116.182C101.419 116.076 100.565 116.019 99.7096 116.009C97.1792 115.975 95.4211 117.557 95.3841 120.509L95.3522 123.052L92.4889 123.014L92.4455 126.474L95.3088 126.513L95.1979 135.357L84.6936 135.216C84.3725 135.21 84.0664 135.073 83.8423 134.834C83.6182 134.595 83.4942 134.273 83.4975 133.94L83.7525 113.603C83.7576 113.269 83.8896 112.951 84.1196 112.718C84.3496 112.485 84.6591 112.356 84.9802 112.36L104.531 112.624C104.852 112.629 105.158 112.766 105.382 113.005C105.606 113.244 105.73 113.566 105.727 113.9V113.9Z" fill="#002F63"/>
<path d="M214.466 83.3924C207.271 84.4962 206.772 84.5404 205.441 84.2534L204.027 83.9443L204.027 89.9928L204.027 96.0634L205.441 96.3725C206.813 96.6816 207.271 96.6375 213.468 95.7324C217.086 95.2246 220.662 94.7168 221.411 94.6287L222.742 94.4741L222.742 88.5359C222.742 85.2688 222.742 82.5315 222.783 82.4432C222.825 82.1342 222.035 82.2225 214.466 83.3924Z" fill="#493DF0"/>
<path d="M189.637 99.6617C189.513 99.8382 189.513 100.898 189.554 102.046L189.679 104.121L191.093 104.187C193.963 104.342 195.709 103.768 195.709 102.686C195.709 102.311 195.418 101.957 195.002 101.825C194.42 101.648 194.378 101.56 194.836 101.273C195.626 100.788 195.085 99.9486 193.838 99.6395C192.382 99.2863 189.928 99.3085 189.637 99.6617ZM193.838 100.699C193.838 101.185 193.63 101.251 192.299 101.317C190.802 101.384 190.719 101.361 190.719 100.699C190.719 100.037 190.802 100.015 192.299 100.081C193.63 100.147 193.838 100.214 193.838 100.699ZM194.42 102.421C195.085 103.083 194.212 103.569 192.382 103.569C190.76 103.569 190.719 103.547 190.719 102.796C190.719 102.046 190.76 102.024 192.382 102.024C193.505 102.024 194.129 102.134 194.42 102.421Z" fill="#493DF0"/>
<path d="M212.968 99.6617C212.553 100.191 212.927 104.121 213.384 104.077C213.634 104.055 213.883 103.701 214.008 103.304L214.216 102.576L215.464 103.392C217.419 104.695 218.209 104.342 216.295 103.017L215.297 102.311L216.295 101.803C218.25 100.832 217.335 100.567 215.297 101.494L214.008 102.068L214.008 100.832C214.008 99.6838 213.426 98.9994 212.968 99.6617Z" fill="#493DF0"/>
<path d="M225.404 99.6617C225.279 99.8382 225.279 100.898 225.32 102.046L225.445 104.121L227.316 104.187C229.604 104.253 231.143 103.856 231.642 103.061C231.974 102.598 231.891 102.377 231.392 102.112C230.935 101.869 230.81 101.516 230.935 100.92C231.101 100.236 230.976 100.037 230.186 99.7279C228.98 99.2864 225.736 99.2423 225.404 99.6617ZM229.562 100.169C229.936 100.236 230.228 100.479 230.228 100.699C230.228 101.163 229.437 101.361 227.691 101.361C226.609 101.361 226.485 101.273 226.485 100.699C226.485 100.125 226.609 100.037 227.691 100.037C228.356 100.037 229.188 100.103 229.562 100.169ZM230.519 102.377C230.976 102.995 230.061 103.459 228.19 103.525C226.485 103.591 226.485 103.591 226.485 102.818C226.485 102.024 226.485 102.024 228.356 102.024C229.729 102.024 230.311 102.134 230.519 102.377Z" fill="#493DF0"/>
<path d="M233.555 99.9266C233.555 100.103 233.846 100.258 234.179 100.258C234.511 100.258 234.802 100.103 234.802 99.9266C234.802 99.7501 234.511 99.5954 234.179 99.5954C233.846 99.5954 233.555 99.7501 233.555 99.9266Z" fill="#493DF0"/>
<path d="M198.08 101.295C196.749 102.112 197.165 103.569 198.828 103.966C200.326 104.342 200.825 104.297 202.114 103.768C203.486 103.194 203.611 102.024 202.363 101.361C201.324 100.81 198.995 100.788 198.08 101.295ZM201.781 101.913C202.779 102.73 202.031 103.569 200.326 103.569C198.412 103.569 197.498 102.421 198.87 101.715C199.826 101.207 200.991 101.295 201.781 101.913Z" fill="#493DF0"/>
<path d="M205.69 101.361C204.526 101.98 204.609 103.017 205.898 103.679C206.439 103.988 207.188 104.231 207.52 104.231C208.685 104.231 210.182 103.746 210.64 103.194C211.305 102.443 211.222 102.156 210.224 101.494C209.142 100.765 206.938 100.699 205.69 101.361ZM209.184 101.715C210.515 102.399 209.766 103.569 208.019 103.569C206.689 103.569 206.023 103.238 206.023 102.598C206.023 101.494 207.812 100.986 209.184 101.715Z" fill="#493DF0"/>
<path d="M219.415 101.251C218.541 101.803 219.124 102.333 220.995 102.664C223.199 103.017 223.033 103.481 220.704 103.414C218.791 103.37 218.458 103.679 220.08 104.011C221.619 104.32 222.243 104.275 223.158 103.79C224.28 103.194 223.698 102.598 221.702 102.245C220.912 102.112 220.247 101.891 220.247 101.781C220.247 101.428 221.494 101.295 222.576 101.538C223.366 101.737 223.573 101.737 223.573 101.494C223.573 100.876 220.288 100.677 219.415 101.251Z" fill="#493DF0"/>
<path d="M233.638 102.509C233.721 103.392 233.971 104.121 234.179 104.121C234.428 104.121 234.636 103.392 234.719 102.509C234.802 101.185 234.719 100.92 234.179 100.92C233.638 100.92 233.555 101.185 233.638 102.509Z" fill="#493DF0"/>
<path d="M237.339 101.494C236.341 102.156 236.299 102.421 236.882 103.216C237.422 103.988 239.044 104.386 240.417 104.055C241.041 103.9 241.498 103.878 241.664 104.032C242.205 104.474 242.704 103.944 242.704 102.885C242.704 101.56 241.706 100.92 239.627 100.92C238.587 100.92 237.963 101.074 237.339 101.494ZM240.957 101.626C241.249 101.781 241.456 102.156 241.456 102.465C241.456 103.15 240.749 103.569 239.585 103.569C238.462 103.569 237.714 103.171 237.714 102.554C237.714 101.604 239.793 101.008 240.957 101.626Z" fill="#493DF0"/>
<path d="M200.229 105.286C200.202 105.286 200.181 105.281 200.164 105.272C200.147 105.263 200.138 105.251 200.138 105.237L200.138 104.347C200.138 104.332 200.147 104.321 200.164 104.311C200.181 104.302 200.202 104.297 200.229 104.297L200.646 104.297C200.779 104.297 200.9 104.31 201.01 104.334C201.121 104.358 201.217 104.392 201.297 104.437C201.378 104.481 201.439 104.532 201.483 104.592C201.527 104.652 201.55 104.719 201.55 104.791C201.55 104.864 201.527 104.93 201.483 104.991C201.439 105.051 201.378 105.103 201.297 105.148C201.217 105.192 201.121 105.226 201.01 105.251C200.9 105.274 200.779 105.286 200.646 105.286L200.229 105.286ZM200.319 105.197L200.646 105.197C200.788 105.197 200.913 105.18 201.021 105.146C201.131 105.11 201.217 105.062 201.279 105.001C201.34 104.94 201.371 104.87 201.371 104.791C201.371 104.713 201.34 104.643 201.279 104.582C201.217 104.521 201.131 104.473 201.021 104.438C200.913 104.403 200.788 104.386 200.646 104.386L200.319 104.386L200.319 105.197ZM202.476 105.292C202.352 105.292 202.242 105.277 202.145 105.247C202.047 105.216 201.971 105.175 201.915 105.121C201.859 105.068 201.832 105.008 201.832 104.94C201.832 104.872 201.859 104.811 201.915 104.758C201.971 104.705 202.047 104.663 202.145 104.633C202.242 104.602 202.352 104.587 202.476 104.587C202.6 104.587 202.709 104.602 202.805 104.633C202.903 104.663 202.979 104.705 203.035 104.758C203.09 104.811 203.119 104.872 203.12 104.94C203.12 105.008 203.092 105.068 203.035 105.121C202.979 105.175 202.903 105.216 202.805 105.247C202.709 105.277 202.6 105.292 202.476 105.292ZM202.476 105.204C202.566 105.204 202.646 105.192 202.717 105.17C202.788 105.147 202.844 105.116 202.884 105.076C202.924 105.036 202.944 104.991 202.944 104.94C202.944 104.89 202.924 104.845 202.884 104.805C202.844 104.765 202.788 104.733 202.717 104.71C202.646 104.687 202.566 104.676 202.476 104.676C202.386 104.676 202.306 104.687 202.235 104.71C202.164 104.733 202.107 104.765 202.066 104.805C202.026 104.845 202.005 104.89 202.005 104.94C202.005 104.991 202.026 105.036 202.066 105.076C202.107 105.116 202.164 105.147 202.235 105.17C202.306 105.192 202.386 105.204 202.476 105.204ZM204.555 105.286C204.528 105.286 204.507 105.281 204.49 105.272C204.473 105.263 204.464 105.251 204.464 105.238L204.464 104.909C204.464 104.856 204.446 104.813 204.409 104.78C204.373 104.746 204.324 104.721 204.26 104.704C204.199 104.687 204.128 104.678 204.049 104.678C203.974 104.678 203.905 104.686 203.843 104.702C203.783 104.719 203.735 104.74 203.699 104.768C203.664 104.796 203.646 104.828 203.646 104.863L203.519 104.863C203.522 104.81 203.548 104.763 203.597 104.721C203.647 104.679 203.713 104.646 203.794 104.623C203.876 104.598 203.968 104.586 204.068 104.586C204.178 104.586 204.276 104.599 204.362 104.624C204.449 104.648 204.517 104.685 204.566 104.733C204.617 104.781 204.643 104.84 204.643 104.909L204.643 105.238C204.643 105.251 204.634 105.263 204.617 105.272C204.6 105.281 204.579 105.286 204.555 105.286ZM203.558 105.286C203.53 105.286 203.508 105.282 203.491 105.273C203.475 105.264 203.468 105.252 203.468 105.238L203.468 104.643C203.468 104.628 203.475 104.616 203.491 104.608C203.508 104.598 203.53 104.594 203.558 104.594C203.584 104.594 203.605 104.598 203.621 104.608C203.638 104.616 203.646 104.628 203.646 104.643L203.646 105.238C203.646 105.252 203.638 105.264 203.621 105.273C203.605 105.282 203.584 105.286 203.558 105.286ZM205.254 105.286C205.234 105.286 205.216 105.283 205.2 105.277C205.185 105.271 205.174 105.264 205.168 105.254L204.806 104.662C204.797 104.641 204.798 104.624 204.809 104.613C204.819 104.6 204.841 104.594 204.873 104.594C204.894 104.594 204.911 104.597 204.927 104.602C204.942 104.608 204.954 104.618 204.962 104.63L205.284 105.168L205.233 105.168L205.532 104.632C205.538 104.621 205.548 104.612 205.562 104.605C205.577 104.597 205.597 104.594 205.62 104.594C205.643 104.594 205.662 104.597 205.675 104.604C205.691 104.61 205.702 104.62 205.708 104.632L205.993 105.156L205.954 105.156L206.269 104.63C206.284 104.606 206.313 104.594 206.355 104.594C206.389 104.594 206.412 104.601 206.424 104.615C206.437 104.629 206.437 104.644 206.424 104.662L206.063 105.254C206.056 105.264 206.046 105.271 206.03 105.277C206.016 105.283 205.999 105.286 205.979 105.286C205.959 105.286 205.941 105.283 205.924 105.277C205.908 105.271 205.898 105.264 205.893 105.254L205.601 104.725L205.629 104.725L205.337 105.254C205.331 105.264 205.32 105.273 205.305 105.278C205.289 105.283 205.272 105.286 205.254 105.286ZM206.956 105.286C206.894 105.286 206.838 105.277 206.789 105.258C206.741 105.24 206.703 105.214 206.675 105.181C206.649 105.148 206.636 105.11 206.636 105.067L206.636 104.346C206.636 104.331 206.643 104.32 206.659 104.311C206.676 104.302 206.698 104.297 206.724 104.297C206.75 104.297 206.771 104.302 206.786 104.311C206.803 104.32 206.812 104.331 206.812 104.346L206.812 105.067C206.812 105.103 206.825 105.133 206.851 105.156C206.879 105.178 206.914 105.19 206.956 105.19L207.014 105.19C207.037 105.19 207.055 105.194 207.069 105.204C207.083 105.212 207.09 105.224 207.09 105.238C207.09 105.252 207.08 105.264 207.06 105.273C207.041 105.282 207.017 105.286 206.986 105.286L206.956 105.286ZM207.843 105.292C207.72 105.292 207.609 105.277 207.512 105.247C207.414 105.216 207.338 105.175 207.282 105.121C207.227 105.068 207.199 105.008 207.199 104.94C207.199 104.872 207.227 104.811 207.282 104.758C207.338 104.705 207.414 104.663 207.512 104.633C207.609 104.602 207.72 104.587 207.843 104.587C207.967 104.587 208.077 104.602 208.172 104.633C208.27 104.663 208.346 104.705 208.402 104.758C208.458 104.811 208.486 104.872 208.488 104.94C208.488 105.008 208.459 105.068 208.402 105.121C208.346 105.175 208.27 105.216 208.172 105.247C208.077 105.277 207.967 105.292 207.843 105.292ZM207.843 105.204C207.933 105.204 208.013 105.192 208.084 105.17C208.155 105.147 208.211 105.116 208.251 105.076C208.291 105.036 208.312 104.991 208.312 104.94C208.312 104.89 208.291 104.845 208.251 104.805C208.211 104.765 208.155 104.733 208.084 104.71C208.013 104.687 207.933 104.676 207.843 104.676C207.754 104.676 207.673 104.687 207.602 104.71C207.531 104.733 207.475 104.765 207.433 104.805C207.393 104.845 207.373 104.89 207.373 104.94C207.373 104.991 207.393 105.036 207.433 105.076C207.475 105.116 207.531 105.147 207.602 105.17C207.673 105.192 207.754 105.204 207.843 105.204ZM209.394 105.292C209.275 105.292 209.168 105.277 209.074 105.247C208.979 105.216 208.904 105.173 208.849 105.12C208.795 105.067 208.768 105.007 208.768 104.94C208.768 104.873 208.795 104.813 208.851 104.759C208.908 104.706 208.986 104.665 209.083 104.634C209.18 104.603 209.29 104.587 209.412 104.587C209.534 104.587 209.643 104.603 209.739 104.634C209.836 104.665 209.913 104.706 209.968 104.759C210.026 104.813 210.055 104.873 210.057 104.94L209.985 104.971C209.985 105.032 209.958 105.086 209.906 105.135C209.855 105.183 209.785 105.222 209.695 105.251C209.607 105.278 209.506 105.292 209.394 105.292ZM209.412 105.204C209.502 105.204 209.581 105.192 209.651 105.17C209.722 105.147 209.778 105.116 209.818 105.076C209.859 105.035 209.88 104.99 209.88 104.94C209.88 104.89 209.859 104.845 209.818 104.805C209.778 104.765 209.722 104.734 209.651 104.711C209.581 104.688 209.502 104.676 209.412 104.676C209.324 104.676 209.244 104.688 209.173 104.711C209.102 104.734 209.046 104.765 209.004 104.805C208.962 104.845 208.942 104.89 208.942 104.94C208.942 104.99 208.962 105.035 209.004 105.076C209.046 105.116 209.102 105.147 209.173 105.17C209.244 105.192 209.324 105.204 209.412 105.204ZM209.966 105.286C209.94 105.286 209.918 105.282 209.901 105.273C209.884 105.264 209.876 105.252 209.876 105.238L209.876 105.021L209.92 104.921L210.057 104.94L210.057 105.238C210.057 105.252 210.048 105.264 210.031 105.273C210.014 105.282 209.992 105.286 209.966 105.286ZM210.981 105.292C210.859 105.292 210.749 105.277 210.652 105.247C210.554 105.216 210.477 105.173 210.42 105.12C210.364 105.067 210.336 105.007 210.336 104.939C210.336 104.873 210.363 104.813 210.418 104.759C210.473 104.706 210.548 104.665 210.642 104.634C210.737 104.603 210.843 104.587 210.962 104.587C211.066 104.587 211.159 104.6 211.243 104.624C211.326 104.648 211.393 104.679 211.444 104.719L211.444 104.347C211.444 104.332 211.453 104.32 211.47 104.311C211.487 104.302 211.509 104.297 211.535 104.297C211.561 104.297 211.583 104.302 211.6 104.311C211.617 104.32 211.625 104.332 211.625 104.347L211.625 104.944C211.622 105.01 211.592 105.07 211.535 105.123C211.479 105.175 211.403 105.216 211.305 105.247C211.21 105.277 211.101 105.292 210.981 105.292ZM210.981 105.204C211.07 105.204 211.15 105.192 211.22 105.17C211.291 105.146 211.346 105.114 211.387 105.075C211.428 105.035 211.449 104.99 211.449 104.939C211.449 104.889 211.428 104.845 211.387 104.805C211.346 104.765 211.291 104.733 211.22 104.71C211.15 104.687 211.07 104.676 210.981 104.676C210.893 104.676 210.813 104.687 210.742 104.71C210.671 104.733 210.615 104.765 210.573 104.805C210.531 104.845 210.51 104.889 210.51 104.939C210.51 104.99 210.531 105.035 210.573 105.075C210.615 105.114 210.671 105.146 210.742 105.17C210.813 105.192 210.893 105.204 210.981 105.204ZM213.28 105.292C213.161 105.292 213.055 105.277 212.96 105.247C212.866 105.216 212.791 105.173 212.736 105.12C212.682 105.067 212.655 105.007 212.655 104.94C212.655 104.873 212.682 104.813 212.738 104.759C212.795 104.706 212.872 104.665 212.97 104.634C213.067 104.603 213.177 104.587 213.299 104.587C213.421 104.587 213.53 104.603 213.626 104.634C213.723 104.665 213.8 104.706 213.855 104.759C213.912 104.813 213.942 104.873 213.943 104.94L213.871 104.971C213.871 105.032 213.845 105.086 213.793 105.135C213.742 105.183 213.671 105.222 213.582 105.251C213.494 105.278 213.393 105.292 213.28 105.292ZM213.299 105.204C213.389 105.204 213.468 105.192 213.538 105.17C213.609 105.147 213.664 105.116 213.705 105.076C213.746 105.035 213.767 104.99 213.767 104.94C213.767 104.89 213.746 104.845 213.705 104.805C213.664 104.765 213.609 104.734 213.538 104.711C213.468 104.688 213.389 104.676 213.299 104.676C213.211 104.676 213.131 104.688 213.06 104.711C212.989 104.734 212.933 104.765 212.891 104.805C212.849 104.845 212.828 104.89 212.828 104.94C212.828 104.99 212.849 105.035 212.891 105.076C212.933 105.116 212.989 105.147 213.06 105.17C213.131 105.192 213.211 105.204 213.299 105.204ZM213.853 105.286C213.827 105.286 213.805 105.282 213.788 105.273C213.771 105.264 213.763 105.252 213.763 105.238L213.763 105.021L213.807 104.921L213.943 104.94L213.943 105.238C213.943 105.252 213.935 105.264 213.918 105.273C213.901 105.282 213.879 105.286 213.853 105.286ZM215.377 105.286C215.351 105.286 215.33 105.281 215.313 105.272C215.296 105.263 215.287 105.251 215.287 105.238L215.287 104.909C215.287 104.856 215.269 104.813 215.231 104.78C215.196 104.746 215.146 104.721 215.083 104.704C215.021 104.687 214.951 104.678 214.872 104.678C214.796 104.678 214.728 104.686 214.666 104.702C214.606 104.719 214.558 104.74 214.522 104.768C214.487 104.796 214.469 104.828 214.469 104.863L214.341 104.863C214.345 104.81 214.371 104.763 214.42 104.721C214.47 104.679 214.535 104.646 214.617 104.623C214.699 104.598 214.79 104.586 214.891 104.586C215 104.586 215.099 104.599 215.185 104.624C215.272 104.648 215.34 104.685 215.389 104.733C215.44 104.781 215.466 104.84 215.466 104.909L215.466 105.238C215.466 105.251 215.457 105.263 215.44 105.272C215.423 105.281 215.402 105.286 215.377 105.286ZM214.381 105.286C214.353 105.286 214.331 105.282 214.314 105.273C214.298 105.264 214.29 105.252 214.29 105.238L214.29 104.643C214.29 104.628 214.298 104.616 214.314 104.608C214.331 104.598 214.353 104.594 214.381 104.594C214.407 104.594 214.428 104.598 214.443 104.608C214.46 104.616 214.469 104.628 214.469 104.643L214.469 105.238C214.469 105.252 214.46 105.264 214.443 105.273C214.428 105.282 214.407 105.286 214.381 105.286ZM216.436 105.292C216.314 105.292 216.205 105.277 216.107 105.247C216.01 105.216 215.933 105.173 215.875 105.12C215.82 105.067 215.792 105.007 215.792 104.939C215.792 104.873 215.819 104.813 215.873 104.759C215.929 104.706 216.004 104.665 216.098 104.634C216.192 104.603 216.299 104.587 216.418 104.587C216.521 104.587 216.615 104.6 216.698 104.624C216.782 104.648 216.849 104.679 216.9 104.719L216.9 104.347C216.9 104.332 216.909 104.32 216.926 104.311C216.943 104.302 216.964 104.297 216.99 104.297C217.017 104.297 217.038 104.302 217.055 104.311C217.072 104.32 217.081 104.332 217.081 104.347L217.081 104.944C217.078 105.01 217.048 105.07 216.99 105.123C216.935 105.175 216.858 105.216 216.761 105.247C216.665 105.277 216.557 105.292 216.436 105.292ZM216.436 105.204C216.526 105.204 216.606 105.192 216.675 105.17C216.746 105.146 216.802 105.114 216.842 105.075C216.884 105.035 216.905 104.99 216.905 104.939C216.905 104.889 216.884 104.845 216.842 104.805C216.802 104.765 216.746 104.733 216.675 104.71C216.606 104.687 216.526 104.676 216.436 104.676C216.348 104.676 216.269 104.687 216.198 104.71C216.127 104.733 216.07 104.765 216.028 104.805C215.987 104.845 215.966 104.889 215.966 104.939C215.966 104.99 215.987 105.035 216.028 105.075C216.07 105.114 216.127 105.146 216.198 105.17C216.269 105.192 216.348 105.204 216.436 105.204ZM218.291 105.286C218.265 105.286 218.243 105.281 218.226 105.272C218.209 105.263 218.2 105.251 218.2 105.237L218.2 104.347C218.2 104.332 218.209 104.321 218.226 104.311C218.243 104.302 218.265 104.297 218.291 104.297L218.724 104.297C218.837 104.297 218.938 104.311 219.026 104.337C219.114 104.362 219.183 104.398 219.232 104.444C219.283 104.49 219.309 104.543 219.309 104.602C219.309 104.66 219.283 104.711 219.232 104.756C219.183 104.8 219.114 104.835 219.026 104.861C218.938 104.886 218.837 104.899 218.724 104.899L218.381 104.899L218.381 105.237C218.381 105.251 218.373 105.263 218.356 105.272C218.339 105.281 218.317 105.286 218.291 105.286ZM219.26 105.286C219.24 105.286 219.224 105.284 219.211 105.28C219.2 105.275 219.19 105.269 219.181 105.261L218.736 104.873L218.917 104.848L219.332 105.21C219.355 105.23 219.359 105.248 219.343 105.263C219.329 105.278 219.302 105.286 219.26 105.286ZM218.381 104.804L218.724 104.804C218.803 104.804 218.873 104.795 218.933 104.778C218.995 104.761 219.043 104.737 219.079 104.706C219.115 104.676 219.132 104.641 219.132 104.602C219.132 104.561 219.115 104.525 219.079 104.494C219.043 104.462 218.995 104.437 218.933 104.419C218.873 104.401 218.803 104.392 218.724 104.392L218.381 104.392L218.381 104.804ZM220.185 105.292C220.06 105.292 219.949 105.278 219.851 105.248C219.756 105.218 219.68 105.176 219.624 105.123C219.57 105.07 219.543 105.009 219.543 104.94C219.543 104.871 219.569 104.81 219.62 104.758C219.672 104.705 219.744 104.663 219.835 104.633C219.926 104.602 220.031 104.587 220.15 104.587C220.268 104.587 220.37 104.602 220.456 104.632C220.544 104.66 220.612 104.7 220.66 104.752C220.708 104.803 220.732 104.862 220.732 104.928C220.732 104.941 220.724 104.952 220.709 104.961C220.694 104.968 220.673 104.972 220.649 104.972L219.664 104.972L219.664 104.891L220.667 104.891L220.568 104.93C220.569 104.881 220.553 104.837 220.519 104.799C220.485 104.76 220.436 104.729 220.373 104.708C220.311 104.686 220.237 104.675 220.15 104.675C220.062 104.675 219.985 104.686 219.919 104.709C219.852 104.732 219.8 104.763 219.763 104.804C219.728 104.843 219.71 104.889 219.71 104.94C219.71 104.992 219.73 105.037 219.77 105.077C219.812 105.117 219.868 105.148 219.939 105.171C220.011 105.194 220.092 105.205 220.185 105.205C220.241 105.205 220.296 105.2 220.352 105.19C220.409 105.179 220.455 105.165 220.489 105.149C220.506 105.142 220.525 105.138 220.547 105.138C220.568 105.137 220.587 105.14 220.602 105.147C220.622 105.157 220.633 105.168 220.633 105.18C220.634 105.191 220.626 105.202 220.607 105.21C220.556 105.234 220.491 105.254 220.412 105.27C220.333 105.285 220.258 105.292 220.185 105.292ZM221.547 105.292C221.428 105.292 221.322 105.277 221.227 105.247C221.133 105.216 221.058 105.173 221.003 105.12C220.949 105.067 220.922 105.007 220.922 104.94C220.922 104.873 220.949 104.813 221.005 104.759C221.062 104.706 221.139 104.665 221.237 104.634C221.334 104.603 221.444 104.587 221.566 104.587C221.688 104.587 221.797 104.603 221.893 104.634C221.99 104.665 222.067 104.706 222.122 104.759C222.179 104.813 222.209 104.873 222.21 104.94L222.138 104.971C222.138 105.032 222.112 105.086 222.06 105.135C222.009 105.183 221.938 105.222 221.849 105.251C221.761 105.278 221.66 105.292 221.547 105.292ZM221.566 105.204C221.656 105.204 221.735 105.192 221.805 105.17C221.876 105.147 221.931 105.116 221.972 105.076C222.013 105.035 222.034 104.99 222.034 104.94C222.034 104.89 222.013 104.845 221.972 104.805C221.931 104.765 221.876 104.734 221.805 104.711C221.735 104.688 221.656 104.676 221.566 104.676C221.478 104.676 221.398 104.688 221.327 104.711C221.256 104.734 221.2 104.765 221.158 104.805C221.116 104.845 221.095 104.89 221.095 104.94C221.095 104.99 221.116 105.035 221.158 105.076C221.2 105.116 221.256 105.147 221.327 105.17C221.398 105.192 221.478 105.204 221.566 105.204ZM222.12 105.286C222.094 105.286 222.072 105.282 222.055 105.273C222.038 105.264 222.03 105.252 222.03 105.238L222.03 105.021L222.074 104.921L222.21 104.94L222.21 105.238C222.21 105.252 222.202 105.264 222.185 105.273C222.168 105.282 222.146 105.286 222.12 105.286ZM223.135 105.292C223.013 105.292 222.903 105.277 222.806 105.247C222.708 105.216 222.631 105.173 222.574 105.12C222.518 105.067 222.49 105.007 222.49 104.939C222.49 104.873 222.517 104.813 222.572 104.759C222.627 104.706 222.702 104.665 222.796 104.634C222.891 104.603 222.997 104.587 223.116 104.587C223.22 104.587 223.313 104.6 223.397 104.624C223.48 104.648 223.547 104.679 223.598 104.719L223.598 104.347C223.598 104.332 223.607 104.32 223.624 104.311C223.641 104.302 223.663 104.297 223.689 104.297C223.715 104.297 223.737 104.302 223.754 104.311C223.771 104.32 223.779 104.332 223.779 104.347L223.779 104.944C223.776 105.01 223.746 105.07 223.689 105.123C223.633 105.175 223.557 105.216 223.459 105.247C223.364 105.277 223.255 105.292 223.135 105.292ZM223.135 105.204C223.225 105.204 223.304 105.192 223.374 105.17C223.445 105.146 223.5 105.114 223.541 105.075C223.582 105.035 223.603 104.99 223.603 104.939C223.603 104.889 223.582 104.845 223.541 104.805C223.5 104.765 223.445 104.733 223.374 104.71C223.304 104.687 223.225 104.676 223.135 104.676C223.047 104.676 222.967 104.687 222.896 104.71C222.825 104.733 222.769 104.765 222.727 104.805C222.685 104.845 222.664 104.889 222.664 104.939C222.664 104.99 222.685 105.035 222.727 105.075C222.769 105.114 222.825 105.146 222.896 105.17C222.967 105.192 223.047 105.204 223.135 105.204ZM225.451 105.292C225.325 105.292 225.214 105.278 225.117 105.248C225.021 105.218 224.945 105.176 224.89 105.123C224.836 105.07 224.809 105.009 224.809 104.94C224.809 104.871 224.834 104.81 224.885 104.758C224.938 104.705 225.009 104.663 225.101 104.633C225.192 104.602 225.297 104.587 225.416 104.587C225.533 104.587 225.635 104.602 225.722 104.632C225.81 104.66 225.878 104.7 225.926 104.752C225.974 104.803 225.998 104.862 225.998 104.928C225.998 104.941 225.99 104.952 225.974 104.961C225.959 104.968 225.939 104.972 225.914 104.972L224.929 104.972L224.929 104.891L225.933 104.891L225.833 104.93C225.835 104.881 225.818 104.837 225.784 104.799C225.75 104.76 225.702 104.729 225.638 104.708C225.577 104.686 225.502 104.675 225.416 104.675C225.328 104.675 225.25 104.686 225.184 104.709C225.118 104.732 225.066 104.763 225.029 104.804C224.993 104.843 224.975 104.889 224.975 104.94C224.975 104.992 224.996 105.037 225.036 105.077C225.077 105.117 225.134 105.148 225.205 105.171C225.276 105.194 225.358 105.205 225.451 105.205C225.506 105.205 225.562 105.2 225.618 105.19C225.675 105.179 225.72 105.165 225.754 105.149C225.771 105.142 225.791 105.138 225.812 105.138C225.834 105.137 225.852 105.14 225.868 105.147C225.888 105.157 225.898 105.168 225.898 105.18C225.9 105.191 225.891 105.202 225.873 105.21C225.822 105.234 225.757 105.254 225.678 105.27C225.599 105.285 225.523 105.292 225.451 105.292ZM226.942 105.292C226.821 105.292 226.712 105.277 226.615 105.247C226.519 105.216 226.442 105.175 226.385 105.123C226.33 105.07 226.301 105.01 226.299 104.944L226.299 104.347C226.299 104.332 226.307 104.32 226.323 104.311C226.34 104.302 226.362 104.297 226.39 104.297C226.416 104.297 226.437 104.302 226.452 104.311C226.469 104.32 226.478 104.332 226.478 104.347L226.478 104.719C226.529 104.679 226.596 104.648 226.68 104.624C226.765 104.6 226.859 104.587 226.962 104.587C227.081 104.587 227.188 104.603 227.282 104.634C227.377 104.665 227.451 104.706 227.505 104.759C227.56 104.813 227.588 104.873 227.588 104.939C227.588 105.007 227.56 105.067 227.502 105.12C227.447 105.173 227.37 105.216 227.273 105.247C227.176 105.277 227.065 105.292 226.942 105.292ZM226.942 105.204C227.031 105.204 227.112 105.192 227.183 105.17C227.254 105.146 227.309 105.114 227.349 105.075C227.391 105.035 227.412 104.99 227.412 104.939C227.412 104.889 227.391 104.845 227.349 104.805C227.309 104.765 227.254 104.733 227.183 104.71C227.112 104.687 227.031 104.676 226.942 104.676C226.853 104.676 226.774 104.687 226.703 104.71C226.632 104.733 226.576 104.765 226.536 104.805C226.496 104.845 226.476 104.889 226.476 104.939C226.476 104.99 226.496 105.035 226.536 105.075C226.576 105.114 226.632 105.146 226.703 105.17C226.774 105.192 226.853 105.204 226.942 105.204ZM228.516 105.292C228.392 105.292 228.282 105.277 228.184 105.247C228.087 105.216 228.011 105.175 227.955 105.121C227.899 105.068 227.871 105.008 227.871 104.94C227.871 104.872 227.899 104.811 227.955 104.758C228.011 104.705 228.087 104.663 228.184 104.633C228.282 104.602 228.392 104.587 228.516 104.587C228.639 104.587 228.749 104.602 228.845 104.633C228.942 104.663 229.019 104.705 229.075 104.758C229.13 104.811 229.159 104.872 229.16 104.94C229.16 105.008 229.132 105.068 229.075 105.121C229.019 105.175 228.942 105.216 228.845 105.247C228.749 105.277 228.639 105.292 228.516 105.292ZM228.516 105.204C228.605 105.204 228.686 105.192 228.757 105.17C228.828 105.147 228.884 105.116 228.924 105.076C228.964 105.036 228.984 104.991 228.984 104.94C228.984 104.89 228.964 104.845 228.924 104.805C228.884 104.765 228.828 104.733 228.757 104.71C228.686 104.687 228.605 104.676 228.516 104.676C228.426 104.676 228.346 104.687 228.275 104.71C228.204 104.733 228.147 104.765 228.106 104.805C228.065 104.845 228.045 104.89 228.045 104.94C228.045 104.991 228.065 105.036 228.106 105.076C228.147 105.116 228.204 105.147 228.275 105.17C228.346 105.192 228.426 105.204 228.516 105.204ZM230.084 105.292C229.961 105.292 229.85 105.277 229.753 105.247C229.656 105.216 229.579 105.175 229.523 105.121C229.468 105.068 229.44 105.008 229.44 104.94C229.44 104.872 229.468 104.811 229.523 104.758C229.579 104.705 229.656 104.663 229.753 104.633C229.85 104.602 229.961 104.587 230.084 104.587C230.208 104.587 230.318 104.602 230.414 104.633C230.511 104.663 230.587 104.705 230.643 104.758C230.699 104.811 230.727 104.872 230.729 104.94C230.729 105.008 230.7 105.068 230.643 105.121C230.587 105.175 230.511 105.216 230.414 105.247C230.318 105.277 230.208 105.292 230.084 105.292ZM230.084 105.204C230.174 105.204 230.254 105.192 230.325 105.17C230.397 105.147 230.452 105.116 230.492 105.076C230.533 105.036 230.553 104.991 230.553 104.94C230.553 104.89 230.533 104.845 230.492 104.805C230.452 104.765 230.397 104.733 230.325 104.71C230.254 104.687 230.174 104.676 230.084 104.676C229.995 104.676 229.914 104.687 229.843 104.71C229.772 104.733 229.716 104.765 229.674 104.805C229.634 104.845 229.614 104.89 229.614 104.94C229.614 104.991 229.634 105.036 229.674 105.076C229.716 105.116 229.772 105.147 229.843 105.17C229.914 105.192 229.995 105.204 230.084 105.204ZM231.222 105.054L231.113 104.99L231.906 104.599C231.925 104.589 231.944 104.585 231.964 104.586C231.984 104.586 232.003 104.591 232.02 104.601C232.037 104.611 232.044 104.622 232.043 104.634C232.043 104.645 232.034 104.655 232.015 104.663L231.222 105.054ZM231.164 105.286C231.138 105.286 231.116 105.282 231.099 105.273C231.084 105.264 231.076 105.252 231.076 105.238L231.076 104.346C231.076 104.331 231.084 104.32 231.099 104.311C231.116 104.302 231.138 104.297 231.164 104.297C231.191 104.297 231.211 104.302 231.227 104.311C231.244 104.32 231.252 104.331 231.252 104.346L231.252 105.238C231.252 105.252 231.244 105.264 231.227 105.273C231.211 105.282 231.191 105.286 231.164 105.286ZM232.022 105.28C232.002 105.289 231.981 105.293 231.959 105.291C231.938 105.29 231.919 105.284 231.904 105.273L231.387 104.927L231.512 104.866L232.034 105.216C232.049 105.227 232.056 105.237 232.054 105.249C232.053 105.26 232.042 105.27 232.022 105.28ZM232.845 105.292C232.754 105.292 232.664 105.284 232.574 105.267C232.484 105.25 232.412 105.225 232.356 105.191C232.339 105.181 232.332 105.17 232.335 105.157C232.338 105.144 232.35 105.133 232.37 105.124C232.392 105.116 232.414 105.112 232.437 105.114C232.46 105.116 232.48 105.121 232.495 105.13C232.532 105.154 232.581 105.172 232.641 105.185C232.703 105.197 232.771 105.204 232.845 105.204C232.96 105.204 233.042 105.193 233.093 105.172C233.144 105.15 233.171 105.124 233.172 105.094C233.172 105.063 233.146 105.038 233.093 105.019C233.041 104.999 232.954 104.983 232.834 104.972C232.678 104.959 232.563 104.935 232.491 104.901C232.418 104.867 232.382 104.827 232.382 104.781C232.382 104.738 232.402 104.702 232.444 104.673C232.486 104.645 232.542 104.623 232.611 104.609C232.681 104.594 232.757 104.587 232.841 104.587C232.944 104.587 233.033 104.597 233.107 104.616C233.183 104.636 233.244 104.662 233.29 104.695C233.306 104.706 233.312 104.717 233.309 104.729C233.306 104.741 233.293 104.751 233.272 104.758C233.253 104.764 233.232 104.766 233.207 104.765C233.184 104.762 233.164 104.756 233.147 104.746C233.108 104.721 233.063 104.703 233.012 104.692C232.961 104.681 232.902 104.675 232.836 104.675C232.751 104.675 232.683 104.684 232.632 104.704C232.581 104.722 232.555 104.746 232.555 104.775C232.555 104.794 232.565 104.811 232.583 104.825C232.603 104.84 232.637 104.852 232.683 104.863C232.731 104.874 232.797 104.883 232.882 104.891C232.998 104.901 233.089 104.916 233.156 104.937C233.224 104.956 233.272 104.979 233.3 105.006C233.329 105.032 233.344 105.061 233.344 105.092C233.344 105.132 233.322 105.167 233.279 105.197C233.237 105.227 233.178 105.25 233.103 105.267C233.028 105.284 232.943 105.292 232.845 105.292ZM234.489 105.286C234.466 105.286 234.445 105.282 234.428 105.273C234.411 105.264 234.403 105.252 234.403 105.237L234.403 104.595C234.403 104.536 234.422 104.484 234.459 104.439C234.496 104.394 234.551 104.36 234.623 104.335C234.696 104.31 234.785 104.297 234.89 104.297C234.916 104.297 234.938 104.302 234.955 104.31C234.972 104.319 234.98 104.329 234.98 104.342C234.98 104.354 234.972 104.365 234.955 104.373C234.938 104.382 234.916 104.386 234.89 104.386C234.82 104.386 234.762 104.395 234.716 104.413C234.671 104.429 234.637 104.454 234.614 104.485C234.592 104.515 234.581 104.55 234.581 104.59L234.581 105.237C234.581 105.252 234.573 105.264 234.556 105.273C234.54 105.282 234.518 105.286 234.489 105.286ZM234.255 104.704C234.23 104.704 234.21 104.7 234.194 104.692C234.18 104.684 234.173 104.674 234.173 104.662C234.173 104.649 234.18 104.639 234.194 104.632C234.21 104.623 234.23 104.619 234.255 104.619L234.86 104.619C234.884 104.619 234.904 104.623 234.918 104.632C234.933 104.639 234.941 104.649 234.941 104.662C234.941 104.674 234.933 104.684 234.918 104.692C234.904 104.7 234.884 104.704 234.86 104.704L234.255 104.704ZM235.712 105.292C235.589 105.292 235.478 105.277 235.381 105.247C235.283 105.216 235.207 105.175 235.151 105.121C235.096 105.068 235.068 105.008 235.068 104.94C235.068 104.872 235.096 104.811 235.151 104.758C235.207 104.705 235.283 104.663 235.381 104.633C235.478 104.602 235.589 104.587 235.712 104.587C235.836 104.587 235.946 104.602 236.041 104.633C236.139 104.663 236.215 104.705 236.271 104.758C236.327 104.811 236.355 104.872 236.357 104.94C236.357 105.008 236.328 105.068 236.271 105.121C236.215 105.175 236.139 105.216 236.041 105.247C235.946 105.277 235.836 105.292 235.712 105.292ZM235.712 105.204C235.802 105.204 235.882 105.192 235.953 105.17C236.024 105.147 236.08 105.116 236.12 105.076C236.16 105.036 236.181 104.991 236.181 104.94C236.181 104.89 236.16 104.845 236.12 104.805C236.08 104.765 236.024 104.733 235.953 104.71C235.882 104.687 235.802 104.676 235.712 104.676C235.623 104.676 235.542 104.687 235.471 104.71C235.4 104.733 235.344 104.765 235.302 104.805C235.262 104.845 235.242 104.89 235.242 104.94C235.242 104.991 235.262 105.036 235.302 105.076C235.344 105.116 235.4 105.147 235.471 105.17C235.542 105.192 235.623 105.204 235.712 105.204ZM236.778 104.859C236.782 104.807 236.807 104.76 236.852 104.719C236.898 104.678 236.958 104.645 237.03 104.621C237.105 104.598 237.187 104.586 237.276 104.586C237.347 104.586 237.402 104.592 237.441 104.602C237.479 104.613 237.494 104.629 237.485 104.651C237.479 104.663 237.468 104.672 237.452 104.676C237.438 104.68 237.421 104.682 237.399 104.681C237.379 104.68 237.356 104.679 237.33 104.678C237.243 104.674 237.166 104.679 237.098 104.694C237.031 104.707 236.978 104.728 236.938 104.757C236.899 104.786 236.88 104.82 236.88 104.859L236.778 104.859ZM236.792 105.286C236.764 105.286 236.742 105.282 236.727 105.273C236.711 105.265 236.704 105.253 236.704 105.238L236.704 104.642C236.704 104.627 236.711 104.615 236.727 104.606C236.742 104.598 236.764 104.594 236.792 104.594C236.82 104.594 236.841 104.598 236.857 104.606C236.872 104.615 236.88 104.627 236.88 104.642L236.88 105.238C236.88 105.253 236.872 105.265 236.857 105.273C236.841 105.282 236.82 105.286 236.792 105.286ZM238.602 105.286C238.579 105.286 238.559 105.282 238.542 105.273C238.525 105.264 238.516 105.252 238.516 105.237L238.516 104.595C238.516 104.536 238.535 104.484 238.572 104.439C238.609 104.394 238.664 104.36 238.737 104.335C238.809 104.31 238.898 104.297 239.003 104.297C239.029 104.297 239.051 104.302 239.068 104.31C239.085 104.319 239.094 104.329 239.094 104.342C239.094 104.354 239.085 104.365 239.068 104.373C239.051 104.382 239.029 104.386 239.003 104.386C238.934 104.386 238.876 104.395 238.829 104.413C238.784 104.429 238.75 104.454 238.727 104.485C238.706 104.515 238.695 104.55 238.695 104.59L238.695 105.237C238.695 105.252 238.686 105.264 238.669 105.273C238.654 105.282 238.631 105.286 238.602 105.286ZM238.368 104.704C238.343 104.704 238.323 104.7 238.308 104.692C238.294 104.684 238.287 104.674 238.287 104.662C238.287 104.649 238.294 104.639 238.308 104.632C238.323 104.623 238.343 104.619 238.368 104.619L238.973 104.619C238.998 104.619 239.017 104.623 239.031 104.632C239.046 104.639 239.054 104.649 239.054 104.662C239.054 104.674 239.046 104.684 239.031 104.692C239.017 104.7 238.998 104.704 238.973 104.704L238.368 104.704ZM239.367 104.859C239.372 104.807 239.397 104.76 239.442 104.719C239.488 104.678 239.548 104.645 239.62 104.621C239.694 104.598 239.776 104.586 239.866 104.586C239.937 104.586 239.992 104.592 240.03 104.602C240.069 104.613 240.084 104.629 240.074 104.651C240.068 104.663 240.057 104.672 240.042 104.676C240.028 104.68 240.01 104.682 239.989 104.681C239.969 104.68 239.945 104.679 239.919 104.678C239.833 104.674 239.755 104.679 239.687 104.694C239.621 104.707 239.568 104.728 239.527 104.757C239.489 104.786 239.469 104.82 239.469 104.859L239.367 104.859ZM239.381 105.286C239.354 105.286 239.332 105.282 239.316 105.273C239.301 105.265 239.293 105.253 239.293 105.238L239.293 104.642C239.293 104.627 239.301 104.615 239.316 104.606C239.332 104.598 239.354 104.594 239.381 104.594C239.409 104.594 239.431 104.598 239.446 104.606C239.462 104.615 239.469 104.627 239.469 104.642L239.469 105.238C239.469 105.253 239.462 105.265 239.446 105.273C239.431 105.282 239.409 105.286 239.381 105.286ZM240.837 105.292C240.712 105.292 240.601 105.278 240.503 105.248C240.408 105.218 240.332 105.176 240.276 105.123C240.222 105.07 240.195 105.009 240.195 104.94C240.195 104.871 240.221 104.81 240.272 104.758C240.324 104.705 240.396 104.663 240.487 104.633C240.578 104.602 240.683 104.587 240.802 104.587C240.92 104.587 241.022 104.602 241.108 104.632C241.196 104.66 241.264 104.7 241.312 104.752C241.36 104.803 241.384 104.862 241.384 104.928C241.384 104.941 241.376 104.952 241.361 104.961C241.346 104.968 241.325 104.972 241.301 104.972L240.316 104.972L240.316 104.891L241.319 104.891L241.22 104.93C241.221 104.881 241.205 104.837 241.171 104.799C241.137 104.76 241.088 104.729 241.025 104.708C240.963 104.686 240.889 104.675 240.802 104.675C240.714 104.675 240.637 104.686 240.571 104.709C240.504 104.732 240.452 104.763 240.415 104.804C240.38 104.843 240.362 104.889 240.362 104.94C240.362 104.992 240.382 105.037 240.422 105.077C240.464 105.117 240.52 105.148 240.591 105.171C240.662 105.194 240.744 105.205 240.837 105.205C240.893 105.205 240.948 105.2 241.004 105.19C241.061 105.179 241.107 105.165 241.141 105.149C241.158 105.142 241.177 105.138 241.199 105.138C241.22 105.137 241.239 105.14 241.254 105.147C241.274 105.157 241.285 105.168 241.285 105.18C241.286 105.191 241.278 105.202 241.259 105.21C241.208 105.234 241.143 105.254 241.064 105.27C240.985 105.285 240.91 105.292 240.837 105.292ZM242.216 105.292C242.09 105.292 241.979 105.278 241.882 105.248C241.786 105.218 241.71 105.176 241.655 105.123C241.601 105.07 241.573 105.009 241.573 104.94C241.573 104.871 241.599 104.81 241.65 104.758C241.703 104.705 241.774 104.663 241.866 104.633C241.957 104.602 242.062 104.587 242.181 104.587C242.298 104.587 242.4 104.602 242.487 104.632C242.575 104.66 242.643 104.7 242.691 104.752C242.739 104.803 242.763 104.862 242.763 104.928C242.763 104.941 242.755 104.952 242.739 104.961C242.724 104.968 242.704 104.972 242.679 104.972L241.694 104.972L241.694 104.891L242.698 104.891L242.598 104.93C242.6 104.881 242.583 104.837 242.549 104.799C242.515 104.76 242.467 104.729 242.403 104.708C242.342 104.686 242.267 104.675 242.181 104.675C242.093 104.675 242.015 104.686 241.949 104.709C241.883 104.732 241.831 104.763 241.794 104.804C241.758 104.843 241.74 104.889 241.74 104.94C241.74 104.992 241.76 105.037 241.801 105.077C241.842 105.117 241.899 105.148 241.97 105.171C242.041 105.194 242.123 105.205 242.216 105.205C242.271 105.205 242.327 105.2 242.382 105.19C242.44 105.179 242.485 105.165 242.519 105.149C242.536 105.142 242.556 105.138 242.577 105.138C242.599 105.137 242.617 105.14 242.633 105.147C242.653 105.157 242.663 105.168 242.663 105.18C242.665 105.191 242.656 105.202 242.637 105.21C242.586 105.234 242.522 105.254 242.443 105.27C242.364 105.285 242.288 105.292 242.216 105.292Z" fill="#493DF0"/>
<path d="M124.737 51.1483L124.669 80.7724L68.8861 80.6451C62.5305 80.6306 57.3746 73.9739 57.3932 65.8067C57.4118 57.6396 62.5981 51.0065 68.9538 51.021L124.737 51.1483Z" fill="#F2F2F2"/>
<path d="M127.314 81.1615C127.313 81.4636 127.222 81.7531 127.061 81.9664C126.9 82.1797 126.682 82.2993 126.455 82.2989L69.1646 82.1681C66.0531 82.161 63.0727 80.5097 60.8792 77.5773C58.6857 74.6449 57.4587 70.6717 57.4682 66.5318C57.4776 62.3918 58.7227 58.4243 60.9296 55.502C63.1365 52.5796 66.1243 50.9418 69.2359 50.9489L126.526 51.0797C126.753 51.0802 126.971 51.2007 127.131 51.4148C127.291 51.6288 127.38 51.9188 127.38 52.221C127.379 52.5232 127.288 52.8128 127.127 53.0261C126.966 53.2394 126.748 53.359 126.521 53.3585L69.2306 53.2277C66.5734 53.2216 64.0217 54.6203 62.137 57.1161C60.2523 59.6118 59.1889 63.0001 59.1809 66.5357C59.1728 70.0712 60.2207 73.4644 62.094 75.9687C63.9672 78.473 66.5125 79.8833 69.1698 79.8894L126.46 80.0201C126.687 80.0208 126.905 80.1413 127.065 80.3553C127.225 80.5694 127.314 80.8593 127.314 81.1615Z" fill="#6C63FF"/>
<path d="M124.721 57.9846L64.7761 57.8478C64.7306 57.8477 64.6871 57.8236 64.6551 57.7808C64.6231 57.738 64.6052 57.68 64.6053 57.6195C64.6055 57.5591 64.6236 57.5012 64.6558 57.4585C64.6881 57.4159 64.7317 57.3919 64.7771 57.3921L124.722 57.5289C124.767 57.529 124.811 57.5531 124.843 57.5959C124.875 57.6387 124.893 57.6967 124.893 57.7571C124.893 57.8176 124.874 57.8755 124.842 57.9181C124.81 57.9608 124.766 57.9847 124.721 57.9846Z" fill="#CCCCCC"/>
<path d="M124.708 63.4537L64.7635 63.3169C64.7181 63.3168 64.6746 63.2927 64.6425 63.2498C64.6105 63.207 64.5926 63.149 64.5927 63.0886C64.5929 63.0282 64.6111 62.9702 64.6433 62.9276C64.6755 62.8849 64.7191 62.861 64.7645 62.8611L124.709 62.9979C124.755 62.998 124.798 63.0221 124.83 63.0649C124.862 63.1077 124.88 63.1657 124.88 63.2262C124.88 63.2866 124.862 63.3445 124.83 63.3872C124.797 63.4299 124.754 63.4538 124.708 63.4537Z" fill="#CCCCCC"/>
<path d="M124.696 68.9227L64.751 68.7859C64.7056 68.7858 64.6621 68.7617 64.6301 68.7189C64.5981 68.6761 64.5802 68.6181 64.5803 68.5577C64.5804 68.4972 64.5986 68.4393 64.6308 68.3966C64.663 68.354 64.7067 68.3301 64.7521 68.3302L124.697 68.467C124.742 68.4671 124.786 68.4912 124.818 68.534C124.85 68.5768 124.868 68.6348 124.868 68.6953C124.868 68.7557 124.849 68.8136 124.817 68.8563C124.785 68.8989 124.741 68.9228 124.696 68.9227Z" fill="#CCCCCC"/>
<path d="M124.683 74.3918L64.7386 74.255C64.6932 74.2549 64.6497 74.2308 64.6176 74.188C64.5856 74.1452 64.5677 74.0872 64.5678 74.0268C64.568 73.9663 64.5862 73.9084 64.6184 73.8657C64.6506 73.8231 64.6942 73.7992 64.7396 73.7993L124.685 73.9361C124.73 73.9362 124.773 73.9603 124.805 74.0031C124.837 74.0459 124.855 74.1039 124.855 74.1643C124.855 74.2248 124.837 74.2827 124.805 74.3254C124.773 74.368 124.729 74.3919 124.683 74.3918Z" fill="#CCCCCC"/>
</g>
<defs>
<linearGradient id="paint0_linear" x1="72.6642" y1="275.028" x2="76.2044" y2="12.7357" gradientUnits="userSpaceOnUse">
<stop stop-color="#808080" stop-opacity="0.25"/>
<stop offset="0.54" stop-color="#808080" stop-opacity="0.12"/>
<stop offset="1" stop-color="#808080" stop-opacity="0.1"/>
</linearGradient>
<linearGradient id="paint1_linear" x1="-54333.3" y1="106811" x2="-53344.7" y2="33567.2" gradientUnits="userSpaceOnUse">
<stop stop-color="#808080" stop-opacity="0.25"/>
<stop offset="0.54" stop-color="#808080" stop-opacity="0.12"/>
<stop offset="1" stop-color="#808080" stop-opacity="0.1"/>
</linearGradient>
<clipPath id="clip0">
<rect width="360.338" height="293.441" fill="white" transform="matrix(0.999909 0.0134957 -0.0125377 0.999921 3.67908 0)"/>
</clipPath>
</defs>
</svg>
