<svg width="198" height="198" viewBox="0 0 198 198" fill="none" xmlns="http://www.w3.org/2000/svg">
<path d="M99.6847 47.2222C81.0619 52.4541 79.7702 52.6634 76.3255 51.3031L72.6655 49.8382V78.5088V107.284L76.3255 108.749C79.8778 110.214 81.0619 110.005 97.1012 105.715C106.466 103.308 115.724 100.901 117.662 100.483L121.106 99.7502V71.6027C121.106 56.1164 121.106 43.1414 121.214 42.7228C121.322 41.2579 119.276 41.6764 99.6847 47.2222Z" fill="black"/>
<path d="M35.4199 124.34C35.0969 125.177 35.0969 130.2 35.2046 135.641L35.5275 145.477L39.1875 145.791C46.6151 146.523 51.1362 143.803 51.1362 138.675C51.1362 136.897 50.3827 135.222 49.3062 134.595C47.7992 133.757 47.6915 133.339 48.8757 131.979C50.9209 129.677 49.5215 125.7 46.2921 124.235C42.5245 122.561 36.1734 122.666 35.4199 124.34ZM46.2921 129.258C46.2921 131.56 45.7539 131.874 42.3092 132.188C38.434 132.502 38.2187 132.397 38.2187 129.258C38.2187 126.119 38.434 126.014 42.3092 126.328C45.7539 126.642 46.2921 126.956 46.2921 129.258ZM47.7992 137.42C49.5215 140.559 47.261 142.861 42.5245 142.861C38.3263 142.861 38.2187 142.756 38.2187 139.199C38.2187 135.641 38.3263 135.536 42.5245 135.536C45.431 135.536 47.0457 136.059 47.7992 137.42Z" fill="black"/>
<path d="M95.8094 124.34C94.733 126.851 95.7018 145.477 96.8859 145.268C97.5318 145.163 98.1777 143.489 98.5006 141.605L99.0388 138.152L102.268 142.024C107.328 148.197 109.373 146.523 104.421 140.245L101.838 136.897L104.421 134.49C109.481 129.886 107.112 128.63 101.838 133.025L98.5006 135.746V129.886C98.5006 124.445 96.9936 121.201 95.8094 124.34Z" fill="black"/>
<path d="M127.996 124.34C127.673 125.177 127.673 130.2 127.78 135.641L128.103 145.477L132.947 145.791C138.868 146.105 142.851 144.221 144.143 140.454C145.004 138.257 144.789 137.21 143.497 135.955C142.313 134.804 141.99 133.13 142.313 130.304C142.743 127.061 142.42 126.119 140.375 124.654C137.253 122.561 128.857 122.352 127.996 124.34ZM138.76 126.747C139.729 127.061 140.483 128.212 140.483 129.258C140.483 131.455 138.437 132.397 133.916 132.397C131.117 132.397 130.795 131.979 130.795 129.258C130.795 126.537 131.117 126.119 133.916 126.119C135.639 126.119 137.792 126.433 138.76 126.747ZM141.236 137.21C142.42 140.14 140.052 142.338 135.208 142.652C130.795 142.966 130.795 142.966 130.795 139.303C130.795 135.536 130.795 135.536 135.639 135.536C139.191 135.536 140.698 136.059 141.236 137.21Z" fill="black"/>
<path d="M149.094 125.596C149.094 126.433 149.848 127.165 150.709 127.165C151.57 127.165 152.324 126.433 152.324 125.596C152.324 124.759 151.57 124.026 150.709 124.026C149.848 124.026 149.094 124.759 149.094 125.596Z" fill="black"/>
<path d="M57.2721 132.083C53.8274 135.955 54.9038 142.861 59.2097 144.744C63.085 146.523 64.3767 146.314 67.7137 143.803C71.2661 141.082 71.589 135.536 68.3596 132.397C65.6685 129.781 59.6403 129.677 57.2721 132.083ZM66.8526 135.013C69.4361 138.885 67.4985 142.861 63.085 142.861C58.1332 142.861 55.765 137.42 59.3173 134.071C61.7932 131.665 64.8073 132.083 66.8526 135.013Z" fill="black"/>
<path d="M76.9713 132.397C73.9573 135.327 74.1725 140.245 77.5096 143.384C78.909 144.849 80.8466 146 81.7078 146C84.7219 146 88.5971 143.698 89.7813 141.082C91.5036 137.524 91.2883 136.164 88.7048 133.025C85.906 129.572 80.2007 129.258 76.9713 132.397ZM86.0136 134.071C89.4583 137.315 87.5207 142.861 82.9995 142.861C79.5549 142.861 77.8325 141.291 77.8325 138.257C77.8325 133.025 82.4613 130.618 86.0136 134.071Z" fill="black"/>
<path d="M112.495 131.874C110.234 134.49 111.741 137.001 116.585 138.571C122.29 140.245 121.86 142.442 115.832 142.128C110.88 141.919 110.019 143.384 114.217 144.954C118.2 146.419 119.815 146.209 122.183 143.907C125.089 141.082 123.582 138.257 118.415 136.583C116.37 135.955 114.648 134.908 114.648 134.385C114.648 132.711 117.877 132.083 120.676 133.234C122.721 134.176 123.259 134.176 123.259 133.025C123.259 130.095 114.755 129.153 112.495 131.874Z" fill="black"/>
<path d="M149.31 137.838C149.525 142.024 150.171 145.477 150.709 145.477C151.355 145.477 151.893 142.024 152.108 137.838C152.324 131.56 152.108 130.304 150.709 130.304C149.31 130.304 149.094 131.56 149.31 137.838Z" fill="black"/>
<path d="M158.89 133.025C156.307 136.164 156.199 137.42 157.706 141.187C159.105 144.849 163.304 146.732 166.856 145.163C168.471 144.43 169.655 144.326 170.085 145.058C171.485 147.151 172.777 144.64 172.777 139.617C172.777 133.339 170.193 130.304 164.811 130.304C162.12 130.304 160.505 131.037 158.89 133.025ZM168.255 133.653C169.009 134.385 169.547 136.164 169.547 137.629C169.547 140.873 167.717 142.861 164.703 142.861C161.797 142.861 159.859 140.977 159.859 138.048C159.859 133.548 165.241 130.723 168.255 133.653Z" fill="black"/>
<path d="M62.834 151C62.766 151 62.71 150.978 62.666 150.934C62.622 150.89 62.6 150.834 62.6 150.766V146.548C62.6 146.48 62.622 146.424 62.666 146.38C62.71 146.336 62.766 146.314 62.834 146.314H63.914C64.258 146.314 64.572 146.372 64.856 146.488C65.144 146.6 65.392 146.762 65.6 146.974C65.808 147.182 65.968 147.428 66.08 147.712C66.196 147.996 66.254 148.31 66.254 148.654C66.254 148.998 66.196 149.314 66.08 149.602C65.968 149.886 65.808 150.134 65.6 150.346C65.392 150.554 65.144 150.716 64.856 150.832C64.572 150.944 64.258 151 63.914 151H62.834ZM63.068 150.58H63.914C64.282 150.58 64.606 150.498 64.886 150.334C65.17 150.166 65.392 149.938 65.552 149.65C65.712 149.358 65.792 149.026 65.792 148.654C65.792 148.282 65.712 147.952 65.552 147.664C65.392 147.372 65.17 147.144 64.886 146.98C64.606 146.816 64.282 146.734 63.914 146.734H63.068V150.58ZM68.6512 151.03C68.3312 151.03 68.0452 150.958 67.7932 150.814C67.5412 150.67 67.3432 150.472 67.1992 150.22C67.0552 149.968 66.9832 149.682 66.9832 149.362C66.9832 149.038 67.0552 148.75 67.1992 148.498C67.3432 148.246 67.5412 148.048 67.7932 147.904C68.0452 147.76 68.3312 147.688 68.6512 147.688C68.9712 147.688 69.2552 147.76 69.5032 147.904C69.7552 148.048 69.9532 148.246 70.0972 148.498C70.2412 148.75 70.3152 149.038 70.3192 149.362C70.3192 149.682 70.2452 149.968 70.0972 150.22C69.9532 150.472 69.7552 150.67 69.5032 150.814C69.2552 150.958 68.9712 151.03 68.6512 151.03ZM68.6512 150.61C68.8832 150.61 69.0912 150.556 69.2752 150.448C69.4592 150.34 69.6032 150.192 69.7072 150.004C69.8112 149.816 69.8632 149.602 69.8632 149.362C69.8632 149.122 69.8112 148.908 69.7072 148.72C69.6032 148.528 69.4592 148.378 69.2752 148.27C69.0912 148.162 68.8832 148.108 68.6512 148.108C68.4192 148.108 68.2112 148.162 68.0272 148.27C67.8432 148.378 67.6972 148.528 67.5892 148.72C67.4852 148.908 67.4332 149.122 67.4332 149.362C67.4332 149.602 67.4852 149.816 67.5892 150.004C67.6972 150.192 67.8432 150.34 68.0272 150.448C68.2112 150.556 68.4192 150.61 68.6512 150.61ZM74.0317 151C73.9637 151 73.9077 150.978 73.8637 150.934C73.8197 150.89 73.7977 150.836 73.7977 150.772V149.212C73.7977 148.964 73.7497 148.76 73.6537 148.6C73.5617 148.44 73.4337 148.32 73.2697 148.24C73.1097 148.16 72.9277 148.12 72.7237 148.12C72.5277 148.12 72.3497 148.158 72.1897 148.234C72.0337 148.31 71.9097 148.414 71.8177 148.546C71.7257 148.678 71.6797 148.828 71.6797 148.996H71.3497C71.3577 148.744 71.4257 148.52 71.5537 148.324C71.6817 148.124 71.8517 147.968 72.0637 147.856C72.2757 147.74 72.5117 147.682 72.7717 147.682C73.0557 147.682 73.3097 147.742 73.5337 147.862C73.7577 147.978 73.9337 148.15 74.0617 148.378C74.1937 148.606 74.2597 148.884 74.2597 149.212V150.772C74.2597 150.836 74.2377 150.89 74.1937 150.934C74.1497 150.978 74.0957 151 74.0317 151ZM71.4517 151C71.3797 151 71.3217 150.98 71.2777 150.94C71.2377 150.896 71.2177 150.84 71.2177 150.772V147.952C71.2177 147.88 71.2377 147.824 71.2777 147.784C71.3217 147.74 71.3797 147.718 71.4517 147.718C71.5197 147.718 71.5737 147.74 71.6137 147.784C71.6577 147.824 71.6797 147.88 71.6797 147.952V150.772C71.6797 150.84 71.6577 150.896 71.6137 150.94C71.5737 150.98 71.5197 151 71.4517 151ZM75.8406 151C75.7886 151 75.7426 150.986 75.7026 150.958C75.6626 150.93 75.6346 150.894 75.6186 150.85L74.6826 148.042C74.6586 147.942 74.6606 147.864 74.6886 147.808C74.7166 147.748 74.7726 147.718 74.8566 147.718C74.9086 147.718 74.9546 147.732 74.9946 147.76C75.0346 147.788 75.0646 147.832 75.0846 147.892L75.9186 150.442H75.7866L76.5606 147.898C76.5766 147.846 76.6026 147.804 76.6386 147.772C76.6786 147.736 76.7286 147.718 76.7886 147.718C76.8486 147.718 76.8966 147.734 76.9326 147.766C76.9726 147.798 77.0006 147.842 77.0166 147.898L77.7546 150.382H77.6526L78.4686 147.892C78.5086 147.776 78.5826 147.718 78.6906 147.718C78.7786 147.718 78.8386 147.752 78.8706 147.82C78.9026 147.884 78.9026 147.958 78.8706 148.042L77.9346 150.85C77.9186 150.894 77.8906 150.93 77.8506 150.958C77.8146 150.986 77.7706 151 77.7186 151C77.6666 151 77.6186 150.986 77.5746 150.958C77.5346 150.93 77.5086 150.894 77.4966 150.85L76.7406 148.342H76.8126L76.0566 150.85C76.0406 150.898 76.0126 150.936 75.9726 150.964C75.9326 150.988 75.8886 151 75.8406 151ZM80.246 151C80.086 151 79.942 150.956 79.814 150.868C79.69 150.78 79.592 150.658 79.52 150.502C79.452 150.346 79.418 150.166 79.418 149.962V146.542C79.418 146.474 79.438 146.42 79.478 146.38C79.522 146.336 79.578 146.314 79.646 146.314C79.714 146.314 79.768 146.336 79.808 146.38C79.852 146.42 79.874 146.474 79.874 146.542V149.962C79.874 150.134 79.908 150.274 79.976 150.382C80.048 150.49 80.138 150.544 80.246 150.544H80.396C80.456 150.544 80.504 150.566 80.54 150.61C80.576 150.65 80.594 150.704 80.594 150.772C80.594 150.84 80.568 150.896 80.516 150.94C80.468 150.98 80.404 151 80.324 151H80.246ZM82.5438 151.03C82.2238 151.03 81.9378 150.958 81.6858 150.814C81.4338 150.67 81.2358 150.472 81.0918 150.22C80.9478 149.968 80.8758 149.682 80.8758 149.362C80.8758 149.038 80.9478 148.75 81.0918 148.498C81.2358 148.246 81.4338 148.048 81.6858 147.904C81.9378 147.76 82.2238 147.688 82.5438 147.688C82.8638 147.688 83.1478 147.76 83.3958 147.904C83.6478 148.048 83.8458 148.246 83.9898 148.498C84.1338 148.75 84.2078 149.038 84.2118 149.362C84.2118 149.682 84.1378 149.968 83.9898 150.22C83.8458 150.472 83.6478 150.67 83.3958 150.814C83.1478 150.958 82.8638 151.03 82.5438 151.03ZM82.5438 150.61C82.7758 150.61 82.9838 150.556 83.1678 150.448C83.3518 150.34 83.4958 150.192 83.5998 150.004C83.7038 149.816 83.7558 149.602 83.7558 149.362C83.7558 149.122 83.7038 148.908 83.5998 148.72C83.4958 148.528 83.3518 148.378 83.1678 148.27C82.9838 148.162 82.7758 148.108 82.5438 148.108C82.3118 148.108 82.1038 148.162 81.9198 148.27C81.7358 148.378 81.5898 148.528 81.4818 148.72C81.3778 148.908 81.3258 149.122 81.3258 149.362C81.3258 149.602 81.3778 149.816 81.4818 150.004C81.5898 150.192 81.7358 150.34 81.9198 150.448C82.1038 150.556 82.3118 150.61 82.5438 150.61ZM86.5563 151.03C86.2483 151.03 85.9723 150.958 85.7283 150.814C85.4843 150.666 85.2903 150.466 85.1463 150.214C85.0063 149.962 84.9363 149.678 84.9363 149.362C84.9363 149.042 85.0083 148.756 85.1523 148.504C85.3003 148.252 85.5003 148.054 85.7523 147.91C86.0043 147.762 86.2883 147.688 86.6043 147.688C86.9203 147.688 87.2023 147.762 87.4503 147.91C87.7023 148.054 87.9003 148.252 88.0443 148.504C88.1923 148.756 88.2683 149.042 88.2723 149.362L88.0863 149.506C88.0863 149.794 88.0183 150.054 87.8823 150.286C87.7503 150.514 87.5683 150.696 87.3363 150.832C87.1083 150.964 86.8483 151.03 86.5563 151.03ZM86.6043 150.61C86.8363 150.61 87.0423 150.556 87.2223 150.448C87.4063 150.34 87.5503 150.192 87.6543 150.004C87.7623 149.812 87.8163 149.598 87.8163 149.362C87.8163 149.122 87.7623 148.908 87.6543 148.72C87.5503 148.532 87.4063 148.384 87.2223 148.276C87.0423 148.164 86.8363 148.108 86.6043 148.108C86.3763 148.108 86.1703 148.164 85.9863 148.276C85.8023 148.384 85.6563 148.532 85.5483 148.72C85.4403 148.908 85.3863 149.122 85.3863 149.362C85.3863 149.598 85.4403 149.812 85.5483 150.004C85.6563 150.192 85.8023 150.34 85.9863 150.448C86.1703 150.556 86.3763 150.61 86.6043 150.61ZM88.0383 151C87.9703 151 87.9143 150.98 87.8703 150.94C87.8263 150.896 87.8043 150.84 87.8043 150.772V149.746L87.9183 149.272L88.2723 149.362V150.772C88.2723 150.84 88.2503 150.896 88.2063 150.94C88.1623 150.98 88.1063 151 88.0383 151ZM90.6649 151.03C90.3489 151.03 90.0649 150.958 89.8129 150.814C89.5609 150.666 89.3609 150.466 89.2129 150.214C89.0689 149.962 88.9969 149.676 88.9969 149.356C88.9969 149.04 89.0669 148.756 89.2069 148.504C89.3509 148.252 89.5449 148.054 89.7889 147.91C90.0329 147.762 90.3089 147.688 90.6169 147.688C90.8849 147.688 91.1269 147.746 91.3429 147.862C91.5589 147.974 91.7329 148.124 91.8649 148.312V146.548C91.8649 146.476 91.8869 146.42 91.9309 146.38C91.9749 146.336 92.0309 146.314 92.0989 146.314C92.1669 146.314 92.2229 146.336 92.2669 146.38C92.3109 146.42 92.3329 146.476 92.3329 146.548V149.38C92.3249 149.692 92.2469 149.974 92.0989 150.226C91.9549 150.474 91.7569 150.67 91.5049 150.814C91.2569 150.958 90.9769 151.03 90.6649 151.03ZM90.6649 150.61C90.8969 150.61 91.1029 150.556 91.2829 150.448C91.4669 150.336 91.6109 150.186 91.7149 149.998C91.8229 149.81 91.8769 149.596 91.8769 149.356C91.8769 149.12 91.8229 148.908 91.7149 148.72C91.6109 148.528 91.4669 148.378 91.2829 148.27C91.1029 148.162 90.8969 148.108 90.6649 148.108C90.4369 148.108 90.2309 148.162 90.0469 148.27C89.8629 148.378 89.7169 148.528 89.6089 148.72C89.5009 148.908 89.4469 149.12 89.4469 149.356C89.4469 149.596 89.5009 149.81 89.6089 149.998C89.7169 150.186 89.8629 150.336 90.0469 150.448C90.2309 150.556 90.4369 150.61 90.6649 150.61ZM96.6169 151.03C96.3089 151.03 96.0329 150.958 95.7889 150.814C95.5449 150.666 95.3509 150.466 95.2069 150.214C95.0669 149.962 94.9969 149.678 94.9969 149.362C94.9969 149.042 95.0689 148.756 95.2129 148.504C95.3609 148.252 95.5609 148.054 95.8129 147.91C96.0649 147.762 96.3489 147.688 96.6649 147.688C96.9809 147.688 97.2629 147.762 97.5109 147.91C97.7629 148.054 97.9609 148.252 98.1049 148.504C98.2529 148.756 98.3289 149.042 98.3329 149.362L98.1469 149.506C98.1469 149.794 98.0789 150.054 97.9429 150.286C97.8109 150.514 97.6289 150.696 97.3969 150.832C97.1689 150.964 96.9089 151.03 96.6169 151.03ZM96.6649 150.61C96.8969 150.61 97.1029 150.556 97.2829 150.448C97.4669 150.34 97.6109 150.192 97.7149 150.004C97.8229 149.812 97.8769 149.598 97.8769 149.362C97.8769 149.122 97.8229 148.908 97.7149 148.72C97.6109 148.532 97.4669 148.384 97.2829 148.276C97.1029 148.164 96.8969 148.108 96.6649 148.108C96.4369 148.108 96.2309 148.164 96.0469 148.276C95.8629 148.384 95.7169 148.532 95.6089 148.72C95.5009 148.908 95.4469 149.122 95.4469 149.362C95.4469 149.598 95.5009 149.812 95.6089 150.004C95.7169 150.192 95.8629 150.34 96.0469 150.448C96.2309 150.556 96.4369 150.61 96.6649 150.61ZM98.0989 151C98.0309 151 97.9749 150.98 97.9309 150.94C97.8869 150.896 97.8649 150.84 97.8649 150.772V149.746L97.9789 149.272L98.3329 149.362V150.772C98.3329 150.84 98.3109 150.896 98.2669 150.94C98.2229 150.98 98.1669 151 98.0989 151ZM102.045 151C101.977 151 101.921 150.978 101.877 150.934C101.833 150.89 101.811 150.836 101.811 150.772V149.212C101.811 148.964 101.763 148.76 101.667 148.6C101.575 148.44 101.447 148.32 101.283 148.24C101.123 148.16 100.941 148.12 100.737 148.12C100.541 148.12 100.363 148.158 100.203 148.234C100.047 148.31 99.9234 148.414 99.8314 148.546C99.7394 148.678 99.6934 148.828 99.6934 148.996H99.3634C99.3714 148.744 99.4394 148.52 99.5674 148.324C99.6954 148.124 99.8654 147.968 100.077 147.856C100.289 147.74 100.525 147.682 100.785 147.682C101.069 147.682 101.323 147.742 101.547 147.862C101.771 147.978 101.947 148.15 102.075 148.378C102.207 148.606 102.273 148.884 102.273 149.212V150.772C102.273 150.836 102.251 150.89 102.207 150.934C102.163 150.978 102.109 151 102.045 151ZM99.4654 151C99.3934 151 99.3354 150.98 99.2914 150.94C99.2514 150.896 99.2314 150.84 99.2314 150.772V147.952C99.2314 147.88 99.2514 147.824 99.2914 147.784C99.3354 147.74 99.3934 147.718 99.4654 147.718C99.5334 147.718 99.5874 147.74 99.6274 147.784C99.6714 147.824 99.6934 147.88 99.6934 147.952V150.772C99.6934 150.84 99.6714 150.896 99.6274 150.94C99.5874 150.98 99.5334 151 99.4654 151ZM104.786 151.03C104.47 151.03 104.186 150.958 103.934 150.814C103.682 150.666 103.482 150.466 103.334 150.214C103.19 149.962 103.118 149.676 103.118 149.356C103.118 149.04 103.188 148.756 103.328 148.504C103.472 148.252 103.666 148.054 103.91 147.91C104.154 147.762 104.43 147.688 104.738 147.688C105.006 147.688 105.248 147.746 105.464 147.862C105.68 147.974 105.854 148.124 105.986 148.312V146.548C105.986 146.476 106.008 146.42 106.052 146.38C106.096 146.336 106.152 146.314 106.22 146.314C106.288 146.314 106.344 146.336 106.388 146.38C106.432 146.42 106.454 146.476 106.454 146.548V149.38C106.446 149.692 106.368 149.974 106.22 150.226C106.076 150.474 105.878 150.67 105.626 150.814C105.378 150.958 105.098 151.03 104.786 151.03ZM104.786 150.61C105.018 150.61 105.224 150.556 105.404 150.448C105.588 150.336 105.732 150.186 105.836 149.998C105.944 149.81 105.998 149.596 105.998 149.356C105.998 149.12 105.944 148.908 105.836 148.72C105.732 148.528 105.588 148.378 105.404 148.27C105.224 148.162 105.018 148.108 104.786 148.108C104.558 148.108 104.352 148.162 104.168 148.27C103.984 148.378 103.838 148.528 103.73 148.72C103.622 148.908 103.568 149.12 103.568 149.356C103.568 149.596 103.622 149.81 103.73 149.998C103.838 150.186 103.984 150.336 104.168 150.448C104.352 150.556 104.558 150.61 104.786 150.61ZM109.586 151C109.518 151 109.462 150.978 109.418 150.934C109.374 150.89 109.352 150.834 109.352 150.766V146.548C109.352 146.48 109.374 146.424 109.418 146.38C109.462 146.336 109.518 146.314 109.586 146.314H110.708C111 146.314 111.26 146.376 111.488 146.5C111.716 146.62 111.894 146.79 112.022 147.01C112.154 147.226 112.22 147.476 112.22 147.76C112.22 148.032 112.154 148.274 112.022 148.486C111.894 148.698 111.716 148.864 111.488 148.984C111.26 149.104 111 149.164 110.708 149.164H109.82V150.766C109.82 150.834 109.798 150.89 109.754 150.934C109.71 150.978 109.654 151 109.586 151ZM112.094 151C112.042 151 112 150.99 111.968 150.97C111.94 150.95 111.914 150.92 111.89 150.88L110.738 149.044L111.206 148.924L112.28 150.64C112.34 150.736 112.35 150.82 112.31 150.892C112.274 150.964 112.202 151 112.094 151ZM109.82 148.714H110.708C110.912 148.714 111.092 148.674 111.248 148.594C111.408 148.51 111.534 148.396 111.626 148.252C111.718 148.108 111.764 147.944 111.764 147.76C111.764 147.564 111.718 147.392 111.626 147.244C111.534 147.092 111.408 146.974 111.248 146.89C111.092 146.806 110.912 146.764 110.708 146.764H109.82V148.714ZM114.489 151.03C114.165 151.03 113.877 150.96 113.625 150.82C113.377 150.676 113.181 150.478 113.037 150.226C112.897 149.974 112.827 149.686 112.827 149.362C112.827 149.034 112.893 148.746 113.025 148.498C113.161 148.246 113.347 148.048 113.583 147.904C113.819 147.76 114.091 147.688 114.399 147.688C114.703 147.688 114.967 147.758 115.191 147.898C115.419 148.034 115.595 148.224 115.719 148.468C115.843 148.712 115.905 148.99 115.905 149.302C115.905 149.366 115.885 149.418 115.845 149.458C115.805 149.494 115.753 149.512 115.689 149.512H113.139V149.128H115.737L115.479 149.314C115.483 149.082 115.441 148.874 115.353 148.69C115.265 148.506 115.139 148.362 114.975 148.258C114.815 148.154 114.623 148.102 114.399 148.102C114.171 148.102 113.971 148.156 113.799 148.264C113.627 148.372 113.493 148.522 113.397 148.714C113.305 148.902 113.259 149.118 113.259 149.362C113.259 149.606 113.311 149.822 113.415 150.01C113.523 150.198 113.669 150.346 113.853 150.454C114.037 150.562 114.249 150.616 114.489 150.616C114.633 150.616 114.777 150.592 114.921 150.544C115.069 150.492 115.187 150.428 115.275 150.352C115.319 150.316 115.369 150.298 115.425 150.298C115.481 150.294 115.529 150.308 115.569 150.34C115.621 150.388 115.647 150.44 115.647 150.496C115.651 150.552 115.629 150.6 115.581 150.64C115.449 150.752 115.281 150.846 115.077 150.922C114.873 150.994 114.677 151.03 114.489 151.03ZM118.015 151.03C117.707 151.03 117.431 150.958 117.187 150.814C116.943 150.666 116.749 150.466 116.605 150.214C116.465 149.962 116.395 149.678 116.395 149.362C116.395 149.042 116.467 148.756 116.611 148.504C116.759 148.252 116.959 148.054 117.211 147.91C117.463 147.762 117.747 147.688 118.063 147.688C118.379 147.688 118.661 147.762 118.909 147.91C119.161 148.054 119.359 148.252 119.503 148.504C119.651 148.756 119.727 149.042 119.731 149.362L119.545 149.506C119.545 149.794 119.477 150.054 119.341 150.286C119.209 150.514 119.027 150.696 118.795 150.832C118.567 150.964 118.307 151.03 118.015 151.03ZM118.063 150.61C118.295 150.61 118.501 150.556 118.681 150.448C118.865 150.34 119.009 150.192 119.113 150.004C119.221 149.812 119.275 149.598 119.275 149.362C119.275 149.122 119.221 148.908 119.113 148.72C119.009 148.532 118.865 148.384 118.681 148.276C118.501 148.164 118.295 148.108 118.063 148.108C117.835 148.108 117.629 148.164 117.445 148.276C117.261 148.384 117.115 148.532 117.007 148.72C116.899 148.908 116.845 149.122 116.845 149.362C116.845 149.598 116.899 149.812 117.007 150.004C117.115 150.192 117.261 150.34 117.445 150.448C117.629 150.556 117.835 150.61 118.063 150.61ZM119.497 151C119.429 151 119.373 150.98 119.329 150.94C119.285 150.896 119.263 150.84 119.263 150.772V149.746L119.377 149.272L119.731 149.362V150.772C119.731 150.84 119.709 150.896 119.665 150.94C119.621 150.98 119.565 151 119.497 151ZM122.124 151.03C121.808 151.03 121.524 150.958 121.272 150.814C121.02 150.666 120.82 150.466 120.672 150.214C120.528 149.962 120.456 149.676 120.456 149.356C120.456 149.04 120.526 148.756 120.666 148.504C120.81 148.252 121.004 148.054 121.248 147.91C121.492 147.762 121.768 147.688 122.076 147.688C122.344 147.688 122.586 147.746 122.802 147.862C123.018 147.974 123.192 148.124 123.324 148.312V146.548C123.324 146.476 123.346 146.42 123.39 146.38C123.434 146.336 123.49 146.314 123.558 146.314C123.626 146.314 123.682 146.336 123.726 146.38C123.77 146.42 123.792 146.476 123.792 146.548V149.38C123.784 149.692 123.706 149.974 123.558 150.226C123.414 150.474 123.216 150.67 122.964 150.814C122.716 150.958 122.436 151.03 122.124 151.03ZM122.124 150.61C122.356 150.61 122.562 150.556 122.742 150.448C122.926 150.336 123.07 150.186 123.174 149.998C123.282 149.81 123.336 149.596 123.336 149.356C123.336 149.12 123.282 148.908 123.174 148.72C123.07 148.528 122.926 148.378 122.742 148.27C122.562 148.162 122.356 148.108 122.124 148.108C121.896 148.108 121.69 148.162 121.506 148.27C121.322 148.378 121.176 148.528 121.068 148.72C120.96 148.908 120.906 149.12 120.906 149.356C120.906 149.596 120.96 149.81 121.068 149.998C121.176 150.186 121.322 150.336 121.506 150.448C121.69 150.556 121.896 150.61 122.124 150.61ZM128.118 151.03C127.794 151.03 127.506 150.96 127.254 150.82C127.006 150.676 126.81 150.478 126.666 150.226C126.526 149.974 126.456 149.686 126.456 149.362C126.456 149.034 126.522 148.746 126.654 148.498C126.79 148.246 126.976 148.048 127.212 147.904C127.448 147.76 127.72 147.688 128.028 147.688C128.332 147.688 128.596 147.758 128.82 147.898C129.048 148.034 129.224 148.224 129.348 148.468C129.472 148.712 129.534 148.99 129.534 149.302C129.534 149.366 129.514 149.418 129.474 149.458C129.434 149.494 129.382 149.512 129.318 149.512H126.768V149.128H129.366L129.108 149.314C129.112 149.082 129.07 148.874 128.982 148.69C128.894 148.506 128.768 148.362 128.604 148.258C128.444 148.154 128.252 148.102 128.028 148.102C127.8 148.102 127.6 148.156 127.428 148.264C127.256 148.372 127.122 148.522 127.026 148.714C126.934 148.902 126.888 149.118 126.888 149.362C126.888 149.606 126.94 149.822 127.044 150.01C127.152 150.198 127.298 150.346 127.482 150.454C127.666 150.562 127.878 150.616 128.118 150.616C128.262 150.616 128.406 150.592 128.55 150.544C128.698 150.492 128.816 150.428 128.904 150.352C128.948 150.316 128.998 150.298 129.054 150.298C129.11 150.294 129.158 150.308 129.198 150.34C129.25 150.388 129.276 150.44 129.276 150.496C129.28 150.552 129.258 150.6 129.21 150.64C129.078 150.752 128.91 150.846 128.706 150.922C128.502 150.994 128.306 151.03 128.118 151.03ZM131.977 151.03C131.665 151.03 131.383 150.958 131.131 150.814C130.883 150.67 130.685 150.474 130.537 150.226C130.393 149.974 130.319 149.692 130.315 149.38V146.548C130.315 146.476 130.335 146.42 130.375 146.38C130.419 146.336 130.477 146.314 130.549 146.314C130.617 146.314 130.671 146.336 130.711 146.38C130.755 146.42 130.777 146.476 130.777 146.548V148.312C130.909 148.124 131.083 147.974 131.299 147.862C131.519 147.746 131.763 147.688 132.031 147.688C132.339 147.688 132.615 147.762 132.859 147.91C133.103 148.054 133.295 148.252 133.435 148.504C133.579 148.756 133.651 149.04 133.651 149.356C133.651 149.676 133.577 149.962 133.429 150.214C133.285 150.466 133.087 150.666 132.835 150.814C132.583 150.958 132.297 151.03 131.977 151.03ZM131.977 150.61C132.209 150.61 132.417 150.556 132.601 150.448C132.785 150.336 132.929 150.186 133.033 149.998C133.141 149.81 133.195 149.596 133.195 149.356C133.195 149.12 133.141 148.908 133.033 148.72C132.929 148.528 132.785 148.378 132.601 148.27C132.417 148.162 132.209 148.108 131.977 148.108C131.749 148.108 131.543 148.162 131.359 148.27C131.175 148.378 131.031 148.528 130.927 148.72C130.823 148.908 130.771 149.12 130.771 149.356C130.771 149.596 130.823 149.81 130.927 149.998C131.031 150.186 131.175 150.336 131.359 150.448C131.543 150.556 131.749 150.61 131.977 150.61ZM136.052 151.03C135.732 151.03 135.446 150.958 135.194 150.814C134.942 150.67 134.744 150.472 134.6 150.22C134.456 149.968 134.384 149.682 134.384 149.362C134.384 149.038 134.456 148.75 134.6 148.498C134.744 148.246 134.942 148.048 135.194 147.904C135.446 147.76 135.732 147.688 136.052 147.688C136.372 147.688 136.656 147.76 136.904 147.904C137.156 148.048 137.354 148.246 137.498 148.498C137.642 148.75 137.716 149.038 137.72 149.362C137.72 149.682 137.646 149.968 137.498 150.22C137.354 150.472 137.156 150.67 136.904 150.814C136.656 150.958 136.372 151.03 136.052 151.03ZM136.052 150.61C136.284 150.61 136.492 150.556 136.676 150.448C136.86 150.34 137.004 150.192 137.108 150.004C137.212 149.816 137.264 149.602 137.264 149.362C137.264 149.122 137.212 148.908 137.108 148.72C137.004 148.528 136.86 148.378 136.676 148.27C136.492 148.162 136.284 148.108 136.052 148.108C135.82 148.108 135.612 148.162 135.428 148.27C135.244 148.378 135.098 148.528 134.99 148.72C134.886 148.908 134.834 149.122 134.834 149.362C134.834 149.602 134.886 149.816 134.99 150.004C135.098 150.192 135.244 150.34 135.428 150.448C135.612 150.556 135.82 150.61 136.052 150.61ZM140.112 151.03C139.792 151.03 139.506 150.958 139.254 150.814C139.002 150.67 138.804 150.472 138.66 150.22C138.516 149.968 138.444 149.682 138.444 149.362C138.444 149.038 138.516 148.75 138.66 148.498C138.804 148.246 139.002 148.048 139.254 147.904C139.506 147.76 139.792 147.688 140.112 147.688C140.432 147.688 140.716 147.76 140.964 147.904C141.216 148.048 141.414 148.246 141.558 148.498C141.702 148.75 141.776 149.038 141.78 149.362C141.78 149.682 141.706 149.968 141.558 150.22C141.414 150.472 141.216 150.67 140.964 150.814C140.716 150.958 140.432 151.03 140.112 151.03ZM140.112 150.61C140.344 150.61 140.552 150.556 140.736 150.448C140.92 150.34 141.064 150.192 141.168 150.004C141.272 149.816 141.324 149.602 141.324 149.362C141.324 149.122 141.272 148.908 141.168 148.72C141.064 148.528 140.92 148.378 140.736 148.27C140.552 148.162 140.344 148.108 140.112 148.108C139.88 148.108 139.672 148.162 139.488 148.27C139.304 148.378 139.158 148.528 139.05 148.72C138.946 148.908 138.894 149.122 138.894 149.362C138.894 149.602 138.946 149.816 139.05 150.004C139.158 150.192 139.304 150.34 139.488 150.448C139.672 150.556 139.88 150.61 140.112 150.61ZM143.057 149.902L142.775 149.596L144.827 147.742C144.875 147.698 144.925 147.678 144.977 147.682C145.029 147.682 145.077 147.706 145.121 147.754C145.165 147.802 145.185 147.854 145.181 147.91C145.181 147.962 145.157 148.008 145.109 148.048L143.057 149.902ZM142.907 151C142.839 151 142.783 150.98 142.739 150.94C142.699 150.896 142.679 150.84 142.679 150.772V146.542C142.679 146.474 142.699 146.42 142.739 146.38C142.783 146.336 142.839 146.314 142.907 146.314C142.975 146.314 143.029 146.336 143.069 146.38C143.113 146.42 143.135 146.474 143.135 146.542V150.772C143.135 150.84 143.113 150.896 143.069 150.94C143.029 150.98 142.975 151 142.907 151ZM145.127 150.97C145.075 151.014 145.021 151.032 144.965 151.024C144.909 151.02 144.861 150.992 144.821 150.94L143.483 149.296L143.807 149.008L145.157 150.67C145.197 150.718 145.215 150.77 145.211 150.826C145.207 150.878 145.179 150.926 145.127 150.97ZM147.258 151.03C147.022 151.03 146.788 150.99 146.556 150.91C146.324 150.83 146.136 150.71 145.992 150.55C145.948 150.502 145.93 150.448 145.938 150.388C145.946 150.328 145.976 150.276 146.028 150.232C146.084 150.192 146.142 150.176 146.202 150.184C146.262 150.192 146.312 150.218 146.352 150.262C146.448 150.374 146.574 150.46 146.73 150.52C146.89 150.58 147.066 150.61 147.258 150.61C147.554 150.61 147.768 150.56 147.9 150.46C148.032 150.356 148.1 150.232 148.104 150.088C148.104 149.944 148.036 149.826 147.9 149.734C147.764 149.638 147.54 149.564 147.228 149.512C146.824 149.448 146.528 149.336 146.34 149.176C146.152 149.016 146.058 148.826 146.058 148.606C146.058 148.402 146.112 148.232 146.22 148.096C146.328 147.96 146.472 147.858 146.652 147.79C146.832 147.722 147.03 147.688 147.246 147.688C147.514 147.688 147.744 147.734 147.936 147.826C148.132 147.918 148.29 148.042 148.41 148.198C148.45 148.25 148.466 148.304 148.458 148.36C148.45 148.416 148.418 148.462 148.362 148.498C148.314 148.526 148.258 148.536 148.194 148.528C148.134 148.516 148.082 148.486 148.038 148.438C147.938 148.322 147.822 148.238 147.69 148.186C147.558 148.13 147.406 148.102 147.234 148.102C147.014 148.102 146.838 148.148 146.706 148.24C146.574 148.328 146.508 148.44 146.508 148.576C146.508 148.668 146.532 148.748 146.58 148.816C146.632 148.884 146.718 148.944 146.838 148.996C146.962 149.048 147.134 149.092 147.354 149.128C147.654 149.176 147.89 149.248 148.062 149.344C148.238 149.436 148.362 149.546 148.434 149.674C148.51 149.798 148.548 149.934 148.548 150.082C148.548 150.27 148.492 150.436 148.38 150.58C148.272 150.72 148.12 150.83 147.924 150.91C147.732 150.99 147.51 151.03 147.258 151.03ZM151.512 151C151.452 151 151.4 150.98 151.356 150.94C151.312 150.896 151.29 150.838 151.29 150.766V147.724C151.29 147.444 151.338 147.198 151.434 146.986C151.53 146.774 151.672 146.61 151.86 146.494C152.048 146.374 152.278 146.314 152.55 146.314C152.618 146.314 152.674 146.334 152.718 146.374C152.762 146.414 152.784 146.464 152.784 146.524C152.784 146.584 152.762 146.634 152.718 146.674C152.674 146.714 152.618 146.734 152.55 146.734C152.37 146.734 152.22 146.776 152.1 146.86C151.984 146.94 151.896 147.054 151.836 147.202C151.78 147.346 151.752 147.512 151.752 147.7V150.766C151.752 150.838 151.73 150.896 151.686 150.94C151.646 150.98 151.588 151 151.512 151ZM150.906 148.24C150.842 148.24 150.79 148.222 150.75 148.186C150.714 148.146 150.696 148.098 150.696 148.042C150.696 147.982 150.714 147.934 150.75 147.898C150.79 147.858 150.842 147.838 150.906 147.838H152.472C152.536 147.838 152.586 147.858 152.622 147.898C152.662 147.934 152.682 147.982 152.682 148.042C152.682 148.098 152.662 148.146 152.622 148.186C152.586 148.222 152.536 148.24 152.472 148.24H150.906ZM154.679 151.03C154.359 151.03 154.073 150.958 153.821 150.814C153.569 150.67 153.371 150.472 153.227 150.22C153.083 149.968 153.011 149.682 153.011 149.362C153.011 149.038 153.083 148.75 153.227 148.498C153.371 148.246 153.569 148.048 153.821 147.904C154.073 147.76 154.359 147.688 154.679 147.688C154.999 147.688 155.283 147.76 155.531 147.904C155.783 148.048 155.981 148.246 156.125 148.498C156.269 148.75 156.343 149.038 156.347 149.362C156.347 149.682 156.273 149.968 156.125 150.22C155.981 150.472 155.783 150.67 155.531 150.814C155.283 150.958 154.999 151.03 154.679 151.03ZM154.679 150.61C154.911 150.61 155.119 150.556 155.303 150.448C155.487 150.34 155.631 150.192 155.735 150.004C155.839 149.816 155.891 149.602 155.891 149.362C155.891 149.122 155.839 148.908 155.735 148.72C155.631 148.528 155.487 148.378 155.303 148.27C155.119 148.162 154.911 148.108 154.679 148.108C154.447 148.108 154.239 148.162 154.055 148.27C153.871 148.378 153.725 148.528 153.617 148.72C153.513 148.908 153.461 149.122 153.461 149.362C153.461 149.602 153.513 149.816 153.617 150.004C153.725 150.192 153.871 150.34 154.055 150.448C154.239 150.556 154.447 150.61 154.679 150.61ZM157.437 148.978C157.449 148.73 157.513 148.508 157.629 148.312C157.749 148.116 157.903 147.962 158.091 147.85C158.283 147.738 158.495 147.682 158.727 147.682C158.911 147.682 159.053 147.708 159.153 147.76C159.253 147.812 159.291 147.888 159.267 147.988C159.251 148.048 159.223 148.088 159.183 148.108C159.147 148.128 159.101 148.136 159.045 148.132C158.993 148.128 158.933 148.124 158.865 148.12C158.641 148.1 158.441 148.124 158.265 148.192C158.093 148.256 157.955 148.356 157.851 148.492C157.751 148.628 157.701 148.79 157.701 148.978H157.437ZM157.473 151C157.401 151 157.345 150.98 157.305 150.94C157.265 150.9 157.245 150.844 157.245 150.772V147.946C157.245 147.874 157.265 147.818 157.305 147.778C157.345 147.738 157.401 147.718 157.473 147.718C157.545 147.718 157.601 147.738 157.641 147.778C157.681 147.818 157.701 147.874 157.701 147.946V150.772C157.701 150.844 157.681 150.9 157.641 150.94C157.601 150.98 157.545 151 157.473 151ZM162.159 151C162.099 151 162.047 150.98 162.003 150.94C161.959 150.896 161.937 150.838 161.937 150.766V147.724C161.937 147.444 161.985 147.198 162.081 146.986C162.177 146.774 162.319 146.61 162.507 146.494C162.695 146.374 162.925 146.314 163.197 146.314C163.265 146.314 163.321 146.334 163.365 146.374C163.409 146.414 163.431 146.464 163.431 146.524C163.431 146.584 163.409 146.634 163.365 146.674C163.321 146.714 163.265 146.734 163.197 146.734C163.017 146.734 162.867 146.776 162.747 146.86C162.631 146.94 162.543 147.054 162.483 147.202C162.427 147.346 162.399 147.512 162.399 147.7V150.766C162.399 150.838 162.377 150.896 162.333 150.94C162.293 150.98 162.235 151 162.159 151ZM161.553 148.24C161.489 148.24 161.437 148.222 161.397 148.186C161.361 148.146 161.343 148.098 161.343 148.042C161.343 147.982 161.361 147.934 161.397 147.898C161.437 147.858 161.489 147.838 161.553 147.838H163.119C163.183 147.838 163.233 147.858 163.269 147.898C163.309 147.934 163.329 147.982 163.329 148.042C163.329 148.098 163.309 148.146 163.269 148.186C163.233 148.222 163.183 148.24 163.119 148.24H161.553ZM164.14 148.978C164.152 148.73 164.216 148.508 164.332 148.312C164.452 148.116 164.606 147.962 164.794 147.85C164.986 147.738 165.198 147.682 165.43 147.682C165.614 147.682 165.756 147.708 165.856 147.76C165.956 147.812 165.994 147.888 165.97 147.988C165.954 148.048 165.926 148.088 165.886 148.108C165.85 148.128 165.804 148.136 165.748 148.132C165.696 148.128 165.636 148.124 165.568 148.12C165.344 148.1 165.144 148.124 164.968 148.192C164.796 148.256 164.658 148.356 164.554 148.492C164.454 148.628 164.404 148.79 164.404 148.978H164.14ZM164.176 151C164.104 151 164.048 150.98 164.008 150.94C163.968 150.9 163.948 150.844 163.948 150.772V147.946C163.948 147.874 163.968 147.818 164.008 147.778C164.048 147.738 164.104 147.718 164.176 147.718C164.248 147.718 164.304 147.738 164.344 147.778C164.384 147.818 164.404 147.874 164.404 147.946V150.772C164.404 150.844 164.384 150.9 164.344 150.94C164.304 150.98 164.248 151 164.176 151ZM167.944 151.03C167.62 151.03 167.332 150.96 167.08 150.82C166.832 150.676 166.636 150.478 166.492 150.226C166.352 149.974 166.282 149.686 166.282 149.362C166.282 149.034 166.348 148.746 166.48 148.498C166.616 148.246 166.802 148.048 167.038 147.904C167.274 147.76 167.546 147.688 167.854 147.688C168.158 147.688 168.422 147.758 168.646 147.898C168.874 148.034 169.05 148.224 169.174 148.468C169.298 148.712 169.36 148.99 169.36 149.302C169.36 149.366 169.34 149.418 169.3 149.458C169.26 149.494 169.208 149.512 169.144 149.512H166.594V149.128H169.192L168.934 149.314C168.938 149.082 168.896 148.874 168.808 148.69C168.72 148.506 168.594 148.362 168.43 148.258C168.27 148.154 168.078 148.102 167.854 148.102C167.626 148.102 167.426 148.156 167.254 148.264C167.082 148.372 166.948 148.522 166.852 148.714C166.76 148.902 166.714 149.118 166.714 149.362C166.714 149.606 166.766 149.822 166.87 150.01C166.978 150.198 167.124 150.346 167.308 150.454C167.492 150.562 167.704 150.616 167.944 150.616C168.088 150.616 168.232 150.592 168.376 150.544C168.524 150.492 168.642 150.428 168.73 150.352C168.774 150.316 168.824 150.298 168.88 150.298C168.936 150.294 168.984 150.308 169.024 150.34C169.076 150.388 169.102 150.44 169.102 150.496C169.106 150.552 169.084 150.6 169.036 150.64C168.904 150.752 168.736 150.846 168.532 150.922C168.328 150.994 168.132 151.03 167.944 151.03ZM171.512 151.03C171.188 151.03 170.9 150.96 170.648 150.82C170.4 150.676 170.204 150.478 170.06 150.226C169.92 149.974 169.85 149.686 169.85 149.362C169.85 149.034 169.916 148.746 170.048 148.498C170.184 148.246 170.37 148.048 170.606 147.904C170.842 147.76 171.114 147.688 171.422 147.688C171.726 147.688 171.99 147.758 172.214 147.898C172.442 148.034 172.618 148.224 172.742 148.468C172.866 148.712 172.928 148.99 172.928 149.302C172.928 149.366 172.908 149.418 172.868 149.458C172.828 149.494 172.776 149.512 172.712 149.512H170.162V149.128H172.76L172.502 149.314C172.506 149.082 172.464 148.874 172.376 148.69C172.288 148.506 172.162 148.362 171.998 148.258C171.838 148.154 171.646 148.102 171.422 148.102C171.194 148.102 170.994 148.156 170.822 148.264C170.65 148.372 170.516 148.522 170.42 148.714C170.328 148.902 170.282 149.118 170.282 149.362C170.282 149.606 170.334 149.822 170.438 150.01C170.546 150.198 170.692 150.346 170.876 150.454C171.06 150.562 171.272 150.616 171.512 150.616C171.656 150.616 171.8 150.592 171.944 150.544C172.092 150.492 172.21 150.428 172.298 150.352C172.342 150.316 172.392 150.298 172.448 150.298C172.504 150.294 172.552 150.308 172.592 150.34C172.644 150.388 172.67 150.44 172.67 150.496C172.674 150.552 172.652 150.6 172.604 150.64C172.472 150.752 172.304 150.846 172.1 150.922C171.896 150.994 171.7 151.03 171.512 151.03Z" fill="black"/>
</svg>
